<svg width="192" height="103" viewBox="0 0 192 103" fill="none" xmlns="http://www.w3.org/2000/svg">
<path d="M31.1249 58.0364C29.3889 57.4767 27.4557 58.4673 26.896 60.2033L24.8191 66.6447C23.4221 66.5978 22.1135 66.2767 21.1541 65.9674C17.4994 64.789 16.9023 62.7305 17.683 60.3092L18.5814 57.5225C19.1559 55.7408 18.1506 53.8533 16.4146 53.2935C14.6786 52.7338 12.7601 53.6787 12.1857 55.4604L11.1546 58.6583C9.31342 64.3688 11.7294 69.2328 19.0388 71.5895C20.5007 72.0609 21.7784 72.3215 22.9927 72.3096L21.0336 78.3856C20.4739 80.1216 21.4645 82.0548 23.2005 82.6145C24.9365 83.1742 26.8697 82.1837 27.4294 80.4477L33.2918 62.2654C33.8515 60.5294 32.9066 58.6109 31.1249 58.0364Z" fill="black"/>
<path d="M60.63 73.6666C60.484 67.1371 56.5416 61.8562 49.0932 61.087C41.5971 60.3129 35.6726 65.347 34.8985 72.8431C34.0998 80.578 39.1536 86.3115 46.8407 87.1053C50.8514 87.5194 54.218 86.2264 56.9291 83.8041C57.6189 83.1998 57.9316 82.5082 57.9957 81.8875C58.1584 80.3119 56.9069 78.8798 55.379 78.722C54.615 78.6431 53.8215 78.8507 53.0693 79.5933C51.6223 80.9881 49.8049 81.7655 47.4653 81.5239C43.9798 81.164 41.3946 78.629 41.4335 75.4482L56.951 77.0506C59.0041 77.2626 60.3968 76.3931 60.6038 74.3878C60.6285 74.149 60.6531 73.9103 60.63 73.6666ZM48.5311 66.5301C51.8733 66.8752 54.1919 69.1896 54.1677 72.2272L41.897 70.9601C42.3986 67.9718 45.1889 66.1849 48.5311 66.5301Z" fill="black"/>
<path d="M80.4937 60.7689C76.253 61.285 73.2507 63.6329 72.455 66.6309L72.2985 65.3444C72.0317 63.1526 70.2191 62.1643 68.5037 62.3731C66.836 62.576 65.2657 63.976 65.5324 66.1678L69.1797 96.1387C69.4464 98.3305 71.3067 99.313 72.9744 99.11C74.6898 98.9013 76.2125 97.5071 75.9458 95.3153L74.5193 83.5938C76.8208 86.215 80.3128 87.0956 83.3146 86.7303C90.986 85.7967 95.0306 79.6954 94.1318 72.3099C93.2736 65.2579 88.0699 59.8469 80.4937 60.7689ZM81.1906 80.7994C77.1881 81.2865 73.9755 78.7278 73.4942 74.773C73.013 70.8182 75.5182 67.5637 79.5206 67.0766C83.5707 66.5838 86.7776 69.0948 87.2646 73.0972C87.7517 77.0997 85.1931 80.3123 81.1906 80.7994Z" fill="black"/>
<path d="M107.635 81.9091C109.337 81.2528 110.218 79.2671 109.562 77.5652L107.282 71.6535L117.269 67.8023L119.549 73.714C120.205 75.4158 122.191 76.2963 123.893 75.6401C125.594 74.9838 126.475 72.998 125.819 71.2962L118.945 53.4715C118.272 51.7249 116.303 50.8892 114.601 51.5454C112.899 52.2017 112.002 54.1427 112.675 55.8893L115.145 62.2937L105.158 66.1449L102.688 59.7406C102.015 57.9939 100.046 57.1582 98.3442 57.8145C96.6423 58.4707 95.7446 60.4117 96.4181 62.1584L103.292 79.983C103.948 81.6849 105.934 82.5654 107.635 81.9091Z" fill="black"/>
<path d="M146.744 62.0303C153.026 57.2859 154.286 49.4768 149.715 43.425C145.173 37.4114 137.288 36.4492 131.007 41.1936C124.725 45.938 123.532 53.7565 128.074 59.77C132.645 65.8218 140.463 66.7747 146.744 62.0303ZM143.041 57.1275C139.862 59.5287 135.761 58.9569 133.36 55.7778C130.959 52.5986 131.53 48.4975 134.71 46.0964C137.927 43.6663 142.028 44.2381 144.429 47.4172C146.83 50.5963 146.259 54.6975 143.041 57.1275Z" fill="black"/>
<path d="M149.625 20.6313C151.985 17.6021 152.22 14.2554 150.996 11.8422C150.765 11.3578 150.484 11.0166 150.181 10.7806C148.969 9.83661 147.318 10.3152 146.492 11.3754C145.902 12.1327 145.72 13.1472 146.393 14.1581C147.028 15.1395 147.195 16.4868 146.104 17.8878C145.071 19.2131 143.808 19.5067 142.558 19.0805C141.384 18.7133 140.474 19.0999 139.943 19.7814C139.088 20.8795 139.112 22.7235 140.285 23.638C140.55 23.8445 140.95 24.0342 141.371 24.1188C144.739 24.7951 147.649 23.1682 149.625 20.6313ZM176.998 30.6393C178.119 29.2004 177.852 27.0448 176.413 25.9238L161.797 14.5368C159.752 12.9438 157.428 13.5061 156.218 15.0585C155.481 16.0052 155.168 17.3436 155.546 18.7332L160.222 36.0059L150.339 28.3065C148.862 27.156 146.744 27.4532 145.623 28.892C144.502 30.3309 144.732 32.4571 146.209 33.6076L160.787 44.965C162.832 46.558 165.089 46.0041 166.298 44.4517C167.036 43.505 167.386 42.196 167.038 40.7686L162.627 23.7024L172.283 31.2249C173.722 32.3459 175.877 32.0782 176.998 30.6393Z" fill="black"/>
</svg>
