<svg width="1121" height="886" viewBox="0 0 1121 886" fill="none" xmlns="http://www.w3.org/2000/svg">
<path d="M790.369 520.013C1039.85 555.359 1148.28 352.339 978.714 188.538" stroke="#5EE453" stroke-width="120" stroke-linecap="round" stroke-linejoin="round"/>
<rect x="281.424" y="881.93" width="336.158" height="176" rx="88" transform="rotate(-90 281.424 881.93)" fill="#5EE453" stroke="white" stroke-width="7"/>
<rect x="733.872" y="879.387" width="294.772" height="176" rx="88" transform="rotate(-90 733.872 879.387)" fill="#5EE453" stroke="white" stroke-width="7"/>
<path d="M723.207 599.697C723.204 599.661 723.202 599.631 723.201 599.607C723.163 551.27 695.346 525.697 666.17 525.697C637 525.697 609.188 551.26 609.139 599.578C609.135 599.629 609.13 599.698 609.123 599.785C609.104 600.008 609.073 600.35 609.026 600.802C608.931 601.706 608.771 603.051 608.513 604.774C607.997 608.221 607.09 613.174 605.527 619.131C602.399 631.054 596.665 646.931 586.254 662.786C565.55 694.315 526.078 726.208 450.378 726.208C374.674 726.208 334.415 694.307 312.944 662.739C302.152 646.871 296.041 630.985 292.632 619.057C290.929 613.098 289.904 608.143 289.307 604.695C289.008 602.971 288.817 601.626 288.701 600.721C288.643 600.269 288.604 599.927 288.58 599.704C288.573 599.638 288.567 599.582 288.563 599.537C288.659 395.492 462.881 224.27 666.17 224.27C869.451 224.27 1043.67 395.476 1043.78 599.509C1043.77 599.549 1043.77 599.597 1043.76 599.651C1043.73 599.875 1043.69 600.217 1043.62 600.669C1043.49 601.574 1043.28 602.92 1042.96 604.644C1042.31 608.093 1041.21 613.049 1039.41 619.01C1035.82 630.94 1029.46 646.833 1018.42 662.709C996.451 694.302 955.681 726.208 879.973 726.208C804.277 726.208 765.317 694.32 745.112 662.818C734.949 646.971 729.46 631.101 726.515 619.18C725.044 613.225 724.212 608.272 723.749 604.826C723.517 603.103 723.378 601.759 723.297 600.855C723.257 600.403 723.231 600.061 723.216 599.838C723.212 599.784 723.209 599.737 723.207 599.697Z" fill="#5EE453" stroke="white" stroke-width="7"/>
<rect x="441.807" y="881.93" width="294.772" height="176" rx="88" transform="rotate(-90 441.807 881.93)" fill="#5EE453" stroke="white" stroke-width="7"/>
<rect x="874.917" y="881.93" width="294.772" height="176" rx="88" transform="rotate(-90 874.917 881.93)" fill="#5EE453" stroke="white" stroke-width="7"/>
<circle cx="326.343" cy="318.916" r="273.07" fill="white"/>
<circle cx="326.343" cy="318.916" r="273.07" fill="white"/>
<circle cx="326.343" cy="318.916" r="273.07" stroke="black" stroke-width="7"/>
<path d="M204.082 244.149C245.702 219.298 256.323 158.567 226.134 108.007C195.945 57.4473 137.444 37.9879 95.8234 62.8391C54.2027 87.6903 43.5824 148.421 73.7712 198.981C103.96 249.541 162.461 269.001 204.082 244.149Z" fill="#5EE453" stroke="white" stroke-width="7"/>
<circle cx="300.518" cy="321.853" r="222.921" fill="#5EE453" stroke="white" stroke-width="7"/>
<circle cx="61.8461" cy="61.8461" r="58.3461" transform="matrix(-1 0 0 1 349.826 258.021)" fill="white" stroke="white" stroke-width="7"/>
<path d="M274.285 318.02C274.285 335.668 288.994 350.129 307.331 350.129C325.667 350.129 340.376 335.668 340.376 318.02C340.376 300.373 325.667 285.912 307.331 285.912C288.994 285.912 274.285 300.373 274.285 318.02Z" fill="black" stroke="white" stroke-width="7"/>
<ellipse cx="60.909" cy="61.8461" rx="60.909" ry="61.8461" transform="matrix(-1 0 0 1 149.822 258.021)" fill="white"/>
<path d="M77.5968 317.083C77.5968 335.419 92.0573 350.128 109.705 350.128C127.353 350.128 141.813 335.419 141.813 317.083C141.813 298.746 127.353 284.037 109.705 284.037C92.0573 284.037 77.5968 298.746 77.5968 317.083Z" fill="black" stroke="white" stroke-width="7"/>
<path d="M189.804 534.071C231.425 509.22 242.045 448.489 211.856 397.929C181.668 347.369 123.167 327.91 81.546 352.761C39.9254 377.612 29.3051 438.343 59.4939 488.903C89.6827 539.463 148.184 558.923 189.804 534.071Z" fill="#5EE453" stroke="white" stroke-width="7"/>
<path d="M474.301 232.466C515.922 207.615 526.542 146.884 496.353 96.3238C466.165 45.7637 407.664 26.3043 366.043 51.1555C324.422 76.0067 313.802 136.738 343.991 187.298C374.18 237.858 432.681 257.317 474.301 232.466Z" fill="#5EE453" stroke="white" stroke-width="7"/>
<path d="M117.081 443.418L135.675 391.123H97.1594L117.081 443.418Z" fill="black" stroke="black" stroke-width="7" stroke-linecap="round" stroke-linejoin="round"/>
<path d="M938.421 140.514C941.879 145.611 938.522 152.539 932.38 152.984L907.736 154.773C901.594 155.219 897.272 148.848 899.957 143.306L910.731 121.069C913.416 115.527 921.093 114.97 924.551 120.066L938.421 140.514Z" fill="#5EE453"/>
</svg>
