<svg width="1418" height="1025" viewBox="0 0 1418 1025" fill="none" xmlns="http://www.w3.org/2000/svg">
<path d="M997.744 652.592C1300.29 695.455 1454.73 366.596 1164.25 235.414" stroke="#5EE453" stroke-width="197" stroke-linecap="round" stroke-linejoin="round"/>
<rect x="336.063" y="1173.68" width="443.883" height="214.921" rx="107.46" transform="rotate(-90 336.063 1173.68)" fill="#5EE453" stroke="white" stroke-width="7"/>
<rect x="903.006" y="1173.68" width="389.506" height="214.921" rx="107.46" transform="rotate(-90 903.006 1173.68)" fill="#5EE453" stroke="white" stroke-width="7"/>
<path d="M897.386 810.947L897.385 810.933C897.348 748.896 861.729 716.472 824.752 716.472C787.78 716.472 752.167 748.886 752.118 810.906C752.113 810.976 752.105 811.081 752.093 811.22C752.068 811.515 752.028 811.963 751.966 812.553C751.842 813.735 751.634 815.487 751.299 817.728C750.628 822.211 749.448 828.645 747.42 836.377C743.36 851.853 735.917 872.466 722.395 893.058C695.471 934.06 644.175 975.426 546.063 975.426C447.946 975.426 395.641 934.052 367.727 893.011C353.713 872.407 345.782 851.783 341.357 836.303C339.146 828.568 337.815 822.133 337.039 817.649C336.651 815.407 336.401 813.655 336.25 812.473C336.174 811.882 336.123 811.434 336.091 811.138C336.079 811.024 336.069 810.932 336.063 810.864C336.158 546.751 561.638 325.146 824.752 325.146C1087.86 325.146 1313.33 546.736 1313.44 810.837C1313.43 810.902 1313.42 810.985 1313.41 811.086C1313.38 811.381 1313.32 811.829 1313.23 812.42C1313.06 813.603 1312.79 815.356 1312.36 817.598C1311.52 822.083 1310.09 828.519 1307.76 836.256C1303.1 851.739 1294.85 872.369 1280.51 892.981C1251.95 934.047 1198.99 975.426 1100.87 975.426C1002.76 975.426 952.125 934.065 925.845 893.089C912.644 872.506 905.517 851.899 901.695 836.426C899.785 828.695 898.704 822.263 898.102 817.78C897.801 815.539 897.62 813.787 897.514 812.606C897.461 812.016 897.428 811.568 897.407 811.273C897.397 811.125 897.39 811.016 897.386 810.947Z" fill="#5EE453" stroke="white" stroke-width="7"/>
<rect x="535.175" y="1173.68" width="389.506" height="214.921" rx="107.46" transform="rotate(-90 535.175 1173.68)" fill="#5EE453" stroke="white" stroke-width="7"/>
<rect x="1098.52" y="1146.49" width="389.506" height="214.921" rx="107.46" transform="rotate(-90 1098.52 1146.49)" fill="#5EE453" stroke="white" stroke-width="7"/>
<circle cx="409.548" cy="458.778" r="331.891" fill="white"/>
<circle cx="409.548" cy="458.778" r="331.891" fill="white"/>
<circle cx="409.548" cy="458.778" r="331.891" stroke="black" stroke-width="7"/>
<path d="M276.087 311.906C333.786 277.454 348.236 193.524 306.692 123.947C265.148 54.37 184.408 27.2766 126.709 61.728C69.0102 96.1793 54.5609 180.109 96.1046 249.686C137.648 319.264 218.388 346.357 276.087 311.906Z" fill="#5EE453" stroke="white" stroke-width="7"/>
<circle cx="355.87" cy="454.499" r="306.163" fill="#5EE453" stroke="white" stroke-width="7"/>
<circle cx="149.302" cy="149.302" r="145.802" transform="matrix(-1 0 0 1 611.092 305.197)" fill="white" stroke="white" stroke-width="7"/>
<path d="M389.68 447.401C389.68 472.279 410.404 492.6 436.161 492.6C461.919 492.6 482.643 472.279 482.643 447.401C482.643 422.523 461.919 402.201 436.161 402.201C410.404 402.201 389.68 422.523 389.68 447.401Z" fill="black" stroke="white" stroke-width="7"/>
<ellipse cx="147.04" cy="149.302" rx="147.04" ry="149.302" transform="matrix(-1 0 0 1 277.464 230.271)" fill="white"/>
<path d="M107.499 322.676C107.499 348.434 127.821 369.158 152.699 369.158C177.577 369.158 197.898 348.434 197.898 322.676C197.898 296.919 177.577 276.195 152.699 276.195C127.821 276.195 107.499 296.919 107.499 322.676Z" fill="black" stroke="white" stroke-width="7"/>
<path d="M205.114 745.843C262.813 711.392 277.262 627.462 235.718 557.885C194.174 488.307 113.435 461.214 55.7356 495.665C-1.9634 530.117 -16.4128 614.047 25.131 683.624C66.6747 753.201 147.415 780.294 205.114 745.843Z" fill="#5EE453" stroke="white" stroke-width="7"/>
<path d="M684.806 339.197C742.505 304.745 756.955 220.815 715.411 151.238C673.867 81.661 593.127 54.5676 535.428 89.019C477.729 123.47 463.28 207.4 504.824 276.977C546.368 346.555 627.107 373.648 684.806 339.197Z" fill="#5EE453" stroke="white" stroke-width="7"/>
<path d="M104.995 620.759L130.424 549.238H77.749L104.995 620.759Z" fill="black" stroke="black" stroke-width="7" stroke-linecap="round" stroke-linejoin="round"/>
<path d="M1095.23 175.866C1098.69 180.962 1095.33 187.89 1089.19 188.336L1053.43 190.931C1047.28 191.377 1042.96 185.007 1045.65 179.464L1061.28 147.194C1063.97 141.652 1071.65 141.095 1075.1 146.191L1095.23 175.866Z" fill="#5EE453"/>
</svg>
