<svg width="993" height="659" viewBox="0 0 993 659" fill="none" xmlns="http://www.w3.org/2000/svg">
<path d="M700.045 460.426C921.025 491.734 1017.07 311.908 866.873 166.82" stroke="#5EE453" stroke-width="106.291" stroke-linecap="round" stroke-linejoin="round"/>
<rect x="249.242" y="780.998" width="297.755" height="155.894" rx="77.9468" transform="rotate(-90 249.242 780.998)" fill="#5EE453" stroke="white" stroke-width="6.20031"/>
<rect x="650.002" y="778.746" width="261.097" height="155.894" rx="77.9468" transform="rotate(-90 650.002 778.746)" fill="#5EE453" stroke="white" stroke-width="6.20031"/>
<path d="M640.563 531.131C640.557 531.04 640.553 530.972 640.55 530.926C640.516 488.111 615.877 465.46 590.034 465.46C564.197 465.46 539.562 488.102 539.519 530.9C539.515 530.945 539.51 531.006 539.504 531.084C539.487 531.281 539.46 531.584 539.418 531.984C539.334 532.785 539.193 533.976 538.964 535.503C538.507 538.556 537.703 542.943 536.319 548.219C533.549 558.781 528.47 572.843 519.248 586.887C500.91 614.814 465.946 643.064 398.895 643.064C331.839 643.064 296.179 614.807 277.161 586.845C267.602 572.791 262.189 558.719 259.169 548.154C257.661 542.876 256.753 538.487 256.224 535.432C255.96 533.906 255.79 532.714 255.688 531.913C255.636 531.512 255.602 531.21 255.581 531.012C255.574 530.953 255.569 530.903 255.565 530.863C255.65 350.129 409.969 198.467 590.034 198.467C770.092 198.467 924.404 350.115 924.504 530.839C924.499 530.875 924.494 530.917 924.488 530.965C924.464 531.163 924.425 531.466 924.367 531.867C924.252 532.668 924.065 533.86 923.777 535.387C923.201 538.442 922.226 542.832 920.636 548.112C917.454 558.679 911.824 572.757 902.045 586.819C882.583 614.803 846.471 643.064 779.412 643.064C712.364 643.064 677.854 614.819 659.958 586.915C650.956 572.879 646.094 558.822 643.485 548.262C642.182 542.988 641.445 538.601 641.035 535.549C640.83 534.023 640.707 532.832 640.635 532.031C640.6 531.631 640.577 531.328 640.563 531.131Z" fill="#5EE453" stroke="white" stroke-width="6.20031"/>
<rect x="391.303" y="780.998" width="261.097" height="155.894" rx="77.9468" transform="rotate(-90 391.303 780.998)" fill="#5EE453" stroke="white" stroke-width="6.20031"/>
<rect x="774.934" y="780.998" width="261.097" height="155.894" rx="77.9468" transform="rotate(-90 774.934 780.998)" fill="#5EE453" stroke="white" stroke-width="6.20031"/>
<path d="M248.4 552.547C247.379 556.334 243.482 558.577 239.695 557.556C235.908 556.536 233.665 552.638 234.686 548.851C235.706 545.064 239.603 542.822 243.39 543.842C247.177 544.863 249.42 548.76 248.4 552.547Z" fill="#FECD43"/>
<path d="M851.633 171.411C854.344 175.408 851.712 180.841 846.895 181.191L827.567 182.593C822.75 182.943 819.361 177.947 821.467 173.6L829.916 156.161C832.022 151.814 838.043 151.377 840.754 155.374L851.633 171.411Z" fill="#5EE453"/>
<path d="M180.735 216.078C217.601 194.066 227.008 140.273 200.268 95.4895C173.528 50.7054 121.71 33.4691 84.8445 55.4813C47.9787 77.4934 38.5716 131.286 65.3116 176.07C92.0516 220.854 143.869 238.091 180.735 216.078Z" fill="#5EE453" stroke="white" stroke-width="6.20031"/>
<circle cx="327.189" cy="356.188" r="188.261" transform="rotate(15.0804 327.189 356.188)" fill="black"/>
<circle cx="217.95" cy="610.959" r="84.4216" transform="rotate(15.0804 217.95 610.959)" fill="#FECD43"/>
<path d="M242.491 554.495C232.094 546.491 229.642 536.379 233.268 522.922C238.073 505.088 256.426 494.526 274.26 499.332C292.093 504.137 302.655 522.49 297.849 540.323C295.69 548.338 290.794 554.884 284.439 559.226" stroke="white" stroke-width="6.51277" stroke-linecap="round"/>
<path d="M186.512 606.836L191.138 595.628C191.497 594.758 191.076 593.743 190.205 593.384C189.335 593.025 188.32 593.446 187.961 594.317L183.334 605.525L178.394 603.486L183.02 592.278C183.38 591.407 182.958 590.393 182.109 590.042C181.239 589.683 180.224 590.105 179.865 590.975L174.834 603.163C174.331 604.381 174.736 605.313 175.933 605.807L191.559 612.257C192.778 612.76 193.7 612.376 194.203 611.157L199.234 598.97C199.593 598.1 199.171 597.085 198.323 596.735C197.452 596.375 196.438 596.797 196.078 597.668L191.452 608.876L186.512 606.836ZM210.893 603.885C210.931 602.805 210.513 601.843 209.599 601.466L208.75 601.115C207.945 600.783 206.931 601.205 206.236 601.962L196.928 612.231C196.752 612.413 196.649 612.6 196.568 612.796C196.191 613.71 196.793 614.595 197.555 614.91C198.186 615.17 198.865 615.068 199.44 614.414C200.092 613.639 200.707 612.95 201.261 612.288L207.006 614.659C206.962 615.507 206.891 616.42 206.814 617.407C206.748 618.246 207.131 618.862 207.805 619.141C208.632 619.482 209.785 619.219 210.171 618.283C210.252 618.088 210.29 617.874 210.305 617.651L210.893 603.885ZM203.178 610.048C206.709 605.876 207.677 604.518 208.177 603.553C207.837 604.686 207.654 606.241 207.226 611.719L203.178 610.048ZM212.76 619.327C212.401 620.197 212.823 621.212 213.693 621.571C214.564 621.93 215.557 621.5 215.916 620.629L217.335 617.19L220.23 618.385C223.69 619.814 227.012 618.739 228.368 615.453C229.751 612.102 228.056 609.237 224.791 607.889L220.112 605.958C219.111 605.545 218.312 605.877 217.899 606.878L212.76 619.327ZM220.515 609.486L223.606 610.762C225.064 611.364 225.814 612.692 225.177 614.238C224.539 615.783 223.078 616.173 221.62 615.572L218.53 614.296L220.515 609.486ZM228.548 627.754C229.223 628.032 229.933 627.917 230.496 627.539C236.033 623.813 239.904 621.285 241.739 619.801C240.897 621.287 239.874 623.641 237.44 629.539C237.08 630.409 237.493 631.446 238.364 631.805C239.234 632.164 240.227 631.734 240.586 630.863L245.671 618.545C246.102 617.5 245.621 616.258 244.577 615.827C243.902 615.548 243.184 615.685 242.659 616.029C236.559 620.133 233.467 622.193 231.332 623.91C232.135 622.459 233.009 620.527 235.686 614.042C236.045 613.171 235.632 612.135 234.783 611.784C233.913 611.425 232.898 611.847 232.539 612.717L227.455 625.035C227.023 626.08 227.526 627.331 228.548 627.754ZM259.758 625.15C260.299 624.889 260.613 624.56 260.766 624.19C261.089 623.407 260.601 622.492 259.817 622.168C259.338 621.971 258.721 622.047 258.079 622.368L249.943 626.345C250.465 625.389 250.882 624.44 252.328 620.936C252.759 619.892 252.191 619.046 251.408 618.723C250.624 618.399 249.603 618.589 249.172 619.634L243.98 632.213C243.549 633.258 244.139 634.112 244.922 634.436C245.705 634.759 246.705 634.56 247.136 633.515C248.636 629.881 249.054 628.806 249.431 627.585L251.992 636.437C252.219 637.244 252.639 637.646 253.074 637.826C253.966 638.194 254.92 637.798 255.252 636.993C255.396 636.645 255.418 636.221 255.279 635.756L252.947 628.324L259.758 625.15Z" fill="black"/>
<circle cx="266.155" cy="284.902" r="197.454" fill="#5EE453" stroke="white" stroke-width="6.20031"/>
<circle cx="54.7807" cy="54.7807" r="51.6806" transform="matrix(-1 0 0 1 309.83 228.363)" fill="white" stroke="white" stroke-width="6.20031"/>
<path d="M232.218 271.921C232.218 287.553 245.246 300.362 261.488 300.362C277.73 300.362 290.758 287.553 290.758 271.921C290.758 256.29 277.73 243.481 261.488 243.481C245.246 243.481 232.218 256.29 232.218 271.921Z" fill="black" stroke="white" stroke-width="6.20031"/>
<ellipse cx="53.9507" cy="54.7807" rx="53.9507" ry="54.7807" transform="matrix(-1 0 0 1 132.675 228.363)" fill="white"/>
<path d="M57.5877 267.74C57.5877 283.981 70.3962 297.01 86.0279 297.01C101.66 297.01 114.468 283.981 114.468 267.74C114.468 251.498 101.66 238.469 86.0279 238.469C70.3962 238.469 57.5877 251.498 57.5877 267.74Z" fill="black" stroke="white" stroke-width="6.20031"/>
<path d="M168.089 472.879C204.955 450.867 214.362 397.074 187.622 352.29C160.882 307.506 109.064 290.27 72.198 312.282C35.3322 334.294 25.9252 388.087 52.6652 432.871C79.4052 477.655 131.223 494.891 168.089 472.879Z" fill="#5EE453" stroke="white" stroke-width="6.20031"/>
<path d="M420.085 205.727C456.951 183.715 466.358 129.922 439.618 85.1379C412.878 40.3539 361.06 23.1176 324.194 45.1297C287.328 67.1419 277.921 120.935 304.661 165.719C331.401 210.503 383.219 227.739 420.085 205.727Z" fill="#5EE453" stroke="white" stroke-width="6.20031"/>
<path d="M103.674 392.58L120.144 346.26H86.0282L103.674 392.58Z" fill="black" stroke="black" stroke-width="6.20031" stroke-linecap="round" stroke-linejoin="round"/>
<path d="M115.701 445.349L145.239 441.493L171.221 424.608L185.222 471.096C189.995 486.947 180.925 503.649 165.03 508.275C149.24 512.871 132.713 503.796 128.117 488.005L115.701 445.349Z" fill="#FBA7C5"/>
<path d="M177.708 397.479C177.708 397.479 173.592 441.712 126.771 444.512C79.9493 447.311 70.3369 414.78 70.3369 414.78" stroke="black" stroke-width="7" stroke-linecap="round"/>
<path d="M155.683 475.217L146.799 443.016" stroke="black" stroke-width="7" stroke-linecap="round"/>
<circle cx="12.5201" cy="12.5201" r="11.8115" transform="matrix(-1 0 0 1 291.195 246.881)" fill="white" stroke="white" stroke-width="1.41707"/>
<circle cx="12.5201" cy="12.5201" r="11.8115" transform="matrix(-1 0 0 1 114.472 242.699)" fill="white" stroke="white" stroke-width="1.41707"/>
</svg>
