<svg width="1113" height="872" viewBox="0 0 1113 872" fill="none" xmlns="http://www.w3.org/2000/svg">
<rect x="232.214" y="865.709" width="364.807" height="110.163" rx="55.0814" transform="rotate(-90 232.214 865.709)" fill="#5EE453" stroke="white" stroke-width="7"/>
<path d="M801.692 523.291C913.865 515.305 1104.37 437.295 969.009 189.148" stroke="#5EE453" stroke-width="98" stroke-linecap="round" stroke-linejoin="round"/>
<path d="M948.446 141.395C950.32 147.261 945.142 152.956 939.124 151.647L924.199 148.398C918.182 147.088 915.839 139.755 919.982 135.199L930.258 123.898C934.401 119.342 941.923 120.979 943.797 126.845L948.446 141.395Z" fill="#5EE453"/>
<rect x="668.841" y="868.465" width="319.966" height="110.163" rx="55.0814" transform="rotate(-90 668.841 868.465)" fill="#5EE453" stroke="white" stroke-width="7"/>
<path d="M634.973 497.848C648.671 509.591 657.699 527.162 657.7 550.277L634.973 497.848ZM634.973 497.848C621.348 486.168 603.3 480.414 585.384 480.414C567.468 480.414 549.42 486.168 535.795 497.848C522.097 509.591 513.069 527.162 513.068 550.277L634.973 497.848ZM232.214 550.28C232.214 550.279 232.214 550.278 232.214 550.277C232.215 358.249 395.219 197.109 585.384 197.109C775.549 197.109 938.553 358.249 938.554 550.277L232.214 550.28ZM232.214 550.28L232.214 550.286M232.214 550.28L232.214 550.286M249.722 609.687C267.073 639.191 301.897 669.143 372.641 669.143C443.386 669.143 478.209 639.191 495.56 609.687C504.303 594.821 508.689 579.925 510.885 568.726C511.981 563.133 512.527 558.481 512.799 555.245C512.935 553.627 513.003 552.365 513.036 551.517C513.052 551.093 513.06 550.773 513.064 550.564C513.066 550.46 513.067 550.384 513.068 550.336L513.068 550.286L513.068 550.28L249.722 609.687ZM249.722 609.687C240.979 594.821 236.593 579.925 234.397 568.726M249.722 609.687L234.397 568.726M234.397 568.726C233.301 563.132 232.755 558.481 232.483 555.244M234.397 568.726L232.483 555.244M232.483 555.244C232.347 553.627 232.28 552.364 232.246 551.517M232.483 555.244L232.246 551.517M232.246 551.517C232.23 551.093 232.222 550.773 232.218 550.564M232.246 551.517L232.218 550.564M232.218 550.564C232.216 550.46 232.215 550.383 232.214 550.336M232.218 550.564L232.214 550.336M232.214 550.336L232.214 550.286M232.214 550.336L232.214 550.286M938.554 550.28L938.554 550.286L938.554 550.336L938.553 550.401C938.553 550.444 938.552 550.499 938.551 550.564C938.547 550.773 938.539 551.093 938.522 551.517C938.489 552.364 938.422 553.627 938.286 555.244C938.014 558.481 937.467 563.132 936.371 568.726C934.175 579.925 929.789 594.821 921.047 609.687C903.695 639.191 868.872 669.143 798.127 669.143C727.383 669.143 692.559 639.191 675.208 609.687C666.465 594.821 662.079 579.925 659.884 568.726C658.787 563.133 658.241 558.481 657.969 555.245C657.833 553.627 657.766 552.365 657.732 551.517C657.716 551.093 657.708 550.773 657.704 550.564C657.702 550.46 657.701 550.384 657.7 550.336L657.7 550.286L657.7 550.28L938.554 550.28Z" fill="#5EE453" stroke="white" stroke-width="7"/>
<rect x="392.597" y="865.709" width="319.966" height="110.163" rx="55.0814" transform="rotate(-90 392.597 865.709)" fill="#5EE453" stroke="white" stroke-width="7"/>
<rect x="825.706" y="868.465" width="319.966" height="110.163" rx="55.0814" transform="rotate(-90 825.706 868.465)" fill="#5EE453" stroke="white" stroke-width="7"/>
<circle cx="277.133" cy="276.801" r="273.07" fill="white"/>
<circle cx="277.133" cy="276.801" r="273.07" fill="white"/>
<circle cx="277.133" cy="276.801" r="273.07" stroke="black" stroke-width="7"/>
<path d="M207.894 228.882C239.635 209.93 247.903 163.454 224.691 124.579C201.479 85.7047 156.644 70.9361 124.903 89.8883C93.1615 108.841 84.8941 155.316 108.106 194.191C131.317 233.066 176.153 247.834 207.894 228.882Z" fill="#5EE453" stroke="white" stroke-width="7"/>
<circle cx="282.95" cy="289.712" r="171.771" fill="#5EE453" stroke="white" stroke-width="7"/>
<path d="M417.07 219.839C448.811 200.887 457.078 154.411 433.867 115.536C410.655 76.6617 365.819 61.8932 334.078 80.8454C302.337 99.7976 294.07 146.273 317.281 185.148C340.493 224.023 385.329 238.791 417.07 219.839Z" fill="#5EE453" stroke="white" stroke-width="7"/>
<path d="M196.842 453.309C228.583 434.357 236.851 387.881 213.639 349.006C190.428 310.131 145.592 295.363 113.851 314.315C82.1098 333.267 73.8423 379.743 97.0539 418.618C120.265 457.492 165.101 472.261 196.842 453.309Z" fill="#5EE453" stroke="white" stroke-width="7"/>
<path d="M140.953 383.813L155.347 343.332H125.532L140.953 383.813Z" fill="black" stroke="black" stroke-width="7" stroke-linecap="round" stroke-linejoin="round"/>
</svg>
