<svg width="1019" height="1025" viewBox="0 0 1019 1025" fill="none" xmlns="http://www.w3.org/2000/svg">
<circle cx="612.545" cy="512.5" r="608.927" fill="white"/>
<circle cx="612.545" cy="512.5" r="608.927" fill="white"/>
<circle cx="612.545" cy="512.5" r="608.927" stroke="black" stroke-width="7"/>
<path d="M448.521 410.038C521.373 366.539 539.431 260.746 487.186 173.245C434.941 85.7454 333.242 51.4573 260.389 94.9564C187.537 138.456 169.479 244.249 221.725 331.749C273.97 419.249 375.669 453.537 448.521 410.038Z" fill="#5EE453" stroke="white" stroke-width="7"/>
<circle cx="612.545" cy="541.088" r="384.616" fill="#5EE453" stroke="white" stroke-width="7"/>
<circle cx="106.012" cy="106.012" r="102.512" transform="matrix(-1 0 0 1 697.067 431.672)" fill="white" stroke="white" stroke-width="7"/>
<path d="M531.912 537.685C531.912 569.377 558.305 595.222 591.056 595.222C623.806 595.222 650.199 569.377 650.199 537.685C650.199 505.993 623.806 480.147 591.056 480.147C558.305 480.147 531.912 505.993 531.912 537.685Z" fill="black" stroke="white" stroke-width="7"/>
<ellipse cx="104.406" cy="106.012" rx="104.406" ry="106.012" transform="matrix(-1 0 0 1 347.709 386.376)" fill="white"/>
<path d="M189.259 490.093C189.259 522.844 215.105 549.237 246.797 549.237C278.488 549.237 304.334 522.844 304.334 490.093C304.334 457.343 278.488 430.95 246.797 430.95C215.105 430.95 189.259 457.343 189.259 490.093Z" fill="black" stroke="white" stroke-width="7"/>
<path d="M424.051 907.002C496.903 863.503 514.962 757.709 462.716 670.209C410.471 582.709 308.772 548.421 235.92 591.92C163.068 635.419 145.01 741.213 197.255 828.713C249.5 916.213 351.199 950.501 424.051 907.002Z" fill="#5EE453" stroke="white" stroke-width="7"/>
<path d="M911.715 390.014C984.567 346.515 1002.63 240.721 950.38 153.221C898.135 65.7207 796.436 31.4327 723.584 74.9318C650.732 118.431 632.674 224.225 684.919 311.725C737.164 399.225 838.863 433.513 911.715 390.014Z" fill="#5EE453" stroke="white" stroke-width="7"/>
<path d="M298.112 749.464L329.984 659.823H263.964L298.112 749.464Z" fill="black" stroke="black" stroke-width="7" stroke-linecap="round" stroke-linejoin="round"/>
<path d="M283.669 823.855L428.433 838.629L419.137 929.714C415.057 969.69 379.343 998.789 339.368 994.709C299.392 990.629 270.293 954.915 274.373 914.94L283.669 823.855Z" fill="#FBA7C5"/>
<path d="M528.413 850.746L180.757 810.887" stroke="black" stroke-width="7" stroke-linecap="round"/>
<path d="M348.267 907.711L354.585 834.012" stroke="black" stroke-width="7" stroke-linecap="round"/>
<circle cx="23.4994" cy="23.4994" r="19.9994" transform="matrix(-1 0 0 1 653.699 484.369)" fill="white" stroke="white" stroke-width="7"/>
<circle cx="23.4994" cy="23.4994" r="19.9994" transform="matrix(-1 0 0 1 320.474 443.094)" fill="white" stroke="white" stroke-width="7"/>
</svg>
