<svg width="1440" height="970" viewBox="0 0 1440 970" fill="none" xmlns="http://www.w3.org/2000/svg">
<path d="M-138.983 452.905C-153.504 314.702 -27.9893 80.4347 158.136 181.253C344.262 282.071 53.9678 744.173 141.159 841.707C228.349 939.242 360.613 841.707 368.667 654.946C376.566 471.809 529.583 460.563 575.305 570.055C626.49 692.629 535.357 861.094 679.26 881.839C823.163 902.584 904.054 521.316 575.305 325.447C359.272 196.734 456.327 19.4687 624.255 94.6999C792.183 169.931 831.877 390.382 943.803 379.028C1055.73 367.673 985.381 257.569 1063.08 143.901C1140.78 30.2321 1333.03 59.3737 1333.03 235.583C1333.03 411.793 1202.24 453.77 1105.52 508.933C916.087 616.98 1026.53 922.193 1168.34 891.661C1310.16 861.129 1181.55 682.345 1303.86 606.364C1386.71 554.895 1568.47 626.357 1568.47 626.357" stroke="white" stroke-width="152" stroke-linecap="round" stroke-linejoin="round"/>
</svg>
