<svg width="507" height="155" viewBox="0 0 507 155" fill="none" xmlns="http://www.w3.org/2000/svg">
<path d="M75.0255 86.5515C78.4827 91.648 75.1263 98.5758 68.9841 99.0215L33.2202 101.617C27.0779 102.063 22.7565 95.6921 25.4416 90.1499L41.0758 57.8797C43.7609 52.3375 51.4387 51.7803 54.8959 56.8768L75.0255 86.5515Z" fill="#5EE453"/>
<path d="M78.3804 84.8354C79.4296 82.2983 81.6466 79.5115 85.2011 76.4909C88.7281 73.4938 93.3678 70.4374 98.9625 67.3055C110.159 61.0376 124.775 54.6885 141.035 48.0252C146.703 45.7023 152.569 43.3428 158.545 40.9385C181.671 31.6358 206.459 21.6644 227.908 10.5607C226.837 13.1031 226.359 15.5854 226.714 17.9508C227.177 21.0379 228.963 23.3338 231.325 24.9224C233.596 26.4498 236.461 27.3818 239.488 27.9696C245.548 29.1465 253.337 29.137 261.224 28.6941C261.691 28.6679 262.16 28.6401 262.629 28.6108C259.511 29.9716 256.387 31.4312 253.475 33.0012C248.46 35.7057 243.689 38.9354 240.697 42.8767C239.167 44.8908 238.029 47.1848 237.635 49.7582C237.236 52.36 237.634 55.0198 238.833 57.6724C240.388 61.1107 243.537 63.2558 247.114 64.5855C250.704 65.9204 255.162 66.6063 260.118 66.8565C270.049 67.3579 282.81 66.141 296.556 64.0128C314.559 61.2255 334.585 56.8197 352.773 52.4004C350.563 53.9077 348.626 55.3864 346.943 56.8569C340.558 62.4379 337.593 68.1418 337.556 74.9399C337.237 79.8118 340.057 83.4588 343.966 85.9593C347.829 88.431 353.225 90.1442 359.435 91.3413C371.93 93.7496 389.013 94.2984 407.273 93.6022C430.804 92.7051 456.748 89.7184 478.072 85.7258C474.04 87.4454 469.762 89.2058 465.308 91.0006C459.272 93.4331 452.932 95.9224 446.512 98.4429C434.963 102.977 423.156 107.613 412.4 112.201C395.777 119.291 380.94 126.552 373.085 133.598C369.258 137.03 366.11 141.276 366.678 146.111C366.71 146.379 366.752 146.644 366.805 146.904C329.576 136.432 300.627 136.706 272.061 139.374C264.523 140.079 257.047 140.943 249.473 141.819C225.094 144.637 199.703 147.572 167.979 145.66C126.379 143.153 101.46 133.359 88.2933 121.597C75.3666 110.05 73.5666 96.4771 78.3804 84.8354Z" fill="#5EE453" stroke="#5EE453" stroke-width="7" stroke-linecap="round"/>
</svg>
