<svg width="325" height="143" viewBox="0 0 325 143" fill="none" xmlns="http://www.w3.org/2000/svg">
<path d="M301.848 4.08252C312.664 4.08252 321.432 12.8504 321.432 23.6661L321.432 119.087C321.432 129.903 312.664 138.67 301.848 138.67C291.032 138.67 282.264 129.903 282.264 119.087L282.264 23.6661C282.264 12.8504 291.032 4.08252 301.848 4.08252Z" fill="white" stroke="black" stroke-width="7"/>
<path d="M321.432 38.8921L321.432 103.861L282.264 103.861L282.264 38.8921L321.432 38.8921Z" fill="black" stroke="black" stroke-width="7"/>
<path d="M4.31787 71.3762C4.31787 58.1226 15.0621 47.3784 28.3157 47.3784L138.717 47.3784C151.97 47.3784 162.714 58.1226 162.714 71.3762C162.714 84.6298 151.97 95.374 138.717 95.374L28.3157 95.374C15.0621 95.374 4.31787 84.6298 4.31787 71.3762Z" fill="white" stroke="black" stroke-width="7"/>
<rect x="165.969" y="67.9336" width="109.352" height="6.88574" fill="white" stroke="black" stroke-width="6.88574"/>
</svg>
