<svg width="325" height="143" viewBox="0 0 325 143" fill="none" xmlns="http://www.w3.org/2000/svg">
<path d="M321.469 23.7076L321.469 119.128C321.469 129.944 312.701 138.712 301.886 138.712C291.07 138.712 282.302 129.944 282.302 119.128L282.302 23.7076C282.302 12.8919 291.07 4.12402 301.886 4.12402C312.701 4.12402 321.469 12.8919 321.469 23.7076Z" fill="white" stroke="black" stroke-width="7"/>
<path d="M321.469 38.9336L321.469 103.902L282.302 103.902L282.302 38.9336L321.469 38.9336Z" fill="black" stroke="black" stroke-width="7"/>
<path d="M28.3528 47.4199L138.754 47.4199C152.007 47.4199 162.751 58.1641 162.751 71.4177C162.751 84.6714 152.007 95.4155 138.754 95.4155L28.3528 95.4155C15.0992 95.4155 4.35498 84.6713 4.35498 71.4177C4.35498 58.1641 15.0992 47.4199 28.3528 47.4199Z" fill="white" stroke="black" stroke-width="7"/>
<rect x="166.007" y="67.9751" width="109.352" height="6.88574" fill="white" stroke="black" stroke-width="6.88574"/>
</svg>
