<svg width="307" height="80" viewBox="0 0 307 80" fill="none" xmlns="http://www.w3.org/2000/svg">
<rect x="214.582" y="30.877" width="64.8294" height="18.2428" rx="9.12139" fill="black"/>
<rect x="271.526" y="36.4907" width="35.0429" height="7.01646" rx="3.50823" fill="black"/>
<rect x="4.32373" y="30.877" width="185.289" height="18.2428" rx="9.12139" fill="black"/>
<rect x="0.819336" y="0.472656" width="13.1411" height="79.0521" rx="6.57055" fill="black"/>
<mask id="path-5-inside-1_244_36" fill="white">
<path fill-rule="evenodd" clip-rule="evenodd" d="M60.9946 0.472653C50.5012 0.472655 41.9946 8.97926 41.9946 19.4727L41.9946 60.5247C41.9946 71.0181 50.5012 79.5247 60.9947 79.5247L232.376 79.5247C241.269 79.5247 248.736 73.4145 250.806 65.1632C259.609 63.506 266.269 55.7766 266.269 46.4917L266.269 33.5055C266.269 24.2206 259.609 16.4912 250.806 14.834C248.736 6.58273 241.269 0.472621 232.376 0.472623L60.9946 0.472653Z"/>
</mask>
<path fill-rule="evenodd" clip-rule="evenodd" d="M60.9946 0.472653C50.5012 0.472655 41.9946 8.97926 41.9946 19.4727L41.9946 60.5247C41.9946 71.0181 50.5012 79.5247 60.9947 79.5247L232.376 79.5247C241.269 79.5247 248.736 73.4145 250.806 65.1632C259.609 63.506 266.269 55.7766 266.269 46.4917L266.269 33.5055C266.269 24.2206 259.609 16.4912 250.806 14.834C248.736 6.58273 241.269 0.472621 232.376 0.472623L60.9946 0.472653Z" fill="white"/>
<path d="M60.9946 0.472653L60.9946 7.47265L60.9946 0.472653ZM60.9947 79.5247L60.9947 86.5247L60.9947 79.5247ZM232.376 79.5247L232.376 72.5247L232.376 79.5247ZM250.806 65.1632L249.511 58.284L245.107 59.1131L244.016 63.4598L250.806 65.1632ZM266.269 46.4917L273.269 46.4917L266.269 46.4917ZM266.269 33.5055L259.269 33.5055L266.269 33.5055ZM250.806 14.834L244.016 16.5375L245.107 20.8842L249.511 21.7132L250.806 14.834ZM232.376 0.472623L232.376 -6.52738L232.376 0.472623ZM48.9946 19.4727C48.9946 12.8452 54.3672 7.47265 60.9946 7.47265L60.9946 -6.52735C46.6352 -6.52734 34.9946 5.11327 34.9946 19.4727L48.9946 19.4727ZM48.9946 60.5247L48.9946 19.4727L34.9946 19.4727L34.9946 60.5247L48.9946 60.5247ZM60.9947 72.5247C54.3672 72.5247 48.9946 67.1521 48.9946 60.5247L34.9946 60.5247C34.9946 74.8841 46.6353 86.5247 60.9947 86.5247L60.9947 72.5247ZM232.376 72.5247L60.9947 72.5247L60.9947 86.5247L232.376 86.5247L232.376 72.5247ZM244.016 63.4598C242.709 68.6721 237.983 72.5247 232.376 72.5247L232.376 86.5247C244.555 86.5247 254.763 78.157 257.595 66.8666L244.016 63.4598ZM259.269 46.4917C259.269 52.3482 255.067 57.2381 249.511 58.284L252.101 72.0424C264.152 69.7738 273.269 59.205 273.269 46.4917L259.269 46.4917ZM259.269 33.5055L259.269 46.4917L273.269 46.4917L273.269 33.5055L259.269 33.5055ZM249.511 21.7132C255.067 22.7591 259.269 27.649 259.269 33.5055L273.269 33.5055C273.269 20.7922 264.152 10.2234 252.101 7.95485L249.511 21.7132ZM232.376 7.47262C237.983 7.47262 242.709 11.3252 244.016 16.5375L257.595 13.1306C254.763 1.84025 244.555 -6.52738 232.376 -6.52738L232.376 7.47262ZM60.9946 7.47265L232.376 7.47262L232.376 -6.52738L60.9946 -6.52735L60.9946 7.47265Z" fill="black" mask="url(#path-5-inside-1_244_36)"/>
</svg>
