<svg width="82" height="337" viewBox="0 0 82 337" fill="none" xmlns="http://www.w3.org/2000/svg">
<rect x="31.5996" y="101.321" width="71.2027" height="18.7629" rx="9.38144" transform="rotate(-90 31.5996 101.321)" fill="black"/>
<rect x="37.373" y="38.7783" width="38.4879" height="7.21649" rx="3.60824" transform="rotate(-90 37.373 38.7783)" fill="black"/>
<rect x="31.5996" y="332.248" width="203.505" height="18.7629" rx="9.38144" transform="rotate(-90 31.5996 332.248)" fill="black"/>
<rect x="0.328125" y="336.098" width="14.433" height="81.3058" rx="7.21649" transform="rotate(-90 0.328125 336.098)" fill="black"/>
<path fill-rule="evenodd" clip-rule="evenodd" d="M0.328125 271.875C0.328125 282.368 8.83474 290.875 19.3281 290.875L62.6339 290.875C73.1273 290.875 81.6339 282.368 81.6339 271.875L81.6339 79.9096C81.6339 70.9487 75.4307 63.4368 67.0842 61.4336C66.0306 51.9374 57.9783 44.5523 48.201 44.5523L33.7612 44.5523C23.984 44.5523 15.9316 51.9374 14.878 61.4336C6.53145 63.4366 0.328128 70.9487 0.328128 79.9096L0.328125 271.875Z" fill="#6398FF"/>
</svg>
