<svg width="408" height="107" viewBox="0 0 408 107" fill="none" xmlns="http://www.w3.org/2000/svg">
<rect x="285.372" y="41.478" width="86.3933" height="24.3108" rx="12.1554" fill="black"/>
<rect x="361.257" y="48.959" width="46.6991" height="9.35031" rx="4.67515" fill="black"/>
<rect x="5.17676" y="41.478" width="246.921" height="24.3108" rx="12.1554" fill="black"/>
<rect x="0.506836" y="0.960205" width="17.5122" height="105.347" rx="8.75608" fill="black"/>
<mask id="path-5-inside-1_221_2" fill="white">
<path fill-rule="evenodd" clip-rule="evenodd" d="M74.3784 0.961182C63.885 0.961182 55.3784 9.46779 55.3784 19.9612L55.3784 87.308C55.3784 97.8014 63.885 106.308 74.3784 106.308L315.405 106.308C325.799 106.308 334.243 97.9626 334.403 87.6072H335.253C345.746 87.6072 354.253 79.1006 354.253 68.6072V38.6616C354.253 28.1682 345.746 19.6616 335.253 19.6616H334.403C334.243 9.30636 325.799 0.961182 315.405 0.961182L74.3784 0.961182Z"/>
</mask>
<path fill-rule="evenodd" clip-rule="evenodd" d="M74.3784 0.961182C63.885 0.961182 55.3784 9.46779 55.3784 19.9612L55.3784 87.308C55.3784 97.8014 63.885 106.308 74.3784 106.308L315.405 106.308C325.799 106.308 334.243 97.9626 334.403 87.6072H335.253C345.746 87.6072 354.253 79.1006 354.253 68.6072V38.6616C354.253 28.1682 345.746 19.6616 335.253 19.6616H334.403C334.243 9.30636 325.799 0.961182 315.405 0.961182L74.3784 0.961182Z" fill="white"/>
<path d="M334.403 87.6072V80.6072H327.51L327.404 87.4991L334.403 87.6072ZM334.403 19.6616L327.404 19.7698L327.51 26.6616H334.403V19.6616ZM62.3784 19.9612C62.3784 13.3338 67.751 7.96118 74.3784 7.96118V-6.03882C60.019 -6.03882 48.3784 5.60181 48.3784 19.9612H62.3784ZM62.3784 87.308L62.3784 19.9612H48.3784L48.3784 87.308H62.3784ZM74.3784 99.308C67.751 99.308 62.3784 93.9354 62.3784 87.308H48.3784C48.3784 101.667 60.019 113.308 74.3784 113.308V99.308ZM315.405 99.308L74.3784 99.308V113.308L315.405 113.308V99.308ZM327.404 87.4991C327.303 94.0371 321.969 99.308 315.405 99.308V113.308C329.629 113.308 341.183 101.888 341.402 87.7152L327.404 87.4991ZM335.253 80.6072H334.403V94.6072H335.253V80.6072ZM347.253 68.6072C347.253 75.2346 341.88 80.6072 335.253 80.6072V94.6072C349.612 94.6072 361.253 82.9666 361.253 68.6072H347.253ZM347.253 38.6616V68.6072H361.253V38.6616H347.253ZM335.253 26.6616C341.88 26.6616 347.253 32.0342 347.253 38.6616H361.253C361.253 24.3022 349.612 12.6616 335.253 12.6616V26.6616ZM334.403 26.6616H335.253V12.6616H334.403V26.6616ZM315.405 7.96118C321.969 7.96118 327.303 13.2319 327.404 19.7698L341.402 19.5534C341.183 5.3808 329.629 -6.03882 315.405 -6.03882V7.96118ZM74.3784 7.96118L315.405 7.96118V-6.03882L74.3784 -6.03882V7.96118Z" fill="black" mask="url(#path-5-inside-1_221_2)"/>
</svg>
