<svg width="221" height="143" viewBox="0 0 221 143" fill="none" xmlns="http://www.w3.org/2000/svg">
<path d="M61.1423 114.533C60.1199 113.022 57.9869 112.611 56.4764 113.634L51.2295 117.185L45.2293 108.321L50.4762 104.769C51.9867 103.747 52.3977 101.614 51.3752 100.104C50.3527 98.5931 48.2197 98.1821 46.7093 99.2046L30.8889 109.913C29.3387 110.963 28.9675 113.069 29.9899 114.579C31.0124 116.09 33.1056 116.528 34.6559 115.478L40.3401 111.631L46.3403 120.495L40.6561 124.343C39.1058 125.392 38.7346 127.498 39.7571 129.008C40.7795 130.519 42.8728 130.957 44.423 129.907L60.2433 119.199C61.7538 118.176 62.1648 116.043 61.1423 114.533Z" fill="black"/>
<path d="M27.0156 75.8088C21.0169 78.3916 17.5987 84.026 19.6774 91.2197C21.7695 98.4595 28.6572 102.065 35.897 99.973C43.3673 97.8143 46.7885 90.9799 44.6431 83.5557C43.5238 79.6822 41.0632 77.0456 37.8012 75.4401C36.9824 75.0272 36.2241 74.9965 35.6246 75.1697C34.1029 75.6094 33.2442 77.3065 33.6707 78.7821C33.8839 79.5199 34.3737 80.1778 35.3442 80.5969C37.1796 81.4155 38.5816 82.8091 39.2345 85.0686C40.2073 88.4349 38.8262 91.7819 35.8626 92.938L31.5319 77.9512C30.9589 75.9683 29.6308 75.0031 27.694 75.5628C27.4634 75.6294 27.2329 75.696 27.0156 75.8088ZM24.9343 89.7006C24.0016 86.4727 25.2782 83.4557 28.1034 82.3395L31.528 94.1906C28.5695 94.8457 25.8671 92.9285 24.9343 89.7006Z" fill="black"/>
<path d="M36.9112 35.0418C36.8366 33.8882 36.4291 33.0837 35.8234 32.6115C34.7255 31.7558 33.0286 32.1371 31.9957 33.4621C31.4056 34.2193 31.0214 35.2587 31.121 36.6144L32.0753 49.8344C30.8516 48.5154 29.6318 47.5038 26.9439 45.4086C25.5053 44.2873 23.3117 44.5249 22.1608 46.0014C21.01 47.4778 21.315 49.6631 22.7536 50.7844L37.6695 62.411C39.1081 63.5324 41.3017 63.2947 42.4526 61.8183C43.7215 60.1904 43.1849 58.068 41.822 57.0057C38.7934 54.645 36.6605 53.1651 35.0955 52.1278L49.659 50.6992C50.7074 50.6035 51.4657 50.0991 51.9378 49.4933C53.0297 48.0926 52.8299 45.9285 51.5427 44.9252C51.0506 44.5416 50.4109 44.3473 49.632 44.4096L37.6913 45.7525L36.9112 35.0418Z" fill="black"/>
<path d="M68.2665 17.5624C66.5847 17.9592 65.1563 19.4305 65.6853 21.6729L65.7956 22.1401C63.2876 19.8713 59.7445 19.277 56.7079 19.9933C49.1863 21.7677 45.8397 28.278 47.548 35.5193C49.1901 42.4802 54.9482 47.2372 62.3296 45.4959C66.394 44.537 69.1987 42.0013 69.7301 38.8183L70.0166 40.0329C70.5236 42.182 72.481 42.9531 74.1628 42.5564C75.8446 42.1596 77.2042 40.6059 76.6972 38.4569L72.366 20.0969C71.837 17.8545 69.9016 17.1767 68.2665 17.5624ZM62.6585 39.155C58.6875 40.0918 55.1764 37.961 54.2396 33.99C53.3249 30.1124 55.5134 26.6371 59.4844 25.7003C63.4087 24.7745 66.884 26.963 67.7877 30.7939C68.7025 34.6714 66.5827 38.2292 62.6585 39.155Z" fill="black"/>
<path d="M97.2824 43.7809C98.6964 43.3378 99.3642 42.3123 99.5022 41.2653C99.6966 39.7901 98.7902 38.2182 97.2198 38.0112C96.8867 37.9673 96.5473 37.971 96.1478 38.0636C94.8953 38.3827 93.6329 38.41 92.4432 38.2532C88.6361 37.7514 85.4632 35.0093 86.0528 30.536C86.6925 25.682 90.614 24.2138 94.2783 24.6967C95.5156 24.8598 96.7215 25.2608 97.7596 25.8334C98.1691 26.0326 98.5373 26.1779 98.8704 26.2218C100.488 26.4351 101.717 25.193 101.905 23.7653C102.043 22.7184 101.617 21.5486 100.372 20.7067C98.6351 19.5579 96.4136 18.781 94.1293 18.48C87.7525 17.6395 80.4932 20.556 79.3015 29.5978C78.1036 38.6872 84.4483 43.445 90.8727 44.2917C93.1094 44.5865 95.3612 44.3991 97.2824 43.7809Z" fill="black"/>
<path d="M133.113 29.134C131.48 28.5692 129.486 29.0478 128.733 31.2253L128.576 31.6789C127.671 28.4203 124.996 26.0223 122.047 25.0026C114.744 22.4768 108.433 26.186 106.001 33.2174C103.664 39.9766 105.983 47.0764 113.15 49.5551C117.097 50.9199 120.823 50.2786 122.975 47.8739L122.568 49.0533C121.846 51.1401 123.087 52.8389 124.72 53.4037C126.353 53.9685 128.333 53.3834 129.055 51.2967L135.22 33.4686C135.973 31.2912 134.701 29.683 133.113 29.134ZM116.821 44.3743C112.965 43.0409 111.139 39.3621 112.473 35.5061C113.775 31.7409 117.483 29.976 121.339 31.3095C125.15 32.6273 126.915 36.3357 125.628 40.0556C124.326 43.8208 120.632 45.6921 116.821 44.3743Z" fill="black"/>
<path d="M150.954 37.5312C145.654 34.8238 140.989 35.621 138.609 40.2804C136.098 45.1963 138.813 48.9549 141.503 50.7597C139.955 50.9396 137.72 51.3068 134.64 52.4826C133.821 52.819 133.324 53.2656 133.04 53.8213C132.363 55.1464 133.079 56.8055 134.575 57.5697C135.301 57.9409 136.245 58.0992 137.256 57.8074L148.833 54.5579C148.245 55.6047 147.372 57.2073 145.975 59.943C145.189 61.4819 145.751 63.5476 147.375 64.3773C148.957 65.1851 150.916 64.515 151.724 62.9334L159.977 46.7751C161.178 44.424 160.572 42.4439 158.179 41.2212L150.954 37.5312ZM146.013 48.0506C143.961 47.0026 143.309 45.4299 144.138 43.8055C144.946 42.2239 146.623 41.8948 148.633 42.921L153.42 45.3664L150.8 50.496L146.013 48.0506Z" fill="black"/>
<path d="M171.228 77.6101C172.694 77.8251 173.741 77.1913 174.32 76.3081C175.135 75.0637 175.002 73.2541 173.677 72.3857C173.396 72.2015 173.089 72.0574 172.688 71.9673C171.422 71.7108 170.273 71.1872 169.269 70.5293C166.058 68.424 164.39 64.576 166.864 60.8026C169.548 56.708 173.718 57.0885 176.809 59.1149C177.853 59.7991 178.765 60.684 179.452 61.6506C179.734 62.0078 180.003 62.2987 180.284 62.4829C181.648 63.3776 183.295 62.7924 184.084 61.5881C184.663 60.705 184.787 59.4659 184.031 58.1671C182.966 56.378 181.302 54.7134 179.375 53.4502C173.996 49.9239 166.19 49.3984 161.19 57.0255C156.164 64.6928 159.813 71.734 165.232 75.2867C167.119 76.5235 169.229 77.3326 171.228 77.6101Z" fill="black"/>
<path d="M193.129 72.8921L195.803 69.6221C196.957 68.21 196.741 66.0487 195.329 64.8941C193.917 63.7395 191.755 63.9563 190.601 65.3684L178.447 80.2322C177.293 81.6443 177.435 83.0627 178.847 84.2172L186.465 90.4459C190.998 94.1527 196.233 93.9687 199.666 89.7697C203.099 85.5706 202.27 80.3665 197.737 76.6597L193.129 72.8921ZM185.503 82.2192L189.513 77.3141L193.527 80.5956C195.31 82.054 195.77 83.9181 194.464 85.516C193.218 87.0395 191.3 86.959 189.516 85.5006L185.503 82.2192Z" fill="black"/>
</svg>
