<svg width="341" height="183" viewBox="0 0 341 183" fill="none" xmlns="http://www.w3.org/2000/svg">
<rect x="4.0459" y="179.075" width="175" height="333" rx="41.5" transform="rotate(-90 4.0459 179.075)" fill="white" stroke="black" stroke-width="7"/>
<rect x="36.7368" y="158.359" width="53" height="23" rx="11.5" transform="rotate(-90 36.7368 158.359)" fill="white" stroke="black" stroke-width="7"/>
<path d="M48.2366 154.797C43.6248 154.797 39.8862 151.058 39.8862 146.447L39.8862 131.859L56.5869 131.859L56.5869 146.447C56.5869 151.058 52.8483 154.797 48.2366 154.797V154.797Z" fill="#ED427F"/>
<rect x="85.6606" y="158.359" width="53" height="23" rx="11.5" transform="rotate(-90 85.6606 158.359)" fill="white" stroke="black" stroke-width="7"/>
<path d="M97.1604 154.797C92.5486 154.797 88.8101 151.058 88.8101 146.447L88.8101 131.859L105.511 131.859L105.511 146.447C105.511 151.058 101.772 154.797 97.1604 154.797V154.797Z" fill="#ED427F"/>
<rect x="134.584" y="158.359" width="53" height="23" rx="11.5" transform="rotate(-90 134.584 158.359)" fill="white" stroke="black" stroke-width="7"/>
<path d="M146.084 154.797C141.472 154.797 137.733 151.058 137.733 146.447L137.733 131.859L154.434 131.859L154.434 146.447C154.434 151.058 150.696 154.797 146.084 154.797V154.797Z" fill="#ED427F"/>
<rect x="183.508" y="158.359" width="53" height="23" rx="11.5" transform="rotate(-90 183.508 158.359)" fill="white" stroke="black" stroke-width="7"/>
<path d="M195.008 154.797C190.396 154.797 186.657 151.058 186.657 146.447L186.657 131.859L203.358 131.859L203.358 146.447C203.358 151.058 199.619 154.797 195.008 154.797V154.797Z" fill="#ED427F"/>
<rect x="232.431" y="158.359" width="53" height="23" rx="11.5" transform="rotate(-90 232.431 158.359)" fill="white" stroke="black" stroke-width="7"/>
<path d="M243.931 154.797C239.319 154.797 235.581 151.058 235.581 146.447L235.581 131.859L252.281 131.859L252.281 146.447C252.281 151.058 248.543 154.797 243.931 154.797V154.797Z" fill="#ED427F"/>
<rect x="281.355" y="158.359" width="53" height="23" rx="11.5" transform="rotate(-90 281.355 158.359)" fill="white" stroke="black" stroke-width="7"/>
<path d="M292.855 154.797C288.243 154.797 284.504 151.058 284.504 146.447L284.504 131.859L301.205 131.859L301.205 146.447C301.205 151.058 297.467 154.797 292.855 154.797V154.797Z" fill="#ED427F"/>
<rect x="36.7368" y="77.79" width="53" height="23" rx="11.5" transform="rotate(-90 36.7368 77.79)" fill="white" stroke="black" stroke-width="7"/>
<path d="M48.2366 74.2275C43.6248 74.2275 39.8862 70.489 39.8862 65.8772L39.8862 51.29L56.5869 51.29L56.5869 65.8772C56.5869 70.489 52.8483 74.2275 48.2366 74.2275V74.2275Z" fill="#ED427F"/>
<rect x="85.6606" y="77.79" width="53" height="23" rx="11.5" transform="rotate(-90 85.6606 77.79)" fill="white" stroke="black" stroke-width="7"/>
<path d="M97.1604 74.2275C92.5486 74.2275 88.8101 70.489 88.8101 65.8772L88.8101 51.29L105.511 51.29L105.511 65.8772C105.511 70.489 101.772 74.2275 97.1604 74.2275V74.2275Z" fill="#ED427F"/>
<rect x="134.584" y="77.79" width="53" height="23" rx="11.5" transform="rotate(-90 134.584 77.79)" fill="white" stroke="black" stroke-width="7"/>
<path d="M146.084 74.2275C141.472 74.2275 137.733 70.489 137.733 65.8772L137.733 51.29L154.434 51.29L154.434 65.8772C154.434 70.489 150.696 74.2275 146.084 74.2275V74.2275Z" fill="#ED427F"/>
<rect x="183.508" y="77.79" width="53" height="23" rx="11.5" transform="rotate(-90 183.508 77.79)" fill="white" stroke="black" stroke-width="7"/>
<path d="M195.008 74.2275C190.396 74.2275 186.657 70.489 186.657 65.8772L186.657 51.29L203.358 51.29L203.358 65.8772C203.358 70.489 199.619 74.2275 195.008 74.2275V74.2275Z" fill="#ED427F"/>
<rect x="232.431" y="77.79" width="53" height="23" rx="11.5" transform="rotate(-90 232.431 77.79)" fill="white" stroke="black" stroke-width="7"/>
<path d="M243.931 74.2275C239.319 74.2275 235.581 70.489 235.581 65.8772L235.581 51.29L252.281 51.29L252.281 65.8772C252.281 70.489 248.543 74.2275 243.931 74.2275V74.2275Z" fill="#ED427F"/>
<rect x="281.355" y="77.79" width="53" height="23" rx="11.5" transform="rotate(-90 281.355 77.79)" fill="white" stroke="black" stroke-width="7"/>
<path d="M292.855 74.2275C288.243 74.2275 284.504 70.489 284.504 65.8772L284.504 51.29L301.205 51.29L301.205 65.8772C301.205 70.489 297.467 74.2275 292.855 74.2275V74.2275Z" fill="#ED427F"/>
</svg>
