<svg width="341" height="183" viewBox="0 0 341 183" fill="none" xmlns="http://www.w3.org/2000/svg">
<rect x="3.6748" y="178.692" width="175" height="333" rx="41.5" transform="rotate(-90 3.6748 178.692)" fill="white" stroke="black" stroke-width="7"/>
<rect x="36.3657" y="157.977" width="53" height="23" rx="11.5" transform="rotate(-90 36.3657 157.977)" fill="white" stroke="black" stroke-width="7"/>
<path d="M47.8655 154.415C43.2537 154.415 39.5151 150.676 39.5151 146.064L39.5151 131.477L56.2158 131.477L56.2158 146.064C56.2158 150.676 52.4772 154.415 47.8655 154.415V154.415Z" fill="#ED427F"/>
<rect x="85.2896" y="157.977" width="53" height="23" rx="11.5" transform="rotate(-90 85.2896 157.977)" fill="white" stroke="black" stroke-width="7"/>
<path d="M96.7893 154.415C92.1775 154.415 88.439 150.676 88.439 146.064L88.439 131.477L105.14 131.477L105.14 146.064C105.14 150.676 101.401 154.415 96.7893 154.415V154.415Z" fill="#ED427F"/>
<rect x="134.213" y="157.977" width="53" height="23" rx="11.5" transform="rotate(-90 134.213 157.977)" fill="white" stroke="black" stroke-width="7"/>
<path d="M145.713 154.415C141.101 154.415 137.362 150.676 137.362 146.064L137.362 131.477L154.063 131.477L154.063 146.064C154.063 150.676 150.324 154.415 145.713 154.415V154.415Z" fill="#ED427F"/>
<rect x="183.137" y="157.977" width="53" height="23" rx="11.5" transform="rotate(-90 183.137 157.977)" fill="white" stroke="black" stroke-width="7"/>
<path d="M194.636 154.415C190.025 154.415 186.286 150.676 186.286 146.064L186.286 131.477L202.987 131.477L202.987 146.064C202.987 150.676 199.248 154.415 194.636 154.415V154.415Z" fill="#ED427F"/>
<rect x="232.06" y="157.977" width="53" height="23" rx="11.5" transform="rotate(-90 232.06 157.977)" fill="white" stroke="black" stroke-width="7"/>
<path d="M243.56 154.415C238.948 154.415 235.209 150.676 235.209 146.064L235.209 131.477L251.91 131.477L251.91 146.064C251.91 150.676 248.172 154.415 243.56 154.415V154.415Z" fill="#ED427F"/>
<rect x="280.984" y="157.977" width="53" height="23" rx="11.5" transform="rotate(-90 280.984 157.977)" fill="white" stroke="black" stroke-width="7"/>
<path d="M292.484 154.415C287.872 154.415 284.133 150.676 284.133 146.064L284.133 131.477L300.834 131.477L300.834 146.064C300.834 150.676 297.095 154.415 292.484 154.415V154.415Z" fill="#ED427F"/>
<rect x="36.3657" y="77.4077" width="53" height="23" rx="11.5" transform="rotate(-90 36.3657 77.4077)" fill="white" stroke="black" stroke-width="7"/>
<path d="M47.8655 73.8452C43.2537 73.8452 39.5151 70.1066 39.5151 65.4949L39.5151 50.9077L56.2158 50.9077L56.2158 65.4949C56.2158 70.1066 52.4772 73.8452 47.8655 73.8452V73.8452Z" fill="#ED427F"/>
<rect x="85.2896" y="77.4077" width="53" height="23" rx="11.5" transform="rotate(-90 85.2896 77.4077)" fill="white" stroke="black" stroke-width="7"/>
<path d="M96.7893 73.8452C92.1775 73.8452 88.439 70.1066 88.439 65.4949L88.439 50.9077L105.14 50.9077L105.14 65.4949C105.14 70.1066 101.401 73.8452 96.7893 73.8452V73.8452Z" fill="#ED427F"/>
<rect x="134.213" y="77.4077" width="53" height="23" rx="11.5" transform="rotate(-90 134.213 77.4077)" fill="white" stroke="black" stroke-width="7"/>
<path d="M145.713 73.8452C141.101 73.8452 137.362 70.1066 137.362 65.4949L137.362 50.9077L154.063 50.9077L154.063 65.4949C154.063 70.1066 150.324 73.8452 145.713 73.8452V73.8452Z" fill="#ED427F"/>
<rect x="183.137" y="77.4077" width="53" height="23" rx="11.5" transform="rotate(-90 183.137 77.4077)" fill="white" stroke="black" stroke-width="7"/>
<path d="M194.636 73.8452C190.025 73.8452 186.286 70.1066 186.286 65.4949L186.286 50.9077L202.987 50.9077L202.987 65.4949C202.987 70.1066 199.248 73.8452 194.636 73.8452V73.8452Z" fill="#ED427F"/>
<rect x="232.06" y="77.4077" width="53" height="23" rx="11.5" transform="rotate(-90 232.06 77.4077)" fill="white" stroke="black" stroke-width="7"/>
<path d="M243.56 73.8452C238.948 73.8452 235.209 70.1066 235.209 65.4949L235.209 50.9077L251.91 50.9077L251.91 65.4949C251.91 70.1066 248.172 73.8452 243.56 73.8452V73.8452Z" fill="#ED427F"/>
<rect x="280.984" y="77.4077" width="53" height="23" rx="11.5" transform="rotate(-90 280.984 77.4077)" fill="white" stroke="black" stroke-width="7"/>
<path d="M292.484 73.8452C287.872 73.8452 284.133 70.1066 284.133 65.4949L284.133 50.9077L300.834 50.9077L300.834 65.4949C300.834 70.1066 297.095 73.8452 292.484 73.8452V73.8452Z" fill="#ED427F"/>
</svg>
