<svg width="370" height="232" viewBox="0 0 370 232" fill="none" xmlns="http://www.w3.org/2000/svg">
<path d="M36.8204 129.535C35.5313 127.568 33.604 127.167 31.6368 128.456L16.2599 138.532C14.7343 139.531 14.2914 141.658 15.2911 143.184C16.2908 144.709 18.4174 145.152 19.943 144.152L33.3526 135.366L38.9035 143.837L25.4939 152.624C23.9683 153.623 23.5254 155.75 24.5251 157.276C25.5248 158.801 27.6514 159.244 29.177 158.245L44.5539 148.169C46.5212 146.88 46.9489 144.992 45.6335 142.985L36.8204 129.535Z" fill="black"/>
<path d="M61.7922 159.419C58.6173 156.561 54.8748 155.84 52.0917 157.209L52.9588 156.246C54.4361 154.605 53.9905 152.589 52.7063 151.433C51.4577 150.309 49.3706 150.045 47.8933 151.685L27.6921 174.124C26.2148 175.765 26.6961 177.813 27.9446 178.937C29.2289 180.093 31.2803 180.325 32.7577 178.684L40.6583 169.909C40.1939 173.366 41.8238 176.577 44.0712 178.6C49.8145 183.771 57.0716 182.813 62.0496 177.283C66.8028 172.004 67.4641 164.526 61.7922 159.419ZM47.1476 173.103C44.1511 170.405 43.9698 166.302 46.6354 163.341C49.3011 160.38 53.4006 160.131 56.3971 162.829C59.4292 165.559 59.6426 169.626 56.9449 172.623C54.2471 175.619 50.1441 175.801 47.1476 173.103Z" fill="black"/>
<path d="M70.4036 196.83C77.3692 200.498 84.9727 198.317 88.5057 191.606C92.0164 184.937 89.5336 177.392 82.568 173.725C75.6024 170.058 68.019 172.303 64.5083 178.972C60.9753 185.683 63.438 193.163 70.4036 196.83ZM73.2658 191.394C69.7405 189.538 68.5137 185.583 70.3696 182.058C72.2256 178.532 76.1805 177.305 79.7058 179.161C83.2735 181.04 84.5004 184.995 82.6444 188.52C80.7885 192.045 76.8336 193.272 73.2658 191.394Z" fill="black"/>
<path d="M101.066 208.841C107.414 210.733 111.713 208.408 112.933 204.314C113.797 201.416 112.569 198.646 109.928 197.257C111.84 197.226 113.719 196.133 114.569 193.281C115.734 189.371 113.039 186.314 107.473 184.655L99.9748 182.42C97.9968 181.831 96.5178 182.592 95.9145 184.616L90.636 202.326C90.0327 204.35 90.8537 205.797 92.8317 206.386L101.066 208.841ZM101.13 188.124L106.328 189.673C107.892 190.139 108.915 191.245 108.448 192.809C108.01 194.281 106.567 194.753 104.957 194.273L99.7588 192.724L101.13 188.124ZM98.4837 197.002L104.648 198.839C106.626 199.429 107.658 200.838 107.178 202.448C106.726 203.966 105.063 204.673 103.039 204.069L96.9207 202.246L98.4837 197.002Z" fill="black"/>
<path d="M146.586 202.819C146.604 196.288 142.795 190.91 135.368 189.955C127.893 188.993 121.845 193.877 120.883 201.351C119.891 209.064 124.8 214.922 132.464 215.908C136.463 216.423 139.861 215.214 142.632 212.861C143.337 212.274 143.667 211.59 143.747 210.972C143.949 209.4 142.733 207.937 141.21 207.741C140.448 207.643 139.65 207.831 138.879 208.555C137.398 209.913 135.561 210.644 133.229 210.344C129.753 209.897 127.232 207.298 127.351 204.119L142.823 206.11C144.87 206.373 146.284 205.539 146.542 203.539C146.572 203.301 146.603 203.063 146.586 202.819ZM134.67 195.382C138.002 195.811 140.262 198.182 140.162 201.218L127.927 199.644C128.503 196.669 131.337 194.953 134.67 195.382Z" fill="black"/>
<path d="M152.688 225.906C154.367 225.83 155.694 224.376 155.618 222.698L155.377 217.375L172.831 216.585L173.072 221.908C173.148 223.586 174.65 224.912 176.328 224.836C178.006 224.76 179.334 223.306 179.258 221.628L178.861 212.853C178.778 211.031 177.734 210.261 175.912 210.344L175.337 210.37L174.608 194.258C174.523 192.388 173.422 191.429 171.6 191.511L156.688 192.186C154.722 192.275 153.961 193.511 153.939 195.146L153.712 207.12C153.652 210.054 153.269 211.128 152.453 211.165L152.166 211.178C150.535 211.252 148.986 212.043 149.066 213.817L149.48 222.976C149.556 224.654 151.01 225.982 152.688 225.906ZM159.417 211.09C159.969 210.537 160.279 208.889 160.36 206.435L160.512 198.115L167.992 197.777L168.576 210.676L159.417 211.09Z" fill="black"/>
<path d="M207.202 210.245C208.967 209.786 210.067 207.912 209.608 206.147L204.944 188.216C204.291 185.707 202.105 184.738 200.2 185.234C199.039 185.536 197.976 186.408 197.43 187.74L190.625 204.29L187.471 192.165C187 190.354 185.139 189.3 183.374 189.759C181.608 190.219 180.496 192.045 180.968 193.857L185.62 211.742C186.272 214.25 188.4 215.185 190.304 214.689C191.466 214.387 192.541 213.562 193.133 212.218L200.023 195.993L203.104 207.839C203.563 209.604 205.436 210.704 207.202 210.245Z" fill="black"/>
<path d="M220.143 177.613C218.694 178.464 218.2 180.37 219.052 181.818C219.904 183.266 221.785 183.719 223.233 182.867L226.915 180.701L235.02 194.478C235.944 196.05 238.071 196.637 239.685 195.688C241.257 194.763 241.778 192.619 240.853 191.047L232.749 177.269L236.431 175.104C237.879 174.252 238.398 172.388 237.546 170.939C236.694 169.491 234.789 168.997 233.341 169.849L220.143 177.613Z" fill="black"/>
<path d="M254.56 152.883C253.239 153.997 252.63 155.955 254.116 157.717L254.425 158.083C251.163 157.193 247.733 158.265 245.349 160.277C239.442 165.26 239.4 172.58 244.197 178.266C248.808 183.733 256.095 185.373 261.892 180.483C265.084 177.791 266.439 174.261 265.474 171.182L266.279 172.136C267.703 173.823 269.797 173.626 271.118 172.512C272.439 171.398 272.949 169.398 271.526 167.71L259.362 153.291C257.877 151.53 255.844 151.8 254.56 152.883ZM259.319 174.679C256.2 177.309 252.105 176.996 249.474 173.877C246.905 170.832 247.287 166.743 250.405 164.112C253.487 161.512 257.576 161.893 260.114 164.902C262.683 167.947 262.401 172.079 259.319 174.679Z" fill="black"/>
<path d="M288.62 154.096C293.558 148.276 293.207 140.677 287.57 135.895C281.97 131.144 274.914 131.893 270.38 137.236C268.579 139.359 267.231 142.433 268.492 145.769C264.908 142.351 264.569 139.041 266.772 135.183L270.917 127.998C271.634 126.781 271.298 125.174 270.31 124.335C269.065 123.28 267.182 123.57 266.22 124.705C266.126 124.815 266.033 124.924 265.977 125.065L261.677 132.433C257.527 139.551 259.516 146.777 265.812 152.119L269.216 155.007C276.243 160.969 283.745 159.843 288.62 154.096ZM283.966 150.085C281.482 153.013 277.73 153.355 274.802 150.87C271.91 148.417 271.6 144.629 274.084 141.7C276.506 138.845 280.295 138.535 283.186 140.988C286.114 143.472 286.389 147.23 283.966 150.085Z" fill="black"/>
<path d="M301.533 137.076C302.608 132.792 300.084 129.369 296.593 126.462L289.597 120.582L293.163 115.114L306.471 123.793C307.999 124.789 310.165 124.368 311.161 122.84C312.184 121.272 311.67 119.16 310.142 118.164L294.1 107.702C292.572 106.706 291.177 106.999 290.181 108.527L282.656 120.066C281.659 121.594 282.084 122.788 283.481 123.985L292.934 131.984C294.707 133.484 295.383 134.556 295.226 136.115C295.079 137.394 295.716 138.44 296.6 139.017C297.967 139.908 300.03 139.821 301.052 138.253C301.262 137.931 301.418 137.517 301.533 137.076Z" fill="black"/>
<path d="M315.551 84.2237C309.412 81.993 303.061 83.7531 299.645 90.4162C296.206 97.122 298.75 104.468 305.456 107.907C312.375 111.455 319.551 108.823 323.077 101.946C324.917 98.3586 324.932 94.7523 323.657 91.3475C323.344 90.4856 322.813 89.9435 322.257 89.6588C320.848 88.936 319.06 89.5833 318.359 90.9501C318.008 91.6335 317.914 92.4483 318.334 93.4186C319.109 95.2727 319.175 97.2483 318.102 99.3412C316.503 102.459 313.203 103.95 310.253 102.761L317.371 88.8792C318.313 87.0426 318.007 85.4294 316.213 84.5095C316 84.4 315.786 84.2905 315.551 84.2237ZM304.514 92.913C306.047 89.9232 309.044 88.6012 311.867 89.7248L306.238 100.702C303.635 99.1511 302.981 95.9028 304.514 92.913Z" fill="black"/>
<path d="M307.902 74.7435C307.253 76.2932 308 78.1147 309.549 78.7635C311.099 79.4122 312.876 78.6472 313.525 77.0975L315.175 73.1569L329.919 79.3292C331.602 80.0336 333.656 79.2284 334.379 77.5016C335.083 75.8191 334.215 73.7906 332.533 73.0862L317.788 66.9138L319.438 62.9732C320.087 61.4235 319.385 59.6205 317.835 58.9718C316.285 58.323 314.464 59.0695 313.815 60.6192L307.902 74.7435Z" fill="black"/>
<path d="M327.707 35.4164C327.26 34.3505 326.612 33.7234 325.885 33.4752C324.568 33.0252 323.089 33.9402 322.546 35.53C322.235 36.4385 322.212 37.5464 322.749 38.7951L327.972 50.9772C326.384 50.1306 324.901 49.5732 321.676 48.4716C319.95 47.882 317.954 48.8236 317.349 50.5951C316.744 52.3666 317.747 54.3321 319.473 54.9217L337.369 61.0347C339.096 61.6242 341.091 60.6827 341.696 58.9112C342.363 56.958 341.162 55.1276 339.527 54.569C335.893 53.3278 333.394 52.6263 331.576 52.1575L344.873 46.0474C345.832 45.6143 346.384 44.8897 346.632 44.163C347.206 42.4823 346.31 40.5024 344.766 39.9749C344.175 39.7732 343.507 39.7986 342.791 40.1121L331.945 45.2839L327.707 35.4164Z" fill="black"/>
<path d="M331.344 12.7688C339.149 18.3023 342.633 20.683 345.804 22.3826C342.103 22.2801 337.099 22.7709 328.467 23.6263C326.776 23.8167 325.802 24.8468 325.477 26.0519C325.003 27.813 325.86 29.9827 327.76 30.4948C328.177 30.6072 328.619 30.6269 329.132 30.5665L351.566 27.5644L357.288 31.7908C357.701 32.101 358.14 32.3186 358.557 32.431C360.411 32.9306 362.019 31.5744 362.456 29.9523C362.781 28.7473 362.503 27.3799 361.216 26.4365L335.276 7.21666C334.862 6.90638 334.424 6.68879 334.007 6.57638C332.153 6.07679 330.439 7.45439 329.977 9.16921C329.652 10.3742 329.964 11.8004 331.344 12.7688Z" fill="black"/>
</svg>
