<svg width="621" height="199" viewBox="0 0 621 199" fill="none" xmlns="http://www.w3.org/2000/svg">
<path d="M75.2394 86.9695C78.6966 92.066 75.3402 98.9937 69.1979 99.4395L33.434 102.035C27.2918 102.481 22.9703 96.1101 25.6554 90.5679L41.2897 58.2977C43.9748 52.7555 51.6526 52.1983 55.1097 57.2948L75.2394 86.9695Z" fill="#5EE453"/>
<path d="M241.971 7.60315C180.735 -14.0099 88.4051 64.8295 77.6241 90.902C66.8432 116.974 122.65 140.432 158.672 140.432C194.693 140.432 205.949 187.71 300.505 194.464C395.06 201.218 392.809 144.935 469.354 140.432C545.899 135.93 660.716 102.16 599.931 43.6254C539.145 -14.9089 428.83 39.1228 372.547 43.6254C316.264 48.1281 318.515 34.6194 241.971 7.60315Z" fill="#5EE453" stroke="#5EE453" stroke-width="7" stroke-linecap="round" stroke-linejoin="round"/>
</svg>
