<svg width="51" height="51" viewBox="0 0 51 51" fill="none" xmlns="http://www.w3.org/2000/svg">
<mask id="path-1-inside-1_274_8" fill="white">
<path fill-rule="evenodd" clip-rule="evenodd" d="M41.9058 19.7898C36.3829 19.7898 31.9058 15.3126 31.9058 9.78979C31.9058 7.0168 33.0344 4.50743 34.8575 2.69602C31.9598 1.52172 28.792 0.875 25.4731 0.875C11.666 0.875 0.473145 12.0679 0.473145 25.875C0.473145 39.6821 11.666 50.875 25.4731 50.875C39.2803 50.875 50.4731 39.6821 50.4731 25.875C50.4731 22.745 49.8979 19.7493 48.8474 16.9879C47.0489 18.7228 44.602 19.7898 41.9058 19.7898Z"/>
</mask>
<path fill-rule="evenodd" clip-rule="evenodd" d="M41.9058 19.7898C36.3829 19.7898 31.9058 15.3126 31.9058 9.78979C31.9058 7.0168 33.0344 4.50743 34.8575 2.69602C31.9598 1.52172 28.792 0.875 25.4731 0.875C11.666 0.875 0.473145 12.0679 0.473145 25.875C0.473145 39.6821 11.666 50.875 25.4731 50.875C39.2803 50.875 50.4731 39.6821 50.4731 25.875C50.4731 22.745 49.8979 19.7493 48.8474 16.9879C47.0489 18.7228 44.602 19.7898 41.9058 19.7898Z" fill="black"/>
<path d="M34.8575 2.69602L36.2672 4.11475L38.4156 1.98L35.6087 0.84245L34.8575 2.69602ZM48.8474 16.9879L50.7167 16.2768L49.6395 13.4451L47.4589 15.5485L48.8474 16.9879ZM29.9058 9.78979C29.9058 16.4172 35.2783 21.7898 41.9058 21.7898V17.7898C37.4875 17.7898 33.9058 14.2081 33.9058 9.78979H29.9058ZM33.4478 1.27729C31.2624 3.44875 29.9058 6.46272 29.9058 9.78979H33.9058C33.9058 7.57089 34.8065 5.56611 36.2672 4.11475L33.4478 1.27729ZM35.6087 0.84245C32.4765 -0.426911 29.0539 -1.125 25.4731 -1.125V2.875C28.5302 2.875 31.4432 3.47036 34.1063 4.54959L35.6087 0.84245ZM25.4731 -1.125C10.5615 -1.125 -1.52686 10.9633 -1.52686 25.875H2.47314C2.47314 13.1725 12.7706 2.875 25.4731 2.875V-1.125ZM-1.52686 25.875C-1.52686 40.7867 10.5615 52.875 25.4731 52.875V48.875C12.7706 48.875 2.47314 38.5775 2.47314 25.875H-1.52686ZM25.4731 52.875C40.3848 52.875 52.4731 40.7867 52.4731 25.875H48.4731C48.4731 38.5775 38.1757 48.875 25.4731 48.875V52.875ZM52.4731 25.875C52.4731 22.4982 51.8523 19.2618 50.7167 16.2768L46.9781 17.6991C47.9436 20.2368 48.4731 22.9917 48.4731 25.875H52.4731ZM41.9058 21.7898C45.1404 21.7898 48.0797 20.5073 50.2359 18.4274L47.4589 15.5485C46.0182 16.9382 44.0635 17.7898 41.9058 17.7898V21.7898Z" fill="white" mask="url(#path-1-inside-1_274_8)"/>
</svg>
