<svg width="294" height="127" viewBox="0 0 294 127" fill="none" xmlns="http://www.w3.org/2000/svg">
<path d="M28.6331 43.8007C27.3727 42.6899 25.4081 42.8138 24.2972 44.0741C23.1864 45.3345 23.342 47.2631 24.6024 48.374L27.8072 51.1986L17.2385 63.1899C16.0325 64.5583 16.1374 66.7622 17.5418 68C18.9102 69.206 21.1099 69.0333 22.3159 67.6649L32.8846 55.6737L36.0895 58.4983C37.3498 59.6092 39.2828 59.5213 40.3936 58.261C41.5044 57.0006 41.3805 55.0359 40.1202 53.9251L28.6331 43.8007Z" fill="black"/>
<path d="M58.5223 79.5606C61.3206 73.6593 60.1658 67.1711 53.8538 63.1426C47.5013 59.0883 39.9483 60.9301 35.894 67.2826C31.7106 73.8374 33.6557 81.2286 40.17 85.3862C43.5688 87.5554 47.1577 87.9098 50.6674 86.961C51.5549 86.7302 52.1446 86.2524 52.4803 85.7264C53.3325 84.3912 52.8563 82.5498 51.5615 81.7235C50.9141 81.3103 50.1118 81.1399 49.1063 81.4662C47.1875 82.0637 45.2144 81.9433 43.2318 80.678C40.2781 78.7929 39.1046 75.3676 40.5662 72.5422L53.7162 80.9348C55.4561 82.0452 57.0908 81.8927 58.1754 80.1934C58.3045 79.991 58.4336 79.7887 58.5223 79.5606ZM50.9099 67.7552C53.7423 69.5629 54.7763 72.6714 53.3922 75.3754L42.9936 68.7388C44.7823 66.293 48.0776 65.9476 50.9099 67.7552Z" fill="black"/>
<path d="M81.695 77.3321C77.7084 75.7967 73.9552 76.4601 71.8451 78.7337L72.3109 77.5242C73.1044 75.4638 71.968 73.7402 70.3554 73.1191C68.7877 72.5153 66.7439 73.0141 65.9503 75.0746L55.0992 103.249C54.3057 105.31 55.4869 107.051 57.0547 107.654C58.6672 108.275 60.6662 107.759 61.4598 105.699L65.7036 94.6799C66.505 98.0747 69.1747 100.492 71.9967 101.579C79.2083 104.356 85.644 100.868 88.3179 93.9251C90.8711 87.2958 88.817 80.075 81.695 77.3321ZM72.9059 95.3448C69.1433 93.8957 67.508 90.1283 68.9399 86.4105C70.3718 82.6927 74.1117 80.9954 77.8743 82.4445C81.6816 83.9109 83.3341 87.6335 81.885 91.3961C80.4359 95.1587 76.6685 96.7939 72.9059 95.3448Z" fill="black"/>
<path d="M112.004 85.1656C107.784 84.5002 104.253 85.9358 102.667 88.6012L102.869 87.321C103.212 85.14 101.74 83.6929 100.033 83.4238C98.3735 83.1621 96.4797 84.0783 96.1357 86.2594L91.4331 116.083C91.0892 118.264 92.6092 119.718 94.2687 119.98C95.9756 120.249 97.822 119.326 98.1659 117.145L100.005 105.481C101.501 108.632 104.618 110.436 107.605 110.907C115.238 112.11 120.8 107.35 121.959 100.001C123.065 92.9839 119.543 86.3543 112.004 85.1656ZM107.187 104.621C103.204 103.993 100.815 100.652 101.436 96.7165C102.056 92.7811 105.357 90.3374 109.34 90.9654C113.37 91.6009 115.766 94.8944 115.138 98.8772C114.51 102.86 111.169 105.249 107.187 104.621Z" fill="black"/>
<path d="M148.948 112.611C150.772 112.566 152.269 110.991 152.223 109.168L151.757 90.6458C151.691 88.0546 149.782 86.6142 147.815 86.6637C146.615 86.6939 145.382 87.3011 144.548 88.4745L134.159 103.045L133.844 90.5205C133.797 88.6491 132.224 87.2002 130.4 87.2461C128.577 87.292 127.079 88.8182 127.126 90.6896L127.591 109.164C127.656 111.755 129.516 113.149 131.483 113.099C132.683 113.069 133.917 112.51 134.8 111.335L145.197 97.1009L145.505 109.337C145.551 111.16 147.125 112.657 148.948 112.611Z" fill="black"/>
<path d="M157.68 86.3381C156.027 86.6389 154.907 88.2576 155.208 89.9104C155.508 91.5633 157.119 92.6364 158.771 92.3356L162.974 91.5709L165.836 107.297C166.162 109.091 167.957 110.375 169.799 110.04C171.593 109.713 172.821 107.88 172.495 106.085L169.633 90.3593L173.836 89.5945C175.489 89.2938 176.618 87.7223 176.317 86.0695C176.016 84.4166 174.398 83.2963 172.745 83.597L157.68 86.3381Z" fill="black"/>
<path d="M198.158 102.472C205.506 99.6486 208.876 92.4922 206.156 85.4126C203.454 78.3779 196.142 75.2735 188.794 78.0965C181.445 80.9195 178.137 88.1036 180.84 95.1383C183.56 102.218 190.809 105.295 198.158 102.472ZM195.954 96.7363C192.235 98.165 188.452 96.4818 187.023 92.7628C185.595 89.0438 187.278 85.2605 190.997 83.8318C194.761 82.3859 198.544 84.0691 199.973 87.7881C201.401 91.5071 199.718 95.2904 195.954 96.7363Z" fill="black"/>
<path d="M216.393 63.2011C212.936 65.7105 211.45 69.2204 212.21 72.2279L211.448 71.1791C210.152 69.3921 208.087 69.4078 206.689 70.4228C205.329 71.4096 204.635 73.3958 205.932 75.1827L223.667 99.6171C224.964 101.404 227.067 101.36 228.427 100.373C229.825 99.3583 230.48 97.4004 229.183 95.6134L222.247 86.0572C225.532 87.232 229.012 86.3072 231.459 84.5309C237.714 79.9915 238.289 72.694 233.919 66.6728C229.746 60.9236 222.57 58.7181 216.393 63.2011ZM226.724 80.3762C223.461 82.7446 219.41 82.0667 217.07 78.8424C214.73 75.6182 215.341 71.5569 218.604 69.1885C221.906 66.7919 225.928 67.431 228.297 70.6941C230.665 73.9572 229.987 78.0079 226.724 80.3762Z" fill="black"/>
<path d="M261.211 54.4039C262.359 52.9862 262.131 50.8259 260.714 49.6783L246.312 38.0215C244.297 36.3907 241.963 36.9096 240.725 38.4393C239.97 39.372 239.632 40.7045 239.984 42.1008L244.338 59.4575L234.6 51.5756C233.145 50.3978 231.022 50.6555 229.874 52.0733C228.727 53.4911 228.917 55.6212 230.372 56.7989L244.736 68.4256C246.751 70.0564 249.018 69.5446 250.256 68.0149C251.011 67.0821 251.386 65.7799 251.064 64.3462L246.972 47.2009L256.486 54.9017C257.903 56.0492 260.064 55.8217 261.211 54.4039Z" fill="black"/>
<path d="M278.168 24.0296C278.964 22.3884 278.252 20.3361 276.611 19.5404L259.939 11.4577C257.606 10.3269 255.451 11.3623 254.592 13.1332C254.069 14.2129 254.043 15.5872 254.702 16.8672L262.883 32.7822L251.61 27.3169C249.926 26.5003 247.917 27.2333 247.121 28.8746C246.325 30.5159 246.994 32.5471 248.678 33.3638L265.307 41.4256C267.64 42.5563 269.731 41.5432 270.59 39.7724C271.113 38.6926 271.182 37.3393 270.544 36.0161L262.665 20.2476L273.679 25.5873C275.321 26.383 277.373 25.6709 278.168 24.0296Z" fill="black"/>
</svg>
