<svg width="1440" height="1025" viewBox="0 0 1440 1025" fill="none" xmlns="http://www.w3.org/2000/svg">
<g clip-path="url(#clip0_278_9)">
<rect width="1440" height="1024" transform="translate(0 0.5)" fill="black"/>
<path d="M-138.983 482.905C-153.504 344.702 -27.9888 110.435 158.137 211.253C344.262 312.071 53.9683 774.173 141.159 871.707C228.35 969.242 360.613 871.707 368.668 684.946C376.566 501.809 529.583 490.563 575.305 600.055C626.49 722.629 535.358 891.094 679.26 911.839C823.163 932.584 904.055 551.316 575.305 355.447C359.272 226.734 456.327 49.4687 624.255 124.7C792.184 199.931 831.877 420.382 943.803 409.028C1055.73 397.673 985.382 287.569 1063.08 173.901C1140.78 60.2321 1333.03 89.3737 1333.03 265.583C1333.03 441.793 1202.24 483.77 1105.52 538.933C916.087 646.98 1026.53 952.193 1168.34 921.661C1310.16 891.129 1161.28 704.133 1287.97 633.938C1397.16 573.443 1455.9 703.666 1544.31 809.346C1683.12 975.282 1598.82 692.408 1516.69 441.793" stroke="white" stroke-width="152" stroke-linecap="round" stroke-linejoin="round"/>
<rect x="1321.4" y="893.563" width="54.5315" height="87.1064" rx="27.2657" fill="black" stroke="white" stroke-width="7"/>
<path d="M1348.67 927.12L1329.88 927.12C1328.95 927.12 1328.19 926.365 1328.19 925.434L1328.19 920.951C1328.19 909.642 1337.36 900.474 1348.67 900.474V900.474L1348.67 927.12Z" fill="white"/>
</g>
<defs>
<clipPath id="clip0_278_9">
<rect width="1440" height="1024" fill="white" transform="translate(0 0.5)"/>
</clipPath>
</defs>
</svg>
