<svg width="1441" height="1025" viewBox="0 0 1441 1025" fill="none" xmlns="http://www.w3.org/2000/svg">
<rect x="0.937988" y="0.5" width="1440" height="1024" fill="white"/>
<path d="M78.6113 970.852C78.6113 913.561 165.272 913.561 165.272 856.27C165.272 798.98 78.6113 798.98 78.6113 741.676C78.6113 684.372 165.272 684.385 165.272 627.095C165.272 569.804 78.6113 569.804 78.6113 512.514C78.6113 455.223 165.272 455.223 165.272 397.919C165.272 340.615 78.6113 340.628 78.6113 283.338C78.6113 226.047 165.272 226.034 165.272 168.743C165.272 111.453 78.6113 111.439 78.6113 54.1485" stroke="black" stroke-width="7" stroke-miterlimit="10" stroke-linecap="round"/>
<path d="M228.36 970.852C228.36 913.561 315.021 913.561 315.021 856.27C315.021 798.98 228.36 798.98 228.36 741.676C228.36 684.372 315.021 684.385 315.021 627.095C315.021 569.804 228.36 569.804 228.36 512.514C228.36 455.223 315.021 455.223 315.021 397.919C315.021 340.615 228.36 340.628 228.36 283.338C228.36 226.047 315.021 226.034 315.021 168.743C315.021 111.453 228.36 111.439 228.36 54.1485" stroke="black" stroke-width="7" stroke-miterlimit="10" stroke-linecap="round"/>
<path d="M378.109 970.852C378.109 913.561 464.77 913.561 464.77 856.27C464.77 798.98 378.109 798.98 378.109 741.676C378.109 684.372 464.77 684.385 464.77 627.095C464.77 569.804 378.109 569.804 378.109 512.514C378.109 455.223 464.77 455.223 464.77 397.919C464.77 340.615 378.109 340.628 378.109 283.338C378.109 226.047 464.77 226.034 464.77 168.743C464.77 111.453 378.109 111.439 378.109 54.1485" stroke="black" stroke-width="7" stroke-miterlimit="10" stroke-linecap="round"/>
<path d="M527.858 970.852C527.858 913.561 614.519 913.561 614.519 856.27C614.519 798.98 527.858 798.98 527.858 741.676C527.858 684.372 614.519 684.385 614.519 627.095C614.519 569.804 527.858 569.804 527.858 512.514C527.858 455.223 614.519 455.223 614.519 397.919C614.519 340.615 527.858 340.628 527.858 283.338C527.858 226.047 614.519 226.034 614.519 168.743C614.519 111.453 527.858 111.439 527.858 54.1485" stroke="black" stroke-width="7" stroke-miterlimit="10" stroke-linecap="round"/>
<path d="M677.607 970.852C677.607 913.561 764.268 913.561 764.268 856.27C764.268 798.98 677.607 798.98 677.607 741.676C677.607 684.372 764.268 684.385 764.268 627.095C764.268 569.804 677.607 569.804 677.607 512.514C677.607 455.223 764.268 455.223 764.268 397.919C764.268 340.615 677.607 340.628 677.607 283.338C677.607 226.047 764.268 226.034 764.268 168.743C764.268 111.453 677.607 111.439 677.607 54.1485" stroke="black" stroke-width="7" stroke-miterlimit="10" stroke-linecap="round"/>
<path d="M827.356 970.852C827.356 913.561 914.017 913.561 914.017 856.27C914.017 798.98 827.356 798.98 827.356 741.676C827.356 684.372 914.017 684.385 914.017 627.095C914.017 569.804 827.356 569.804 827.356 512.514C827.356 455.223 914.017 455.223 914.017 397.919C914.017 340.615 827.356 340.628 827.356 283.338C827.356 226.047 914.017 226.034 914.017 168.743C914.017 111.453 827.356 111.439 827.356 54.1485" stroke="black" stroke-width="7" stroke-miterlimit="10" stroke-linecap="round"/>
<path d="M977.105 970.852C977.105 913.561 1063.77 913.561 1063.77 856.27C1063.77 798.98 977.105 798.98 977.105 741.676C977.105 684.372 1063.77 684.385 1063.77 627.095C1063.77 569.804 977.105 569.804 977.105 512.514C977.105 455.223 1063.77 455.223 1063.77 397.919C1063.77 340.615 977.105 340.628 977.105 283.338C977.105 226.047 1063.77 226.034 1063.77 168.743C1063.77 111.453 977.105 111.439 977.105 54.1485" stroke="black" stroke-width="7" stroke-miterlimit="10" stroke-linecap="round"/>
<path d="M1126.85 970.852C1126.85 913.561 1213.51 913.561 1213.51 856.27C1213.51 798.98 1126.85 798.98 1126.85 741.676C1126.85 684.372 1213.51 684.385 1213.51 627.095C1213.51 569.804 1126.85 569.804 1126.85 512.514C1126.85 455.223 1213.51 455.223 1213.51 397.919C1213.51 340.615 1126.85 340.628 1126.85 283.338C1126.85 226.047 1213.51 226.034 1213.51 168.743C1213.51 111.453 1126.85 111.439 1126.85 54.1485" stroke="black" stroke-width="7" stroke-miterlimit="10" stroke-linecap="round"/>
<path d="M1276.6 970.852C1276.6 913.561 1363.26 913.561 1363.26 856.27C1363.26 798.98 1276.6 798.98 1276.6 741.676C1276.6 684.372 1363.26 684.385 1363.26 627.095C1363.26 569.804 1276.6 569.804 1276.6 512.514C1276.6 455.223 1363.26 455.223 1363.26 397.919C1363.26 340.615 1276.6 340.628 1276.6 283.338C1276.6 226.047 1363.26 226.034 1363.26 168.743C1363.26 111.453 1276.6 111.439 1276.6 54.1485" stroke="black" stroke-width="7" stroke-miterlimit="10" stroke-linecap="round"/>
</svg>
