<svg width="1440" height="1025" viewBox="0 0 1440 1025" fill="none" xmlns="http://www.w3.org/2000/svg">
<rect y="0.5" width="1440" height="1024" fill="#5EE453"/>
<path d="M77.6733 970.852C77.6733 913.561 164.334 913.561 164.334 856.27C164.334 798.98 77.6733 798.98 77.6733 741.676C77.6733 684.372 164.334 684.385 164.334 627.095C164.334 569.804 77.6733 569.804 77.6733 512.514C77.6733 455.223 164.334 455.223 164.334 397.919C164.334 340.615 77.6733 340.628 77.6733 283.338C77.6733 226.047 164.334 226.034 164.334 168.743C164.334 111.453 77.6734 111.439 77.6734 54.1485" stroke="black" stroke-width="7" stroke-miterlimit="10" stroke-linecap="round"/>
<path d="M227.422 970.852C227.422 913.561 314.083 913.561 314.083 856.27C314.083 798.98 227.422 798.98 227.422 741.676C227.422 684.372 314.083 684.385 314.083 627.095C314.083 569.804 227.422 569.804 227.422 512.514C227.422 455.223 314.083 455.223 314.083 397.919C314.083 340.615 227.422 340.628 227.422 283.338C227.422 226.047 314.083 226.034 314.083 168.743C314.083 111.453 227.422 111.439 227.422 54.1485" stroke="black" stroke-width="7" stroke-miterlimit="10" stroke-linecap="round"/>
<path d="M377.171 970.852C377.171 913.561 463.832 913.561 463.832 856.27C463.832 798.98 377.171 798.98 377.171 741.676C377.171 684.372 463.832 684.385 463.832 627.095C463.832 569.804 377.171 569.804 377.171 512.514C377.171 455.223 463.832 455.223 463.832 397.919C463.832 340.615 377.171 340.628 377.171 283.338C377.171 226.047 463.832 226.034 463.832 168.743C463.832 111.453 377.171 111.439 377.171 54.1485" stroke="black" stroke-width="7" stroke-miterlimit="10" stroke-linecap="round"/>
<path d="M526.92 970.852C526.92 913.561 613.581 913.561 613.581 856.27C613.581 798.98 526.92 798.98 526.92 741.676C526.92 684.372 613.581 684.385 613.581 627.095C613.581 569.804 526.92 569.804 526.92 512.514C526.92 455.223 613.581 455.223 613.581 397.919C613.581 340.615 526.92 340.628 526.92 283.338C526.92 226.047 613.581 226.034 613.581 168.743C613.581 111.453 526.92 111.439 526.92 54.1485" stroke="black" stroke-width="7" stroke-miterlimit="10" stroke-linecap="round"/>
<path d="M676.669 970.852C676.669 913.561 763.33 913.561 763.33 856.27C763.33 798.98 676.669 798.98 676.669 741.676C676.669 684.372 763.33 684.385 763.33 627.095C763.33 569.804 676.669 569.804 676.669 512.514C676.669 455.223 763.33 455.223 763.33 397.919C763.33 340.615 676.669 340.628 676.669 283.338C676.669 226.047 763.33 226.034 763.33 168.743C763.33 111.453 676.669 111.439 676.669 54.1485" stroke="black" stroke-width="7" stroke-miterlimit="10" stroke-linecap="round"/>
<path d="M826.418 970.852C826.418 913.561 913.079 913.561 913.079 856.27C913.079 798.98 826.418 798.98 826.418 741.676C826.418 684.372 913.079 684.385 913.079 627.095C913.079 569.804 826.418 569.804 826.418 512.514C826.418 455.223 913.079 455.223 913.079 397.919C913.079 340.615 826.418 340.628 826.418 283.338C826.418 226.047 913.079 226.034 913.079 168.743C913.079 111.453 826.418 111.439 826.418 54.1485" stroke="black" stroke-width="7" stroke-miterlimit="10" stroke-linecap="round"/>
<path d="M976.167 970.852C976.167 913.561 1062.83 913.561 1062.83 856.27C1062.83 798.98 976.167 798.98 976.167 741.676C976.167 684.372 1062.83 684.385 1062.83 627.095C1062.83 569.804 976.167 569.804 976.167 512.514C976.167 455.223 1062.83 455.223 1062.83 397.919C1062.83 340.615 976.167 340.628 976.167 283.338C976.167 226.047 1062.83 226.034 1062.83 168.743C1062.83 111.453 976.167 111.439 976.167 54.1485" stroke="black" stroke-width="7" stroke-miterlimit="10" stroke-linecap="round"/>
<path d="M1125.92 970.852C1125.92 913.561 1212.58 913.561 1212.58 856.27C1212.58 798.98 1125.92 798.98 1125.92 741.676C1125.92 684.372 1212.58 684.385 1212.58 627.095C1212.58 569.804 1125.92 569.804 1125.92 512.514C1125.92 455.223 1212.58 455.223 1212.58 397.919C1212.58 340.615 1125.92 340.628 1125.92 283.338C1125.92 226.047 1212.58 226.034 1212.58 168.743C1212.58 111.453 1125.92 111.439 1125.92 54.1485" stroke="black" stroke-width="7" stroke-miterlimit="10" stroke-linecap="round"/>
<path d="M1275.67 970.852C1275.67 913.561 1362.33 913.561 1362.33 856.27C1362.33 798.98 1275.67 798.98 1275.67 741.676C1275.67 684.372 1362.33 684.385 1362.33 627.095C1362.33 569.804 1275.67 569.804 1275.67 512.514C1275.67 455.223 1362.33 455.223 1362.33 397.919C1362.33 340.615 1275.67 340.628 1275.67 283.338C1275.67 226.047 1362.33 226.034 1362.33 168.743C1362.33 111.453 1275.67 111.439 1275.67 54.1485" stroke="black" stroke-width="7" stroke-miterlimit="10" stroke-linecap="round"/>
</svg>
