<svg width="149" height="100" viewBox="0 0 149 100" fill="none" xmlns="http://www.w3.org/2000/svg">
<path d="M62.19 52.0289C62.5275 50.2081 65.1366 50.2081 65.4741 52.0289C65.7155 53.3314 67.3048 53.8478 68.2657 52.936C69.609 51.6613 71.7198 53.1948 70.9226 54.8663C70.3524 56.062 71.3345 57.4139 72.6479 57.241C74.484 56.9994 75.2902 59.4807 73.6628 60.3644C72.4986 60.9965 72.4986 62.6675 73.6628 63.2997C75.2902 64.1834 74.4839 66.6647 72.6479 66.4231C71.3345 66.2502 70.3523 67.602 70.9226 68.7977C71.7198 70.4692 69.609 72.0028 68.2657 70.7281C67.3048 69.8163 65.7155 70.3326 65.4741 71.6351C65.1366 73.456 62.5275 73.456 62.19 71.6351C61.9485 70.3326 60.3593 69.8163 59.3984 70.7281C58.055 72.0028 55.9443 70.4692 56.7415 68.7977C57.3117 67.602 56.3295 66.2502 55.0162 66.4231C53.1801 66.6647 52.3739 64.1834 54.0013 63.2997C55.1655 62.6675 55.1655 60.9965 54.0013 60.3644C52.3739 59.4807 53.1801 56.9994 55.0162 57.241C56.3295 57.4139 57.3117 56.062 56.7415 54.8663C55.9443 53.1948 58.055 51.6613 59.3984 52.936C60.3593 53.8478 61.9485 53.3314 62.19 52.0289Z" fill="black"/>
<path d="M61.6517 18.3945C63.0381 17.1668 65.0949 18.772 64.2407 20.4151C63.6297 21.5905 64.5648 22.9753 65.8833 22.8477C67.7266 22.6693 68.447 25.1769 66.7902 26.0041C65.605 26.5959 65.5475 28.2659 66.6893 28.9377C68.2853 29.8768 67.3943 32.329 65.5676 32.0243C64.261 31.8064 63.2329 33.1237 63.7617 34.3383C64.5009 36.0362 62.3387 37.4963 61.04 36.1761C60.1109 35.2318 58.5049 35.6932 58.2188 36.9866C57.8189 38.7948 55.2114 38.7051 54.9366 36.8737C54.7401 35.5637 53.1696 34.993 52.1779 35.8712C50.7915 37.099 48.7347 35.4938 49.5889 33.8507C50.2 32.6753 49.2648 31.2905 47.9463 31.4181C46.103 31.5964 45.3826 29.0888 47.0394 28.2616C48.2246 27.6699 48.2821 25.9999 47.1404 25.3281C45.5443 24.389 46.4354 21.9368 48.262 22.2415C49.5687 22.4594 50.5967 21.1421 50.0679 19.9275C49.3287 18.2296 51.4909 16.7695 52.7896 18.0896C53.7187 19.034 55.3247 18.5726 55.6108 17.2791C56.0107 15.4709 58.6182 15.5607 58.893 17.392C59.0895 18.7021 60.66 19.2728 61.6517 18.3945Z" fill="black"/>
<path d="M95.9888 33.3678C96.3263 31.5469 98.9354 31.5469 99.2729 33.3678C99.5144 34.6703 101.104 35.1867 102.065 34.2748C103.408 33.0001 105.519 34.5337 104.721 36.2052C104.151 37.4009 105.133 38.7527 106.447 38.5799C108.283 38.3382 109.089 40.8196 107.462 41.7033C106.297 42.3354 106.297 44.0064 107.462 44.6385C109.089 45.5222 108.283 48.0036 106.447 47.7619C105.133 47.5891 104.151 48.9409 104.721 50.1366C105.519 51.8081 103.408 53.3417 102.065 52.067C101.104 51.1551 99.5144 51.6715 99.2729 52.974C98.9354 54.7949 96.3263 54.7949 95.9888 52.974C95.7473 51.6715 94.1581 51.1551 93.1972 52.067C91.8539 53.3417 89.7431 51.8081 90.5403 50.1366C91.1105 48.9409 90.1284 47.5891 88.815 47.7619C86.9789 48.0036 86.1727 45.5222 87.8001 44.6385C88.9643 44.0064 88.9643 42.3354 87.8001 41.7033C86.1727 40.8196 86.9789 38.3382 88.815 38.5799C90.1284 38.7527 91.1105 37.4009 90.5403 36.2052C89.7431 34.5337 91.8538 33.0001 93.1972 34.2748C94.1581 35.1867 95.7473 34.6703 95.9888 33.3678Z" fill="black"/>
<path d="M128.055 70.6901C128.393 68.8692 131.002 68.8692 131.339 70.6901C131.581 71.9926 133.17 72.5089 134.131 71.5971C135.474 70.3224 137.585 71.856 136.788 73.5275C136.218 74.7231 137.2 76.075 138.513 75.9021C140.349 75.6605 141.155 78.1418 139.528 79.0255C138.364 79.6577 138.364 81.3287 139.528 81.9608C141.155 82.8445 140.349 85.3258 138.513 85.0842C137.2 84.9113 136.218 86.2632 136.788 87.4589C137.585 89.1304 135.474 90.6639 134.131 89.3892C133.17 88.4774 131.581 88.9938 131.339 90.2963C131.002 92.1171 128.393 92.1171 128.055 90.2963C127.814 88.9938 126.225 88.4774 125.264 89.3892C123.92 90.6639 121.809 89.1304 122.607 87.4589C123.177 86.2632 122.195 84.9113 120.881 85.0842C119.045 85.3258 118.239 82.8445 119.867 81.9608C121.031 81.3287 121.031 79.6577 119.867 79.0255C118.239 78.1418 119.045 75.6605 120.881 75.9021C122.195 76.075 123.177 74.7231 122.607 73.5275C121.809 71.856 123.92 70.3224 125.264 71.5971C126.225 72.5089 127.814 71.9926 128.055 70.6901Z" fill="black"/>
<path d="M17.9507 33.3678C18.2883 31.5469 20.8973 31.5469 21.2348 33.3678C21.4763 34.6703 23.0655 35.1867 24.0264 34.2748C25.3698 33.0001 27.4805 34.5337 26.6833 36.2052C26.1131 37.4009 27.0953 38.7527 28.4087 38.5799C30.2447 38.3382 31.0509 40.8196 29.4235 41.7033C28.2594 42.3354 28.2594 44.0064 29.4235 44.6385C31.0509 45.5222 30.2447 48.0036 28.4087 47.7619C27.0953 47.5891 26.1131 48.9409 26.6833 50.1366C27.4805 51.8081 25.3698 53.3417 24.0264 52.067C23.0655 51.1551 21.4763 51.6715 21.2348 52.974C20.8973 54.7949 18.2883 54.7949 17.9507 52.974C17.7093 51.6715 16.1201 51.1551 15.1591 52.067C13.8158 53.3417 11.705 51.8081 12.5022 50.1366C13.0725 48.9409 12.0903 47.5891 10.7769 47.7619C8.94085 48.0036 8.13462 45.5222 9.76204 44.6385C10.9262 44.0064 10.9262 42.3354 9.76204 41.7033C8.13462 40.8196 8.94085 38.3382 10.7769 38.5799C12.0903 38.7527 13.0725 37.4009 12.5022 36.2052C11.705 34.5337 13.8158 33.0001 15.1591 34.2748C16.1201 35.1867 17.7093 34.6703 17.9507 33.3678Z" fill="black"/>
</svg>
