<svg width="54" height="56" viewBox="0 0 54 56" fill="none" xmlns="http://www.w3.org/2000/svg">
<path d="M24.0501 2.5069C24.6565 -0.764021 29.3433 -0.764016 29.9496 2.5069L30.8297 7.25455C31.2635 9.59434 34.1183 10.5219 35.8445 8.88393L39.3471 5.56031C41.7602 3.27048 45.5519 6.02532 44.1199 9.02795L42.0413 13.3862C41.0169 15.5341 42.7812 17.9625 45.1405 17.652L49.9278 17.0219C53.226 16.5878 54.6743 21.0452 51.7508 22.6326L47.5075 24.9368C45.4163 26.0723 45.4163 29.074 47.5075 30.2096L51.7508 32.5137C54.6743 34.1011 53.226 38.5585 49.9278 38.1244L45.1405 37.4944C42.7812 37.1838 41.0169 39.6123 42.0413 41.7601L44.1199 46.1184C45.5519 49.121 41.7602 51.8758 39.3471 49.586L35.8445 46.2624C34.1183 44.6244 31.2635 45.552 30.8297 47.8918L29.9496 52.6394C29.3433 55.9103 24.6565 55.9103 24.0501 52.6394L23.17 47.8918C22.7363 45.552 19.8815 44.6244 18.1553 46.2624L14.6527 49.586C12.2396 51.8758 8.44786 49.121 9.87991 46.1184L11.9585 41.7601C12.9829 39.6123 11.2185 37.1838 8.85922 37.4944L4.07197 38.1244C0.773772 38.5585 -0.674522 34.1011 2.24893 32.5137L6.49225 30.2096C8.58349 29.074 8.58348 26.0723 6.49224 24.9368L2.24893 22.6326C-0.674528 21.0452 0.773774 16.5878 4.07197 17.0219L8.85922 17.652C11.2185 17.9625 12.9829 15.5341 11.9585 13.3862L9.87991 9.02794C8.44786 6.02531 12.2396 3.27048 14.6527 5.56031L18.1553 8.88393C19.8815 10.5219 22.7363 9.59434 23.17 7.25454L24.0501 2.5069Z" fill="#5EE453"/>
</svg>
