<svg width="593" height="424" viewBox="0 0 593 424" fill="none" xmlns="http://www.w3.org/2000/svg">
<rect x="0.983413" y="30.3846" width="571.774" height="390.413" rx="41.3274" transform="rotate(-2.97172 0.983413 30.3846)" fill="white" stroke="black" stroke-width="5.36573"/>
<path d="M101.739 302.476C104.024 306.245 101.371 311.073 96.9649 311.167L71.3094 311.713C66.9032 311.807 64.0478 307.096 66.1697 303.233L78.5247 280.742C80.6466 276.879 86.1543 276.762 88.4386 280.531L101.739 302.476Z" fill="#5EE453"/>
<path d="M223.807 251.855C180.833 234.167 111.959 287.134 103.299 305.374C94.64 323.613 133.667 342.421 159.411 343.74C185.156 345.058 191.471 379.26 258.803 387.548C326.135 395.836 326.585 355.528 381.457 355.111C436.329 354.695 519.625 334.762 478.324 290.702C437.023 246.643 356.203 281.222 315.812 282.38C275.422 283.538 277.525 273.966 223.807 251.855Z" fill="#5EE453" stroke="#5EE453" stroke-width="5.36573" stroke-linecap="round" stroke-linejoin="round"/>
<path d="M262.176 95.0586L261.218 76.5947L266.812 76.3043C270.781 76.0983 273.784 78.5951 273.971 82.2052C274.157 85.7877 271.456 88.5807 267.598 88.7809L265.89 88.8696L266.2 94.8497L262.176 95.0586ZM265.694 85.0942L267.264 85.0126C268.945 84.9254 270.028 83.9573 269.948 82.414C269.871 80.9259 268.689 79.9925 267.008 80.0797L265.437 80.1613L265.694 85.0942ZM274.353 94.4265L280.652 75.2542L283.215 75.1212L291.466 93.5381L287.222 93.7584L285.931 90.703L279.565 91.0335L278.624 94.2048L274.353 94.4265ZM280.625 87.4968L284.51 87.2951L282.299 81.9663L280.625 87.4968ZM293.798 93.417L292.84 74.9531L296.863 74.7443L297.238 81.9645L304.431 81.5911L304.056 74.3709L308.079 74.162L309.038 92.6259L305.014 92.8348L304.627 85.3665L297.434 85.7399L297.822 93.2082L293.798 93.417ZM321.628 92.3592C316.199 92.641 311.875 88.6653 311.593 83.2364C311.31 77.7799 315.2 73.4055 320.629 73.1236C326.031 72.8432 330.38 76.7899 330.664 82.2464C330.946 87.6754 327.029 92.0788 321.628 92.3592ZM321.425 88.4459C324.484 88.2871 326.589 85.7186 326.42 82.4667C326.252 79.2424 323.891 76.8781 320.832 77.0369C317.773 77.1957 315.67 79.7918 315.837 83.0161C316.005 86.2404 318.366 88.6047 321.425 88.4459ZM340.239 91.3378L339.263 72.5432L343.287 72.3343L343.87 83.578L353.356 71.48L355.45 71.3713L356.426 90.1659L352.402 90.3747L351.819 79.131L342.333 91.229L340.239 91.3378ZM360.691 90.1932C360.139 90.2218 359.585 90.1953 359.195 90.1326L358.992 86.2194C359.189 86.292 359.578 86.3271 359.881 86.3114C361.094 86.2484 361.677 85.251 361.592 83.5975L360.959 71.4169L374.38 70.7201L375.339 89.1841L371.315 89.3929L370.553 74.7045L365.179 74.9834L365.615 83.3887C365.84 87.7153 364.135 90.0143 360.691 90.1932ZM379.477 89.3008L378.501 70.5062L382.525 70.2973L383.108 81.541L392.594 69.443L394.688 69.3343L395.664 88.1289L391.64 88.3378L391.057 77.0941L381.571 89.1921L379.477 89.3008ZM405.861 87.5996L404.902 69.1357L419.811 68.3617L420.77 86.8256L416.746 87.0345L415.984 72.346L409.122 72.7022L409.884 87.3907L405.861 87.5996ZM433.367 86.5585C427.938 86.8403 423.615 82.8646 423.333 77.4357C423.05 71.9792 426.94 67.6048 432.369 67.3229C437.77 67.0425 442.12 70.9892 442.403 76.4457C442.685 81.8747 438.769 86.2781 433.367 86.5585ZM433.164 82.6452C436.223 82.4864 438.328 79.9179 438.159 76.666C437.992 73.4417 435.631 71.0774 432.572 71.2362C429.513 71.395 427.409 73.9911 427.577 77.2154C427.744 80.4397 430.105 82.804 433.164 82.6452ZM449.755 85.7077C446.834 85.8594 444.393 84.6045 443.114 82.3221L446.035 80.0428C446.863 81.6301 447.954 82.4025 449.387 82.3281C451.013 82.2437 452.089 81.1654 452.018 79.7875C451.939 78.2718 450.597 77.4296 448.53 77.5369L446.794 77.627L446.628 74.4303L448.116 74.353C449.962 74.2572 451.074 73.3152 451 71.8822C450.934 70.6146 449.897 69.8118 448.492 69.8847C447.334 69.9448 446.538 70.5664 445.804 71.8756L443.152 69.7475C444.403 67.7758 446.47 66.5909 448.895 66.465C452.257 66.2905 454.849 68.3113 455.002 71.26C455.092 72.9961 454.339 74.4721 452.956 75.511C454.796 76.355 455.953 77.87 456.056 79.8542C456.222 83.0509 453.558 85.5103 449.755 85.7077ZM458.069 89.2552L457.647 81.1256C459.493 81.0297 460.613 78.6505 460.365 73.8553L459.971 66.2769L473.199 65.5902L473.961 80.2786L476.469 80.1484L476.891 88.2781L472.868 88.4869L472.642 84.1328L461.867 84.6921L462.093 89.0463L458.069 89.2552ZM463.186 80.838L469.938 80.4875L469.371 69.5745L464.191 69.8435L464.387 73.6189C464.554 76.8432 464.148 79.1302 463.186 80.838ZM479.277 83.7883L478.319 65.3244L482.342 65.1155L482.717 72.3358L489.909 71.9624L489.535 64.7422L493.558 64.5333L494.517 82.9972L490.493 83.2061L490.105 75.7378L482.913 76.1112L483.301 83.5795L479.277 83.7883ZM507.107 82.7305C501.678 83.0123 497.354 79.0366 497.072 73.6077C496.789 68.1512 500.679 63.7768 506.108 63.4949C511.509 63.2145 515.859 67.1612 516.142 72.6177C516.424 78.0466 512.508 82.4501 507.107 82.7305ZM506.903 78.8172C509.962 78.6584 512.067 76.0899 511.898 72.838C511.731 69.6137 509.37 67.2494 506.311 67.4082C503.252 67.567 501.149 70.1631 501.316 73.3874C501.484 76.6117 503.845 78.976 506.903 78.8172ZM291.009 129.61L290.05 111.146L294.074 110.938L294.449 118.158L301.641 117.784L301.266 110.564L305.29 110.355L306.248 128.819L302.225 129.028L301.837 121.56L294.645 121.933L295.032 129.401L291.009 129.61ZM308.594 128.697L314.894 109.525L317.457 109.392L325.708 127.809L321.464 128.029L320.172 124.974L313.807 125.304L312.866 128.476L308.594 128.697ZM314.866 121.768L318.752 121.566L316.541 116.237L314.866 121.768ZM328.04 127.688L327.081 109.224L331.105 109.015L331.867 123.704L338.068 123.382L337.306 108.693L341.329 108.484L342.092 123.173L348.32 122.85L347.557 108.161L351.581 107.952L352.539 126.416L328.04 127.688ZM362.73 125.887L361.771 107.423L376.68 106.649L377.639 125.113L373.615 125.322L372.853 110.634L365.991 110.99L366.753 125.678L362.73 125.887ZM381.801 125.229L380.825 106.434L384.849 106.225L385.432 117.469L394.918 105.371L397.012 105.262L397.988 124.057L393.964 124.266L393.381 113.022L383.895 125.12L381.801 125.229ZM405.987 123.641L405.225 108.953L399.851 109.232L399.655 105.457L414.426 104.69L414.622 108.465L409.248 108.744L410.011 123.433L405.987 123.641ZM424.819 123.051C419.39 123.333 415.066 119.357 414.784 113.928C414.501 108.471 418.391 104.097 423.82 103.815C429.221 103.535 433.571 107.481 433.854 112.938C434.136 118.367 430.22 122.77 424.819 123.051ZM424.615 119.137C427.674 118.979 429.779 116.41 429.61 113.158C429.443 109.934 427.082 107.57 424.023 107.728C420.964 107.887 418.861 110.483 419.028 113.708C419.196 116.932 421.556 119.296 424.615 119.137ZM437.357 122.013L436.382 103.218L438.448 103.111L446.574 112.72L453.578 102.326L455.645 102.218L456.62 121.013L452.597 121.222L452.063 110.943L447.571 117.559L445.973 117.642L440.849 111.552L441.381 121.804L437.357 122.013ZM460.744 120.799L459.785 102.335L470.34 101.787L470.536 105.563L464.005 105.902L464.181 109.291L468.948 109.044L469.144 112.819L464.377 113.067L464.571 116.815L471.24 116.468L471.436 120.244L460.744 120.799ZM488.134 123.743L487.908 119.389L474.873 120.065L473.914 101.602L477.938 101.393L478.7 116.081L485.259 115.741L484.497 101.052L488.52 100.843L489.283 115.532L491.735 115.404L492.157 123.534L488.134 123.743ZM295.651 165.805C290.139 166.091 285.849 162.224 285.563 156.712C285.278 151.228 289.196 146.852 294.625 146.571C297.463 146.423 300.086 147.448 301.983 149.394L299.314 152.268C298.202 151.082 296.647 150.389 294.938 150.478C291.769 150.643 289.635 153.185 289.804 156.437C289.976 159.744 292.389 162.05 295.641 161.881C297.404 161.79 298.878 160.912 299.834 159.619L302.783 162.146C301.127 164.305 298.655 165.649 295.651 165.805ZM304.123 169.344L303.701 161.214C305.548 161.118 306.668 158.739 306.419 153.944L306.025 146.366L319.253 145.679L320.016 160.367L322.524 160.237L322.946 168.367L318.922 168.576L318.696 164.221L307.921 164.781L308.147 169.135L304.123 169.344ZM309.241 160.927L315.992 160.576L315.426 149.663L310.245 149.932L310.441 153.708C310.608 156.932 310.202 159.219 309.241 160.927ZM326.847 163.798L328.69 158.839L322.306 145.52L326.633 145.296L330.603 153.656L333.825 144.922L337.986 144.706L330.981 163.584L326.847 163.798ZM341.021 163.063L340.063 144.599L350.617 144.051L350.813 147.826L344.282 148.165L344.458 151.555L349.226 151.307L349.422 155.083L344.654 155.33L344.849 159.078L351.518 158.732L351.714 162.507L341.021 163.063ZM359.008 162.129L358.246 147.44L352.872 147.719L352.676 143.944L367.447 143.177L367.643 146.952L362.269 147.231L363.032 161.92L359.008 162.129ZM377.894 161.535C372.383 161.821 368.092 157.954 367.806 152.443C367.522 146.959 371.439 142.583 376.868 142.301C379.707 142.154 382.33 143.178 384.227 145.124L381.558 147.999C380.446 146.813 378.89 146.12 377.182 146.209C374.013 146.373 371.879 148.916 372.047 152.167C372.219 155.474 374.632 157.781 377.884 157.612C379.648 157.52 381.122 156.642 382.077 155.349L385.027 157.877C383.371 160.035 380.898 161.379 377.894 161.535ZM386.554 160.699L390.061 153.194C388.08 152.302 386.771 150.491 386.652 148.204C386.47 144.704 389.123 142.052 392.981 141.851L398.879 141.545L399.837 160.009L395.814 160.218L395.478 153.742L394.045 153.816L391.019 160.467L386.554 160.699ZM393.638 150.245L395.292 150.159L395.041 145.337L393.388 145.423C391.679 145.511 390.598 146.507 390.674 147.967C390.751 149.456 391.93 150.334 393.638 150.245ZM405.269 164.093L403.049 163.379L404.521 156.063L408.143 157.174L405.269 164.093ZM417.64 159.085L416.682 140.621L420.705 140.412L421.08 147.632L428.273 147.259L427.898 140.039L431.921 139.83L432.88 158.294L428.856 158.503L428.469 151.035L421.276 151.408L421.664 158.876L417.64 159.085ZM445.47 158.027C440.041 158.309 435.717 154.333 435.435 148.904C435.152 143.448 439.042 139.073 444.471 138.792C449.872 138.511 454.222 142.458 454.505 147.914C454.787 153.343 450.871 157.747 445.47 158.027ZM445.266 154.114C448.325 153.955 450.43 151.387 450.261 148.135C450.094 144.91 447.733 142.546 444.674 142.705C441.615 142.864 439.512 145.46 439.679 148.684C439.847 151.908 442.208 154.273 445.266 154.114ZM464.064 156.675L463.105 138.211L468.479 137.932C472.254 137.736 475.043 139.83 475.196 142.778C475.275 144.294 474.598 145.628 473.349 146.577C475.074 147.344 476.174 148.834 476.268 150.653C476.429 153.74 473.792 156.17 469.933 156.37L464.064 156.675ZM467.915 153.159L469.624 153.071C471.305 152.983 472.308 152.075 472.236 150.697C472.166 149.346 471.104 148.573 469.395 148.661L467.686 148.75L467.915 153.159ZM467.515 145.443L468.865 145.373C470.326 145.297 471.247 144.42 471.182 143.153C471.116 141.885 470.111 141.163 468.651 141.239L467.3 141.309L467.515 145.443ZM479.726 155.862L478.768 137.398L482.791 137.189L483.099 143.114L484.504 143.041C488.473 142.835 491.479 145.387 491.666 148.997C491.852 152.58 489.151 155.373 485.293 155.573L479.726 155.862ZM483.554 151.878L484.959 151.805C486.64 151.717 487.72 150.694 487.642 149.179C487.563 147.663 486.381 146.729 484.7 146.817L483.295 146.89L483.554 151.878ZM493.974 155.122L493.015 136.658L497.039 136.45L497.997 154.913L493.974 155.122ZM285.295 202.004L284.32 183.209L286.387 183.102L294.512 192.711L301.516 182.317L303.583 182.209L304.558 201.004L300.535 201.213L300.001 190.934L295.509 197.55L293.911 197.633L288.787 191.543L289.319 201.795L285.295 202.004ZM317.135 200.738C311.706 201.02 307.382 197.044 307.1 191.615C306.817 186.159 310.707 181.784 316.136 181.502C321.538 181.222 325.887 185.169 326.171 190.625C326.452 196.054 322.536 200.457 317.135 200.738ZM316.932 196.825C319.991 196.666 322.096 194.097 321.927 190.845C321.759 187.621 319.398 185.257 316.339 185.416C313.28 185.574 311.177 188.17 311.344 191.395C311.512 194.619 313.873 196.983 316.932 196.825ZM326.772 199.851L333.025 189.882L326.117 181.371L330.747 181.131L337.101 189.091L336.672 180.823L340.695 180.614L341.124 188.882L346.62 180.307L351.222 180.068L345.261 189.247L352.512 198.514L347.661 198.766L341.205 190.425L341.654 199.078L337.63 199.287L337.181 190.634L331.595 199.6L326.772 199.851ZM354.567 198.408L353.609 179.944L364.164 179.396L364.36 183.171L357.828 183.51L358.004 186.9L362.772 186.653L362.968 190.428L358.2 190.676L358.395 194.423L365.064 194.077L365.26 197.853L354.567 198.408ZM372.554 197.474L371.792 182.786L366.418 183.065L366.222 179.289L380.993 178.522L381.189 182.298L375.815 182.577L376.578 197.265L372.554 197.474ZM384.574 196.85L383.616 178.386L394.171 177.838L394.367 181.614L387.835 181.953L388.011 185.342L392.779 185.095L392.975 188.87L388.207 189.118L388.402 192.866L395.071 192.519L395.267 196.295L384.574 196.85ZM404.759 195.802L403.8 177.338L407.823 177.129L408.254 185.424L413.556 176.832L418.185 176.592L412.441 185.704L419.502 195.037L414.679 195.287L408.328 186.857L408.782 195.593L404.759 195.802ZM422.96 194.857L424.802 189.898L418.419 176.579L422.745 176.355L426.716 184.715L429.938 175.981L434.099 175.765L427.093 194.643L422.96 194.857ZM437.134 194.122L436.175 175.658L451.084 174.884L452.043 193.348L448.019 193.556L447.257 178.868L440.395 179.224L441.157 193.913L437.134 194.122ZM456.205 193.463L455.229 174.668L459.253 174.46L459.836 185.703L469.322 173.605L471.416 173.497L472.392 192.291L468.368 192.5L467.785 181.256L458.299 193.354L456.205 193.463ZM480.391 191.876L479.629 177.187L474.255 177.466L474.059 173.691L488.83 172.924L489.026 176.7L483.652 176.979L484.415 191.667L480.391 191.876ZM492.412 191.252L491.453 172.788L495.476 172.579L495.784 178.504L497.355 178.423C501.323 178.217 504.329 180.768 504.517 184.379C504.703 187.961 502.002 190.754 498.144 190.954L492.412 191.252ZM496.239 187.268L497.81 187.186C499.491 187.099 500.571 186.076 500.492 184.56C500.413 183.044 499.232 182.111 497.551 182.198L495.98 182.28L496.239 187.268ZM343.435 235.034L342.477 216.57L346.5 216.361L346.875 223.582L354.068 223.208L353.693 215.988L357.716 215.779L358.675 234.243L354.651 234.452L354.264 226.984L347.071 227.357L347.459 234.825L343.435 235.034ZM371.265 233.976C365.836 234.258 361.512 230.282 361.23 224.854C360.947 219.397 364.837 215.023 370.266 214.741C375.667 214.46 380.017 218.407 380.3 223.864C380.582 229.292 376.666 233.696 371.265 233.976ZM371.061 230.063C374.12 229.904 376.225 227.336 376.057 224.084C375.889 220.86 373.528 218.495 370.469 218.654C367.41 218.813 365.307 221.409 365.474 224.633C365.642 227.858 368.003 230.222 371.061 230.063ZM383.803 232.939L382.845 214.475L388.219 214.196C391.994 214 394.783 216.093 394.936 219.042C395.015 220.557 394.338 221.891 393.089 222.84C394.814 223.607 395.914 225.098 396.008 226.917C396.168 230.003 393.531 232.434 389.673 232.634L383.803 232.939ZM387.655 229.423L389.364 229.334C391.045 229.247 392.048 228.338 391.976 226.96C391.906 225.61 390.843 224.836 389.135 224.925L387.426 225.013L387.655 229.423ZM387.255 221.706L388.605 221.636C390.065 221.561 390.987 220.684 390.921 219.416C390.855 218.148 389.851 217.427 388.39 217.503L387.04 217.573L387.255 221.706ZM407.919 232.073C402.49 232.355 398.166 228.38 397.885 222.951C397.601 217.494 401.492 213.12 406.92 212.838C412.322 212.558 416.672 216.504 416.955 221.961C417.237 227.39 413.32 231.793 407.919 232.073ZM407.716 228.16C410.775 228.001 412.88 225.433 412.711 222.181C412.544 218.957 410.183 216.592 407.124 216.751C404.065 216.91 401.961 219.506 402.129 222.73C402.296 225.955 404.657 228.319 407.716 228.16ZM420.458 231.036L419.499 212.572L429.971 212.028L430.167 215.804L423.719 216.138L424.481 230.827L420.458 231.036ZM440.779 230.368C435.35 230.649 431.026 226.674 430.744 221.245C430.461 215.788 434.351 211.414 439.78 211.132C445.182 210.852 449.531 214.798 449.815 220.255C450.096 225.684 446.18 230.087 440.779 230.368ZM440.576 226.454C443.635 226.296 445.739 223.727 445.571 220.475C445.403 217.251 443.042 214.887 439.983 215.045C436.924 215.204 434.821 217.8 434.988 221.025C435.156 224.249 437.517 226.613 440.576 226.454Z" fill="black"/>
</svg>
