<svg width="695" height="629" viewBox="0 0 695 629" fill="none" xmlns="http://www.w3.org/2000/svg">
<rect x="-3.39166" y="288.674" width="571.774" height="390.413" rx="41.3274" transform="rotate(-30.2724 -3.39166 288.674)" fill="white" stroke="black" stroke-width="5.36573"/>
<circle cx="460.481" cy="277.812" r="131.253" transform="rotate(-10.8191 460.481 277.812)" fill="white"/>
<circle cx="460.481" cy="277.812" r="131.253" transform="rotate(-10.8191 460.481 277.812)" fill="white"/>
<circle cx="460.481" cy="277.812" r="131.253" transform="rotate(-10.8191 460.481 277.812)" stroke="black" stroke-width="5.36573"/>
<path d="M422.533 260.575C435.39 249.136 435.28 226.924 420.96 210.829C406.641 194.734 384.592 192.042 371.736 203.48C358.879 214.919 358.989 237.131 373.309 253.226C387.628 269.32 409.677 272.013 422.533 260.575Z" fill="#5EE453" stroke="white" stroke-width="5.36573"/>
<circle cx="464.421" cy="283.424" r="82.1966" transform="rotate(-10.8191 464.421 283.424)" fill="#5EE453" stroke="white" stroke-width="5.36573"/>
<circle cx="23.1845" cy="23.1845" r="20.5017" transform="matrix(-0.982225 0.187709 0.187709 0.982225 478.086 256.451)" fill="white" stroke="white" stroke-width="5.36573"/>
<path d="M453.352 284.207C454.687 291.194 461.624 295.859 468.964 294.456C476.303 293.054 481.031 286.159 479.696 279.172C478.361 272.185 471.424 267.52 464.084 268.923C456.744 270.325 452.016 277.22 453.352 284.207Z" fill="black" stroke="white" stroke-width="5.36573"/>
<ellipse cx="22.8332" cy="23.1845" rx="22.8332" ry="23.1845" transform="matrix(-0.982225 0.187709 0.187709 0.982225 405.437 258.398)" fill="white"/>
<path d="M381.345 286.606C382.762 294.024 389.73 298.803 396.793 297.453C403.856 296.103 408.57 289.092 407.153 281.674C405.735 274.256 398.767 269.477 391.705 270.827C384.642 272.177 379.927 279.189 381.345 286.606Z" fill="black" stroke="white" stroke-width="5.36573"/>
<path d="M437.677 368.332C450.534 356.893 450.424 334.681 436.104 318.587C421.785 302.492 399.736 299.799 386.88 311.238C374.023 322.676 374.133 344.888 388.453 360.983C402.772 377.078 424.821 379.771 437.677 368.332Z" fill="#5EE453" stroke="white" stroke-width="5.36573"/>
<path d="M521.21 237.259C534.067 225.82 533.957 203.608 519.637 187.513C505.317 171.419 483.269 168.726 470.412 180.164C457.556 191.603 457.666 213.815 471.985 229.91C486.305 246.005 508.354 248.697 521.21 237.259Z" fill="#5EE453" stroke="white" stroke-width="5.36573"/>
<path d="M405.432 341.094L408.599 320.53L394.417 323.24L405.432 341.094Z" fill="black" stroke="black" stroke-width="5.36573" stroke-linecap="round" stroke-linejoin="round"/>
<path d="M430.326 349.508L417.064 348.848L412.208 356.876L405.419 351.073L399.878 359.232" stroke="black" stroke-width="5.36573" stroke-linecap="round" stroke-linejoin="round"/>
<path d="M419.992 252.588C421.286 261.216 412.814 268.867 402.255 258.818" stroke="black" stroke-width="5.36573" stroke-linecap="round" stroke-linejoin="round"/>
<path d="M429.977 251.74C430.236 260.461 439.933 266.486 448.539 254.721" stroke="black" stroke-width="5.36573" stroke-linecap="round" stroke-linejoin="round"/>
<ellipse cx="5.30047" cy="5.38202" rx="5.30047" ry="5.38202" transform="matrix(-0.982225 0.187709 0.187709 0.982225 407.779 277.708)" fill="white"/>
<ellipse cx="5.69123" cy="5.77879" rx="5.69123" ry="5.77879" transform="matrix(-0.982225 0.187709 0.187709 0.982225 479.863 275.843)" fill="white"/>
<path d="M84.0023 329.499L74.6819 313.531L78.1615 311.5L81.8062 317.744L88.0264 314.113L84.3817 307.869L87.8612 305.838L97.1816 321.806L93.7021 323.837L89.9322 317.378L83.712 321.009L87.4819 327.468L84.0023 329.499ZM99.2103 320.622L96.0147 300.695L98.2311 299.402L114.01 311.983L110.34 314.125L107.791 312.002L102.286 315.216L102.904 318.465L99.2103 320.622ZM101.605 311.587L104.966 309.626L100.557 305.904L101.605 311.587ZM116.027 310.806L106.707 294.838L110.186 292.807L117.601 305.51L122.963 302.38L115.548 289.677L119.028 287.646L126.442 300.349L131.829 297.205L124.414 284.502L127.893 282.471L137.214 298.439L116.027 310.806ZM140.957 296.637L131.47 280.384L134.949 278.353L140.625 288.076L143.505 272.975L145.316 271.918L154.804 288.171L151.324 290.202L145.648 280.479L142.768 295.58L140.957 296.637ZM161.834 284.068L162.818 272.342L152.776 267.947L156.78 265.61L166.077 269.769L161.904 262.619L165.383 260.588L169.557 267.738L170.507 257.597L174.487 255.274L173.4 266.165L184.094 271.075L179.899 273.523L170.336 269.072L174.704 276.556L171.224 278.587L166.856 271.103L166.005 281.633L161.834 284.068ZM186.038 270.323L176.551 254.069L180.03 252.038L185.706 261.762L188.586 246.661L190.397 245.604L199.885 261.857L196.405 263.888L190.729 254.165L187.85 269.266L186.038 270.323ZM203.466 259.767L194.146 243.799L198.793 241.086C202.058 239.181 205.497 239.762 206.985 242.312C207.75 243.623 207.761 245.118 207.086 246.535C208.971 246.425 210.631 247.245 211.55 248.818C213.108 251.487 211.879 254.856 208.543 256.804L203.466 259.767ZM205.276 254.876L206.754 254.013C208.208 253.165 208.682 251.897 207.987 250.706C207.305 249.538 206.006 249.338 204.528 250.2L203.051 251.063L205.276 254.876ZM201.381 248.203L202.549 247.521C203.812 246.784 204.229 245.582 203.589 244.486C202.949 243.389 201.726 243.209 200.462 243.946L199.295 244.628L201.381 248.203ZM224.499 247.937C219.804 250.678 214.139 249.128 211.398 244.433C208.644 239.714 210.094 234.043 214.789 231.302C219.46 228.576 225.136 230.088 227.89 234.806C230.63 239.501 229.17 245.211 224.499 247.937ZM222.524 244.553C225.169 243.009 225.861 239.761 224.22 236.949C222.592 234.16 219.41 233.142 216.764 234.686C214.119 236.231 213.441 239.502 215.068 242.291C216.696 245.079 219.878 246.097 222.524 244.553ZM237.082 240.145L229.667 227.443L225.02 230.155L223.114 226.89L235.888 219.434L237.794 222.699L233.147 225.412L240.561 238.114L237.082 240.145ZM247.477 234.078L238.156 218.11L241.636 216.079L245.281 222.323L251.501 218.692L247.856 212.448L251.336 210.417L260.656 226.385L257.177 228.416L253.407 221.957L247.186 225.588L250.956 232.047L247.477 234.078ZM264.234 224.296L254.913 208.329L258.393 206.298L261.384 211.422L262.599 210.712C266.031 208.709 269.873 209.598 271.695 212.72C273.504 215.818 272.385 219.539 269.048 221.486L264.234 224.296ZM265.808 219L267.023 218.291C268.477 217.442 268.967 216.038 268.202 214.727C267.437 213.416 265.959 213.129 264.505 213.977L263.29 214.687L265.808 219ZM276.555 217.104L267.235 201.137L270.714 199.106L280.035 215.073L276.555 217.104ZM283.621 212.98L274.3 197.012L283.428 191.684L285.334 194.95L279.686 198.246L281.397 201.178L285.52 198.771L287.426 202.036L283.303 204.443L285.195 207.684L290.962 204.318L292.868 207.583L283.621 212.98ZM114.392 353.444L105.072 337.476L114.39 332.037L116.143 335.04L110.304 338.448L111.876 341.141L113.306 340.306C116.69 338.331 120.411 339.067 122.136 342.022C123.875 345.001 122.71 348.589 119.326 350.564L114.392 353.444ZM116.036 348.267L117.346 347.502C118.824 346.639 119.38 345.292 118.67 344.077C117.961 342.862 116.501 342.659 115.023 343.522L113.712 344.287L116.036 348.267ZM135.378 341.641C130.684 344.382 125.018 342.832 122.278 338.137C119.523 333.418 120.974 327.747 125.669 325.006C130.34 322.28 136.015 323.792 138.769 328.511C141.51 333.206 140.05 338.915 135.378 341.641ZM133.403 338.257C136.048 336.713 136.741 333.465 135.099 330.653C133.472 327.865 130.289 326.847 127.644 328.391C124.999 329.935 124.32 333.206 125.948 335.995C127.575 338.783 130.758 339.801 133.403 338.257ZM144.972 335.594L144.646 327.317C142.477 327.433 140.482 326.425 139.328 324.446C137.561 321.42 138.702 317.846 142.039 315.898L147.139 312.921L156.459 328.889L152.98 330.92L149.711 325.32L148.471 326.043L148.833 333.341L144.972 335.594ZM146.472 323.056L147.902 322.221L145.468 318.051L144.038 318.885C142.56 319.748 142.056 321.128 142.793 322.392C143.545 323.679 144.995 323.918 146.472 323.056ZM163.369 324.856L155.954 312.154L151.307 314.866L149.401 311.601L162.175 304.145L164.081 307.41L159.433 310.122L166.848 322.825L163.369 324.856ZM179.879 315.666C175.112 318.448 169.526 316.98 166.744 312.214C163.976 307.471 165.45 301.786 170.145 299.045C172.6 297.612 175.401 297.32 177.979 298.179L176.925 301.957C175.394 301.413 173.693 301.511 172.216 302.374C169.475 303.974 168.745 307.211 170.387 310.024C172.056 312.884 175.258 313.826 178.07 312.185C179.596 311.294 180.503 309.838 180.759 308.251L184.539 309.144C184.057 311.822 182.477 314.15 179.879 315.666ZM187.191 310.951L186.865 302.674C184.695 302.79 182.701 301.781 181.546 299.803C179.78 296.777 180.921 293.203 184.257 291.255L189.357 288.278L198.678 304.246L195.198 306.277L191.929 300.676L190.69 301.4L191.051 308.697L187.191 310.951ZM188.691 298.413L190.121 297.578L187.686 293.408L186.256 294.242C184.779 295.105 184.275 296.485 185.012 297.748C185.763 299.035 187.213 299.275 188.691 298.413ZM214.975 295.181C210.28 297.921 204.614 296.371 201.874 291.676C199.119 286.958 200.57 281.286 205.265 278.546C209.936 275.819 215.611 277.331 218.366 282.05C221.106 286.745 219.646 292.454 214.975 295.181ZM212.999 291.797C215.645 290.252 216.337 287.005 214.695 284.192C213.068 281.404 209.885 280.386 207.24 281.93C204.595 283.474 203.916 286.746 205.544 289.534C207.171 292.323 210.354 293.341 212.999 291.797ZM233.176 284.557C228.409 287.339 222.823 285.87 220.041 281.104C217.273 276.361 218.747 270.676 223.442 267.936C225.897 266.503 228.697 266.21 231.276 267.069L230.222 270.848C228.691 270.304 226.99 270.402 225.513 271.264C222.772 272.864 222.042 276.102 223.683 278.914C225.353 281.774 228.555 282.717 231.367 281.075C232.892 280.185 233.8 278.728 234.056 277.141L237.836 278.034C237.354 280.712 235.773 283.04 233.176 284.557ZM244.175 277.689L236.76 264.986L232.113 267.699L230.207 264.434L242.981 256.978L244.887 260.243L240.24 262.955L247.654 275.658L244.175 277.689ZM254.57 271.621L245.249 255.654L250.087 252.83C253.519 250.827 257.333 251.668 259.156 254.79C260.964 257.888 259.845 261.609 256.508 263.556L255.031 264.419L258.049 269.59L254.57 271.621ZM253.125 261.154L254.483 260.361C255.937 259.512 256.455 258.155 255.676 256.821C254.925 255.534 253.447 255.246 251.993 256.095L250.635 256.888L253.125 261.154ZM268.069 263.742L258.748 247.774L262.228 245.743L265.219 250.867L266.434 250.158C269.866 248.155 273.708 249.044 275.53 252.166C277.338 255.264 276.219 258.985 272.883 260.932L268.069 263.742ZM269.642 258.446L270.858 257.737C272.311 256.888 272.802 255.484 272.037 254.173C271.271 252.862 269.794 252.574 268.34 253.423L267.124 254.132L269.642 258.446ZM280.39 256.55L271.069 240.582L274.549 238.551L283.869 254.519L280.39 256.55ZM286.026 253.26L285.963 242.753L276.92 237.168L280.9 234.845L286.705 238.549L286.405 231.631L290.194 229.419L290.344 239.748L299.61 245.331L295.63 247.654L289.589 243.928L289.815 251.049L286.026 253.26ZM158.339 369.476L149.019 353.508L161.912 345.982L171.232 361.95L167.753 363.981L160.338 351.278L154.404 354.742L161.819 367.445L158.339 369.476ZM174.817 359.858L165.497 343.89L170.335 341.066C173.766 339.063 177.58 339.904 179.403 343.026C181.211 346.124 180.092 349.845 176.755 351.793L175.278 352.655L178.296 357.827L174.817 359.858ZM173.372 349.39L174.73 348.597C176.184 347.749 176.702 346.392 175.923 345.057C175.172 343.77 173.694 343.483 172.24 344.331L170.882 345.124L173.372 349.39ZM188.316 351.978L178.995 336.011L188.123 330.683L190.029 333.948L184.381 337.245L186.092 340.176L190.215 337.77L192.121 341.035L187.998 343.441L189.889 346.682L195.657 343.316L197.563 346.581L188.316 351.978ZM201.302 349.446L197.199 342.416C198.795 341.484 198.699 338.856 196.279 334.709L192.453 328.155L203.893 321.478L211.307 334.181L213.476 332.915L217.58 339.945L214.1 341.976L211.902 338.211L202.584 343.65L204.782 347.415L201.302 349.446ZM201.989 339.62L207.828 336.212L202.319 326.774L197.839 329.389L199.744 332.654C201.372 335.443 202.06 337.661 201.989 339.62ZM217.641 334.861L208.153 318.608L209.941 317.564L221.568 322.376L223.025 309.927L224.812 308.884L234.299 325.137L230.82 327.168L225.631 318.279L224.674 326.219L223.292 327.026L215.945 323.965L221.12 332.83L217.641 334.861ZM237.865 323.056L228.545 307.088L237.673 301.76L239.579 305.025L233.93 308.322L235.641 311.254L239.764 308.847L241.67 312.112L237.547 314.519L239.439 317.76L245.207 314.393L247.112 317.658L237.865 323.056ZM253.421 313.976L246.006 301.274L241.359 303.986L239.453 300.721L252.227 293.265L254.133 296.53L249.486 299.243L256.9 311.945L253.421 313.976ZM269.883 304.814C265.188 307.555 259.523 306.005 256.782 301.31C254.028 296.591 255.479 290.92 260.173 288.179C264.845 285.453 270.52 286.965 273.274 291.684C276.015 296.378 274.554 302.088 269.883 304.814ZM267.908 301.43C270.553 299.886 271.246 296.638 269.604 293.826C267.977 291.037 264.794 290.019 262.149 291.563C259.503 293.108 258.825 296.379 260.453 299.168C262.08 301.956 265.263 302.974 267.908 301.43ZM280.549 298.141L271.229 282.173L275.876 279.461C279.141 277.555 282.58 278.136 284.068 280.686C284.833 281.997 284.844 283.493 284.169 284.909C286.054 284.799 287.715 285.619 288.633 287.192C290.191 289.861 288.962 293.23 285.626 295.178L280.549 298.141ZM282.36 293.25L283.837 292.388C285.291 291.539 285.765 290.272 285.07 289.08C284.388 287.912 283.089 287.712 281.611 288.575L280.134 289.437L282.36 293.25ZM278.465 286.577L279.632 285.895C280.895 285.158 281.312 283.956 280.672 282.86C280.032 281.764 278.809 281.583 277.546 282.321L276.378 283.002L278.465 286.577Z" fill="black"/>
</svg>
