<svg width="633" height="475" viewBox="0 0 633 475" fill="none" xmlns="http://www.w3.org/2000/svg">
<rect x="65.9539" y="0.209764" width="571.774" height="390.413" rx="41.3274" transform="rotate(6.36658 65.9539 0.209764)" fill="white" stroke="black" stroke-width="5.36573"/>
<circle cx="115.124" cy="115.124" r="112.441" transform="matrix(-0.970971 0.239198 0.239198 0.970971 280.271 131.156)" fill="white"/>
<circle cx="115.124" cy="115.124" r="112.441" transform="matrix(-0.970971 0.239198 0.239198 0.970971 280.271 131.156)" fill="white"/>
<circle cx="115.124" cy="115.124" r="112.441" transform="matrix(-0.970971 0.239198 0.239198 0.970971 280.271 131.156)" stroke="black" stroke-width="5.36573"/>
<path d="M228.883 209.15C207.82 202.709 196.269 176.918 204.234 150.868C212.199 124.818 236.199 109.897 257.261 116.337C278.324 122.778 289.875 148.569 281.91 174.619C273.945 200.669 249.946 215.59 228.883 209.15Z" fill="#5EE453" stroke="white" stroke-width="5.36573"/>
<circle cx="106.292" cy="106.292" r="103.61" transform="matrix(-0.970971 0.239198 0.239198 0.970971 291.348 136.009)" fill="#5EE453" stroke="white" stroke-width="5.36573"/>
<circle cx="178.264" cy="273.339" r="48.5653" transform="rotate(-13.8392 178.264 273.339)" fill="white" stroke="white" stroke-width="5.36573"/>
<path d="M200.276 265.406C202.114 272.868 197.405 280.566 189.579 282.494C181.754 284.422 174.008 279.792 172.169 272.33C170.331 264.868 175.04 257.17 182.866 255.242C190.691 253.314 198.437 257.944 200.276 265.406Z" fill="black" stroke="white" stroke-width="5.36573"/>
<ellipse cx="282.553" cy="221.16" rx="50.4717" ry="51.2482" transform="rotate(-13.8392 282.553 221.16)" fill="white"/>
<path d="M284.083 200.669C286.011 208.494 281.381 216.24 273.919 218.078C266.457 219.917 258.759 215.208 256.831 207.382C254.903 199.557 259.533 191.81 266.995 189.972C274.457 188.134 282.155 192.843 284.083 200.669Z" fill="black" stroke="white" stroke-width="5.36573"/>
<path d="M288.166 347.949C267.103 341.508 255.552 315.717 263.517 289.667C271.482 263.617 295.481 248.696 316.544 255.136C337.607 261.577 349.158 287.368 341.193 313.418C333.228 339.468 309.229 354.389 288.166 347.949Z" fill="#5EE453" stroke="white" stroke-width="5.36573"/>
<path d="M94.9014 251.804C73.8385 245.364 62.2874 219.573 70.2525 193.523C78.2176 167.473 102.217 152.552 123.28 158.992C144.343 165.432 155.894 191.223 147.929 217.273C139.964 243.323 115.964 258.244 94.9014 251.804Z" fill="#5EE453" stroke="white" stroke-width="5.36573"/>
<path d="M310.83 299.455L296.482 277.706L314.038 273.381L310.83 299.455Z" fill="black" stroke="black" stroke-width="5.36573" stroke-linecap="round" stroke-linejoin="round"/>
<path d="M321.139 107.709L323.189 89.3346L327.193 89.7814L325.562 104.399L331.733 105.087L333.364 90.4699L337.368 90.9166L335.737 105.534L341.935 106.226L343.566 91.6082L347.57 92.055L345.52 110.43L321.139 107.709ZM347.853 110.69L357.18 92.794L359.73 93.0786L364.884 112.59L360.66 112.119L359.882 108.895L353.546 108.188L352.104 111.164L347.853 110.69ZM355.166 104.87L359.033 105.301L357.716 99.6844L355.166 104.87ZM367.204 112.849L369.255 94.4745L374.822 95.0957C378.771 95.5363 381.33 98.4873 380.929 102.08C380.531 105.645 377.412 107.963 373.573 107.534L371.873 107.345L371.208 113.296L367.204 112.849ZM372.292 103.588L373.855 103.762C375.528 103.949 376.753 103.169 376.925 101.633C377.09 100.152 376.076 99.0395 374.403 98.8529L372.839 98.6785L372.292 103.588ZM391.087 115.903C385.685 115.3 382.063 110.675 382.666 105.273C383.272 99.8425 387.821 96.1573 393.223 96.7601C398.599 97.3599 402.25 101.96 401.644 107.39C401.042 112.793 396.463 116.503 391.087 115.903ZM391.522 112.008C394.566 112.348 397.06 110.155 397.421 106.919C397.779 103.71 395.833 100.994 392.789 100.654C389.745 100.315 387.248 102.535 386.89 105.744C386.532 108.953 388.478 111.669 391.522 112.008ZM407.396 117.722C404.489 117.398 402.284 115.764 401.392 113.304L404.644 111.529C405.204 113.23 406.155 114.169 407.581 114.328C409.199 114.508 410.437 113.619 410.59 112.248C410.758 110.739 409.57 109.691 407.513 109.461L405.785 109.268L406.14 106.087L407.621 106.252C409.459 106.457 410.708 105.708 410.867 104.282C411.008 103.021 410.116 102.06 408.717 101.904C407.565 101.776 406.678 102.26 405.742 103.433L403.47 100.902C405.025 99.1598 407.256 98.3258 409.669 98.5951C413.015 98.9684 415.245 101.383 414.917 104.317C414.725 106.045 413.743 107.38 412.21 108.18C413.888 109.312 414.783 110.994 414.563 112.969C414.208 116.15 411.181 118.145 407.396 117.722ZM417.153 118.422L419.203 100.048L424.551 100.644C428.309 101.064 430.721 103.582 430.394 106.516C430.225 108.025 429.341 109.231 427.954 109.965C429.532 111.002 430.375 112.651 430.174 114.461C429.831 117.532 426.834 119.503 422.995 119.074L417.153 118.422ZM421.525 115.578L423.225 115.768C424.898 115.955 426.035 115.221 426.188 113.849C426.338 112.506 425.415 111.57 423.714 111.38L422.014 111.19L421.525 115.578ZM422.381 107.899L423.725 108.049C425.179 108.211 426.23 107.496 426.371 106.234C426.512 104.973 425.638 104.098 424.184 103.935L422.84 103.785L422.381 107.899ZM432.741 120.162L434.791 101.787L445.295 102.959L444.875 106.716L438.376 105.991L437.999 109.364L442.744 109.893L442.325 113.651L437.58 113.121L437.164 116.851L443.801 117.592L443.381 121.349L432.741 120.162ZM446.801 121.73L448.851 103.356L454.419 103.977C458.368 104.417 460.926 107.369 460.525 110.961C460.128 114.526 457.009 116.844 453.17 116.416L451.469 116.226L450.805 122.177L446.801 121.73ZM451.888 112.469L453.452 112.643C455.125 112.83 456.35 112.05 456.521 110.514C456.687 109.034 455.672 107.921 453.999 107.734L452.436 107.56L451.888 112.469ZM462.335 123.464L464.385 105.089L468.389 105.536L467.731 111.432L469.294 111.606C473.244 112.047 475.796 115.053 475.395 118.646C474.997 122.211 471.879 124.529 468.039 124.1L462.335 123.464ZM466.758 120.153L468.321 120.328C469.994 120.514 471.226 119.68 471.394 118.171C471.562 116.663 470.548 115.55 468.875 115.364L467.312 115.189L466.758 120.153ZM483.6 125.836L485.687 107.132L487.744 107.362L494.202 118.162L502.8 109.042L504.857 109.271L502.77 127.975L498.766 127.529L499.907 117.299L494.401 123.099L492.81 122.921L488.742 116.081L487.604 126.283L483.6 125.836ZM515.223 129.753C509.82 129.151 506.199 124.526 506.802 119.123C507.408 113.693 511.956 110.008 517.359 110.611C522.734 111.211 526.386 115.811 525.78 121.241C525.177 126.644 520.598 130.353 515.223 129.753ZM515.657 125.859C518.702 126.199 521.195 124.006 521.556 120.77C521.915 117.561 519.968 114.845 516.924 114.505C513.88 114.166 511.383 116.386 511.025 119.595C510.667 122.803 512.613 125.519 515.657 125.859ZM524.877 130.442L532.664 121.62L527.229 112.101L531.836 112.615L536.814 121.5L537.732 113.273L541.736 113.72L540.818 121.947L547.633 114.377L552.213 114.888L544.84 122.979L550.492 133.3L545.665 132.761L540.647 123.483L539.686 132.094L535.682 131.648L536.643 123.036L529.676 130.977L524.877 130.442ZM552.537 133.528L554.588 115.153L565.091 116.325L564.672 120.083L558.172 119.357L557.796 122.731L562.541 123.26L562.121 127.017L557.377 126.488L556.961 130.218L563.598 130.958L563.178 134.715L552.537 133.528ZM570.438 135.525L572.069 120.908L566.721 120.311L567.14 116.554L581.84 118.194L581.42 121.951L576.073 121.355L574.442 135.972L570.438 135.525ZM342.632 146.581C342.084 146.52 341.541 146.404 341.166 146.278L341.601 142.384C341.784 142.488 342.162 142.585 342.463 142.619C343.67 142.754 344.408 141.864 344.591 140.219L345.944 128.097L359.3 129.587L357.25 147.962L353.246 147.515L354.877 132.898L349.529 132.301L348.596 140.666C348.115 144.971 346.06 146.963 342.632 146.581ZM369.7 149.74C364.298 149.137 360.676 144.512 361.279 139.11C361.885 133.68 366.433 129.994 371.836 130.597C377.211 131.197 380.863 135.797 380.257 141.227C379.654 146.63 375.076 150.34 369.7 149.74ZM370.135 145.845C373.179 146.185 375.673 143.992 376.034 140.756C376.392 137.547 374.446 134.831 371.402 134.492C368.357 134.152 365.861 136.372 365.503 139.581C365.145 142.79 367.091 145.506 370.135 145.845ZM382.241 150.75L384.291 132.376L399.128 134.031L397.078 152.406L393.074 151.959L394.705 137.342L387.876 136.58L386.245 151.197L382.241 150.75ZM401.203 152.866L403.253 134.491L407.257 134.938L406.456 142.123L413.613 142.922L414.415 135.737L418.419 136.184L416.369 154.558L412.365 154.112L413.194 146.679L406.036 145.881L405.207 153.313L401.203 152.866ZM421.995 155.186L424.617 150.592L420.48 136.413L424.785 136.894L427.347 145.787L431.943 137.692L436.084 138.155L426.108 155.645L421.995 155.186ZM439.94 157.188L441.571 142.571L436.223 141.974L436.642 138.217L451.342 139.857L450.923 143.614L445.575 143.017L443.944 157.635L439.94 157.188ZM451.902 158.523L453.952 140.148L457.956 140.595L457.298 146.491L458.861 146.666C462.811 147.106 465.363 150.112 464.962 153.705C464.564 157.27 461.446 159.588 457.606 159.159L451.902 158.523ZM456.325 155.212L457.888 155.387C459.561 155.574 460.793 154.739 460.961 153.231C461.129 151.722 460.115 150.61 458.442 150.423L456.879 150.249L456.325 155.212ZM467.727 164.676L465.652 163.611L468.291 156.631L471.685 158.315L467.727 164.676ZM480.746 161.741L482.796 143.367L493.3 144.539L492.881 148.296L486.381 147.571L486.005 150.944L490.749 151.473L490.33 155.23L485.586 154.701L485.169 158.431L491.806 159.171L491.387 162.929L480.746 161.741ZM503.211 164.637C497.726 164.025 494.12 159.513 494.732 154.028C495.341 148.57 499.917 144.888 505.319 145.491C508.144 145.806 510.566 147.243 512.122 149.471L509.022 151.874C508.118 150.523 506.695 149.587 504.995 149.397C501.841 149.046 499.323 151.208 498.961 154.444C498.594 157.735 500.601 160.403 503.837 160.764C505.593 160.96 507.19 160.332 508.342 159.212L510.843 162.184C508.858 164.045 506.2 164.97 503.211 164.637ZM513.208 165.613C512.66 165.552 512.117 165.436 511.742 165.311L512.177 161.417C512.36 161.52 512.738 161.618 513.039 161.652C514.246 161.786 514.984 160.897 515.167 159.251L516.52 147.129L529.876 148.62L527.826 166.994L523.822 166.548L525.453 151.93L520.105 151.333L519.171 159.698C518.691 164.004 516.636 165.996 513.208 165.613ZM531.89 167.781L533.977 149.077L537.981 149.524L536.733 160.713L548.056 150.315L550.14 150.547L548.053 169.251L544.049 168.804L545.297 157.615L533.975 168.014L531.89 167.781ZM327.893 181.298C322.408 180.686 318.802 176.175 319.414 170.69C320.023 165.232 324.599 161.55 330.002 162.153C332.826 162.468 335.248 163.904 336.804 166.133L333.704 168.536C332.8 167.185 331.377 166.249 329.677 166.059C326.523 165.707 324.005 167.87 323.644 171.106C323.276 174.397 325.283 177.064 328.52 177.426C330.275 177.621 331.872 176.994 333.024 175.873L335.525 178.846C333.54 180.707 330.882 181.632 327.893 181.298ZM337.771 182.345L339.858 163.641L343.862 164.088L342.614 175.277L353.937 164.879L356.021 165.111L353.934 183.815L349.93 183.369L351.178 172.179L339.856 182.578L337.771 182.345ZM358.138 184.534C357.589 184.473 357.047 184.357 356.672 184.232L357.106 180.338C357.289 180.441 357.667 180.539 357.969 180.573C359.175 180.707 359.913 179.818 360.097 178.172L361.449 166.05L374.805 167.541L372.755 185.915L368.751 185.469L370.382 170.851L365.034 170.254L364.101 178.619C363.621 182.925 361.566 184.917 358.138 184.534ZM376.857 186.373L378.907 167.998L382.911 168.445L382.253 174.341L383.816 174.516C387.765 174.956 390.318 177.962 389.917 181.555C389.519 185.12 386.4 187.438 382.561 187.009L376.857 186.373ZM381.28 183.063L382.843 183.237C384.516 183.424 385.747 182.589 385.916 181.081C386.084 179.572 385.07 178.46 383.397 178.273L381.834 178.099L381.28 183.063ZM392.096 188.073L394.146 169.699L398.15 170.145L397.348 177.331L404.506 178.129L405.308 170.944L409.312 171.391L407.262 189.765L403.258 189.319L404.087 181.887L396.929 181.088L396.1 188.52L392.096 188.073ZM419.728 191.545C414.325 190.942 410.704 186.318 411.307 180.915C411.913 175.485 416.461 171.8 421.864 172.403C427.239 173.002 430.891 177.602 430.285 183.033C429.682 188.435 425.103 192.145 419.728 191.545ZM420.163 187.651C423.207 187.991 425.7 185.798 426.062 182.561C426.42 179.353 424.474 176.637 421.429 176.297C418.385 175.957 415.888 178.178 415.53 181.386C415.172 184.595 417.118 187.311 420.163 187.651ZM438.295 193.228L440.345 174.853L455.182 176.509L453.132 194.884L449.128 194.437L450.759 179.819L443.93 179.057L442.299 193.675L438.295 193.228ZM457.257 195.344L459.307 176.969L469.811 178.141L469.391 181.898L462.892 181.173L462.515 184.546L467.26 185.076L466.841 188.833L462.096 188.304L461.68 192.033L468.317 192.774L467.898 196.531L457.257 195.344ZM471.317 196.913L473.368 178.538L478.935 179.159C482.884 179.6 485.443 182.551 485.042 186.143C484.644 189.709 481.525 192.026 477.686 191.598L475.985 191.408L475.321 197.359L471.317 196.913ZM476.405 187.651L477.968 187.825C479.641 188.012 480.866 187.232 481.038 185.697C481.203 184.216 480.189 183.103 478.516 182.916L476.952 182.742L476.405 187.651ZM486.851 198.646L488.901 180.271L499.405 181.443L498.986 185.2L492.486 184.475L492.11 187.848L496.854 188.378L496.435 192.135L491.691 191.606L491.274 195.335L497.911 196.076L497.492 199.833L486.851 198.646ZM498.783 204.364L499.685 196.274C501.523 196.479 503.014 194.313 503.547 189.541L504.388 181.999L517.552 183.468L515.921 198.085L518.417 198.364L517.514 206.454L513.51 206.008L513.993 201.674L503.27 200.478L502.787 204.811L498.783 204.364ZM505.198 196.889L511.917 197.639L513.129 186.778L507.973 186.203L507.554 189.96C507.196 193.169 506.424 195.36 505.198 196.889ZM522.105 202.579L524.728 197.985L520.59 183.807L524.896 184.287L527.458 193.181L532.054 185.086L536.195 185.548L526.219 203.038L522.105 202.579ZM540.05 204.582L541.681 189.964L536.333 189.367L536.753 185.61L551.452 187.25L551.033 191.008L545.685 190.411L544.054 205.028L540.05 204.582ZM552.012 205.916L554.062 187.542L558.066 187.988L557.409 193.885L558.972 194.059C562.921 194.5 565.473 197.506 565.072 201.098C564.675 204.664 561.556 206.981 557.717 206.553L552.012 205.916ZM556.436 202.606L557.999 202.78C559.672 202.967 560.903 202.133 561.071 200.624C561.24 199.116 560.226 198.003 558.553 197.816L556.989 197.642L556.436 202.606Z" fill="black"/>
</svg>
