<svg width="656" height="537" viewBox="0 0 656 537" fill="none" xmlns="http://www.w3.org/2000/svg">
<rect x="113.079" y="-2.70691" width="571.774" height="390.413" rx="41.3274" transform="rotate(17.2982 113.079 -2.70691)" fill="white" stroke="black" stroke-width="5.36573"/>
<path d="M157.543 93.8631L163.04 76.2106L166.887 77.4086L164.737 84.3115L171.614 86.4531L173.764 79.5501L177.61 80.7481L172.113 98.4006L168.266 97.2027L170.49 90.0626L163.613 87.921L161.389 95.0611L157.543 93.8631ZM176.068 99.6325L181.566 81.9799L191.657 85.1226L190.532 88.7321L184.288 86.7875L183.279 90.0281L187.837 91.4477L186.713 95.0572L182.155 93.6377L181.039 97.2209L187.415 99.2066L186.291 102.816L176.068 99.6325ZM199.966 107.48C197.174 106.61 195.318 104.587 194.909 102.003L198.439 100.877C198.666 102.653 199.421 103.755 200.791 104.182C202.346 104.666 203.73 104.027 204.14 102.71C204.591 101.261 203.624 100.006 201.648 99.3904L199.988 98.8735L200.94 95.8172L202.362 96.2603C204.128 96.8101 205.497 96.3116 205.923 94.9415C206.301 93.7296 205.607 92.6174 204.263 92.199C203.156 91.8543 202.194 92.1615 201.052 93.1355L199.301 90.2201C201.158 88.8042 203.507 88.4085 205.825 89.1306C209.04 90.1316 210.771 92.9252 209.893 95.7443C209.376 97.4042 208.159 98.5281 206.502 99.0235C207.935 100.453 208.495 102.274 207.904 104.171C206.953 107.228 203.602 108.612 199.966 107.48ZM207.701 109.484L220.253 93.6814L222.703 94.4445L224.063 114.579L220.005 113.316L219.852 110.002L213.766 108.107L211.785 110.756L207.701 109.484ZM215.985 105.156L219.7 106.313L219.472 100.548L215.985 105.156ZM226.292 115.274L231.79 97.6213L242.091 100.83L241.058 104.149L234.602 102.139L233.675 105.116L235.256 105.608C238.997 106.774 240.964 110.016 239.947 113.283C238.921 116.577 235.487 118.137 231.746 116.972L226.292 115.274ZM231.222 112.994L232.671 113.445C234.305 113.954 235.674 113.455 236.092 112.112C236.511 110.768 235.675 109.554 234.041 109.045L232.592 108.594L231.222 112.994ZM241.215 119.921L246.713 102.269L250.559 103.467L248.795 109.131L250.139 109.55C253.933 110.731 255.869 114.167 254.794 117.618C253.727 121.043 250.226 122.728 246.537 121.579L241.215 119.921ZM246.186 117.51L247.53 117.928C249.137 118.429 250.504 117.843 250.956 116.394C251.407 114.945 250.622 113.66 249.015 113.159L247.671 112.741L246.186 117.51ZM254.837 124.163L260.334 106.511L264.181 107.709L258.683 125.361L254.837 124.163ZM262.648 126.596L268.146 108.944L273.283 110.544C276.893 111.668 278.784 114.598 277.906 117.417C277.455 118.866 276.358 119.883 274.857 120.34C276.209 121.657 276.725 123.437 276.183 125.175C275.264 128.126 271.949 129.493 268.26 128.344L262.648 126.596ZM267.479 124.632L269.113 125.141C270.72 125.642 271.976 125.137 272.386 123.819C272.788 122.528 272.059 121.434 270.426 120.926L268.792 120.417L267.479 124.632ZM269.777 117.255L271.068 117.657C272.464 118.092 273.632 117.589 274.01 116.377C274.387 115.165 273.695 114.14 272.299 113.705L271.008 113.303L269.777 117.255ZM275.91 130.726L288.462 114.924L290.912 115.687L292.272 135.822L288.214 134.558L288.061 131.245L281.975 129.349L279.994 131.998L275.91 130.726ZM284.194 126.399L287.909 127.556L287.681 121.791L284.194 126.399ZM294.403 136.832L299.999 118.864L303.845 120.062L300.498 130.811L313.587 122.749L315.589 123.372L309.993 141.341L306.147 140.143L309.494 129.393L296.405 137.456L294.403 136.832ZM308.328 119.868C305.877 119.105 304.761 116.936 305.532 114.46L308.272 115.313C307.952 116.341 308.282 117.137 309.099 117.391C309.889 117.637 310.613 117.169 310.933 116.142L313.673 116.995C312.902 119.472 310.725 120.615 308.328 119.868ZM317.641 143.723L322.015 129.68L316.877 128.08L318.001 124.47L332.123 128.868L330.999 132.478L325.861 130.878L321.488 144.921L317.641 143.723ZM329.133 147.302L334.631 129.649L344.722 132.792L343.597 136.401L337.353 134.457L336.344 137.697L340.902 139.117L339.778 142.726L335.22 141.307L334.104 144.89L340.48 146.876L339.356 150.485L329.133 147.302ZM147.43 128.419L152.928 110.767L167.181 115.206L161.684 132.858L157.837 131.66L162.211 117.617L155.65 115.574L151.277 129.617L147.43 128.419ZM173.594 136.972C168.404 135.356 165.725 130.128 167.342 124.938C168.966 119.721 174.131 116.965 179.321 118.582C184.485 120.19 187.198 125.399 185.574 130.616C183.957 135.806 178.758 138.58 173.594 136.972ZM174.759 133.231C177.684 134.142 180.548 132.461 181.516 129.352C182.476 126.27 181.081 123.234 178.156 122.323C175.232 121.412 172.359 123.119 171.399 126.201C170.439 129.284 171.835 132.32 174.759 133.231ZM182.838 144.013L185.259 136.241C187.024 136.79 188.899 134.946 190.327 130.362L192.583 123.117L205.23 127.055L200.856 141.098L203.254 141.845L200.834 149.617L196.987 148.419L198.283 144.256L187.982 141.048L186.685 145.211L182.838 144.013ZM190.555 137.89L197.01 139.9L200.259 129.467L195.306 127.924L194.182 131.534C193.222 134.616 192.048 136.621 190.555 137.89ZM204.627 146.232L210.124 128.579L213.971 129.777L211.501 137.708L219.451 131.484L223.878 132.863L215.332 139.421L218.723 150.622L214.112 149.186L211.075 139.078L208.474 147.43L204.627 146.232ZM218.867 150.667L231.418 134.864L233.869 135.627L235.228 155.762L231.171 154.499L231.018 151.185L224.932 149.289L222.95 151.939L218.867 150.667ZM227.151 146.339L230.866 147.496L230.638 141.731L227.151 146.339ZM244.524 158.657L246.296 152.966C245.337 152.985 244.505 152.871 243.662 152.608C239.868 151.427 238.171 148.152 239.336 144.411L241.248 138.272L245.095 139.47L243.207 145.53C242.69 147.19 243.39 148.564 245.234 149.138C245.787 149.31 246.515 149.479 247.396 149.436L250.022 141.005L253.868 142.203L248.371 159.855L244.524 158.657ZM252.231 161.404L257.827 143.436L261.674 144.633L258.326 155.383L271.415 147.32L273.418 147.944L267.822 165.913L263.975 164.715L267.323 153.965L254.233 162.028L252.231 161.404ZM271.781 167.146L277.279 149.493L282.416 151.093C286.026 152.217 287.917 155.147 287.039 157.967C286.588 159.416 285.491 160.432 283.99 160.89C285.343 162.207 285.858 163.986 285.316 165.725C284.397 168.676 281.082 170.042 277.393 168.894L271.781 167.146ZM276.612 165.182L278.246 165.691C279.853 166.191 281.109 165.686 281.519 164.369C281.921 163.078 281.192 161.984 279.559 161.475L277.925 160.967L276.612 165.182ZM278.91 157.805L280.201 158.207C281.597 158.642 282.766 158.139 283.143 156.927C283.52 155.715 282.828 154.69 281.432 154.255L280.141 153.853L278.91 157.805ZM285.043 171.276L297.595 155.474L300.045 156.237L301.405 176.372L297.347 175.108L297.194 171.794L291.108 169.899L289.127 172.548L285.043 171.276ZM293.327 166.948L297.042 168.105L296.815 162.341L293.327 166.948ZM305.213 177.558L309.586 163.515L304.449 161.915L305.573 158.305L319.695 162.703L318.571 166.313L313.433 164.713L309.06 178.756L305.213 177.558ZM316.705 181.136L322.202 163.484L326.049 164.682L324.285 170.347L325.787 170.814C329.581 171.996 331.517 175.431 330.442 178.883C329.375 182.308 325.874 183.992 322.185 182.843L316.705 181.136ZM321.676 178.725L323.177 179.193C324.785 179.693 326.152 179.107 326.603 177.658C327.055 176.209 326.27 174.924 324.663 174.424L323.161 173.956L321.676 178.725ZM158.995 169.726L164.492 152.074L169.63 153.674C173.239 154.798 175.13 157.728 174.253 160.547C173.801 161.996 172.704 163.013 171.203 163.47C172.556 164.787 173.071 166.567 172.53 168.305C171.611 171.256 168.295 172.623 164.607 171.474L158.995 169.726ZM163.826 167.762L165.459 168.271C167.067 168.772 168.322 168.267 168.732 166.949C169.135 165.658 168.406 164.564 166.772 164.056L165.139 163.547L163.826 167.762ZM166.123 160.385L167.414 160.787C168.811 161.222 169.979 160.719 170.357 159.507C170.734 158.295 170.042 157.27 168.645 156.835L167.354 156.433L166.123 160.385ZM181.917 177.269C176.726 175.653 174.048 170.426 175.664 165.235C177.289 160.018 182.454 157.263 187.644 158.879C192.808 160.487 195.521 165.697 193.896 170.913C192.28 176.104 187.081 178.878 181.917 177.269ZM183.082 173.528C186.006 174.439 188.871 172.759 189.839 169.65C190.799 166.567 189.403 163.531 186.479 162.62C183.554 161.71 180.682 163.416 179.722 166.499C178.762 169.581 180.157 172.617 183.082 173.528ZM197.585 182.149C194.792 181.279 192.936 179.256 192.527 176.672L196.057 175.546C196.284 177.322 197.039 178.424 198.409 178.851C199.964 179.335 201.348 178.696 201.758 177.379C202.209 175.93 201.242 174.675 199.266 174.059L197.606 173.543L198.558 170.486L199.98 170.929C201.746 171.479 203.115 170.981 203.542 169.611C203.919 168.399 203.225 167.286 201.881 166.868C200.775 166.523 199.812 166.831 198.67 167.805L196.919 164.889C198.776 163.473 201.125 163.078 203.444 163.8C206.658 164.801 208.389 167.594 207.511 170.413C206.994 172.073 205.777 173.197 204.12 173.693C205.554 175.122 206.113 176.944 205.523 178.84C204.571 181.897 201.221 183.281 197.585 182.149ZM204.154 188.357L206.575 180.584C208.34 181.134 210.215 179.29 211.643 174.706L213.899 167.46L226.546 171.399L222.172 185.442L224.57 186.189L222.15 193.961L218.303 192.763L219.599 188.6L209.298 185.392L208.001 189.555L204.154 188.357ZM211.871 182.234L218.326 184.244L221.575 173.811L216.622 172.268L215.498 175.878C214.538 178.96 213.364 180.965 211.871 182.234ZM227.392 191.027L230.839 187.014L229.464 172.308L233.601 173.596L234.43 182.814L240.478 175.738L244.456 176.977L231.344 192.258L227.392 191.027ZM239.362 194.755L247.076 187.62L245.097 177.176L249.497 178.547L250.679 185.331L255.583 180.442L259.772 181.747L252.25 188.826L254.38 199.432L249.98 198.062L248.655 191.088L243.552 196.06L239.362 194.755ZM263.891 202.799C258.701 201.182 256.022 195.955 257.638 190.764C259.263 185.548 264.428 182.792 269.618 184.408C274.782 186.017 277.495 191.226 275.871 196.443C274.254 201.633 269.055 204.407 263.891 202.799ZM265.056 199.057C267.981 199.968 270.845 198.288 271.813 195.179C272.773 192.096 271.378 189.06 268.453 188.15C265.529 187.239 262.656 188.946 261.696 192.028C260.736 195.111 262.132 198.147 265.056 199.057ZM276.013 206.169L281.609 188.2L283.585 188.816L287.878 200.644L298.049 193.32L300.025 193.936L294.429 211.905L290.583 210.707L293.643 200.879L287.137 205.529L285.609 205.054L282.912 197.566L279.859 207.367L276.013 206.169ZM153.282 205.652L158.779 188L173.033 192.439L167.536 210.091L163.689 208.893L168.062 194.85L161.502 192.807L157.128 206.85L153.282 205.652ZM171.4 211.642L176.996 193.673L180.843 194.871L177.495 205.621L190.584 197.558L192.586 198.182L186.99 216.15L183.144 214.952L186.491 204.203L173.402 212.265L171.4 211.642ZM194.638 218.532L199.012 204.489L193.874 202.889L194.998 199.28L209.12 203.678L207.996 207.287L202.859 205.687L198.485 219.73L194.638 218.532ZM212.508 224.502C207.318 222.885 204.639 217.658 206.256 212.468C207.88 207.251 213.045 204.495 218.235 206.112C223.399 207.72 226.112 212.929 224.488 218.146C222.871 223.336 217.672 226.11 212.508 224.502ZM213.673 220.761C216.598 221.671 219.462 219.991 220.43 216.882C221.39 213.8 219.995 210.764 217.07 209.853C214.146 208.942 211.273 210.649 210.313 213.731C209.353 216.814 210.749 219.85 213.673 220.761ZM224.63 227.872L230.226 209.904L232.202 210.519L236.495 222.348L246.666 215.024L248.642 215.639L243.046 233.608L239.2 232.41L242.26 222.582L235.754 227.233L234.226 226.757L231.529 219.269L228.477 229.07L224.63 227.872ZM258.155 242.88L259.451 238.717L246.989 234.836L252.486 217.183L256.333 218.381L251.96 232.424L258.23 234.377L262.604 220.334L266.45 221.532L262.077 235.575L264.422 236.305L262.001 244.077L258.155 242.88ZM264.085 240.16L276.636 224.357L279.086 225.12L280.446 245.255L276.389 243.992L276.236 240.678L270.149 238.783L268.168 241.432L264.085 240.16ZM272.369 235.832L276.084 236.989L275.856 231.224L272.369 235.832Z" fill="black"/>
<rect x="463.723" y="288.219" width="86.3604" height="22.7571" rx="9.30332" transform="rotate(-10.7143 463.723 288.219)" fill="black"/>
<rect x="539.559" y="280.997" width="46.6813" height="8.75274" rx="4.37637" transform="rotate(-10.7143 539.559 280.997)" fill="black"/>
<rect x="188.517" y="340.291" width="246.827" height="22.7571" rx="11.3786" transform="rotate(-10.7143 188.517 340.291)" fill="black"/>
<rect x="176.879" y="303.891" width="17.5055" height="98.6142" rx="8.75274" transform="rotate(-10.7143 176.879 303.891)" fill="black"/>
<path fill-rule="evenodd" clip-rule="evenodd" d="M244.134 291.166C236.755 292.563 231.905 299.676 233.301 307.054L246.579 377.229C247.975 384.608 255.089 389.458 262.467 388.061L509.805 341.262C517.183 339.866 522.033 332.753 520.637 325.374L519.91 321.533L526.044 320.373C533.422 318.977 538.272 311.863 536.876 304.485L530.107 268.71C528.711 261.332 521.598 256.482 514.219 257.878L508.086 259.039L507.359 255.2C505.963 247.821 498.85 242.971 491.471 244.367L244.134 291.166Z" fill="#6398FF"/>
</svg>
