<svg width="693" height="595" viewBox="0 0 693 595" fill="none" xmlns="http://www.w3.org/2000/svg">
<rect x="-1.81923" y="153.868" width="571.774" height="390.413" rx="41.3274" transform="rotate(-14.7856 -1.81923 153.868)" fill="white" stroke="black" stroke-width="5.36573"/>
<path d="M86.8522 212.258L82.1338 194.382L86.0293 193.353L87.8744 200.344L94.8382 198.506L92.9931 191.515L96.8886 190.487L101.607 208.364L97.7115 209.392L95.803 202.161L88.8392 203.999L90.7476 211.23L86.8522 212.258ZM105.613 207.306L100.894 189.43L111.113 186.733L112.078 190.388L105.754 192.057L106.621 195.339L111.237 194.121L112.201 197.776L107.585 198.994L108.543 202.623L115 200.919L115.965 204.574L105.613 207.306ZM130.029 201.261C127.201 202.008 124.554 201.28 122.835 199.307L125.228 196.478C126.364 197.862 127.589 198.395 128.976 198.029C130.55 197.613 131.384 196.337 131.032 195.003C130.644 193.536 129.158 192.986 127.157 193.515L125.476 193.958L124.659 190.863L126.1 190.483C127.887 190.011 128.783 188.862 128.416 187.474C128.093 186.247 126.914 185.673 125.553 186.032C124.432 186.328 123.78 187.1 123.33 188.531L120.298 186.991C121.119 184.805 122.899 183.222 125.247 182.603C128.502 181.743 131.453 183.191 132.206 186.046C132.65 187.727 132.216 189.325 131.075 190.625C133.049 191.075 134.491 192.321 134.998 194.242C135.814 197.337 133.711 200.29 130.029 201.261ZM137.647 198.851L139.888 178.795L142.369 178.14L154.216 194.478L150.107 195.562L148.217 192.836L142.054 194.463L141.783 197.76L137.647 198.851ZM142.367 190.784L146.129 189.791L142.874 185.028L142.367 190.784ZM156.474 193.882L151.756 176.005L162.188 173.252L163.075 176.614L156.538 178.339L157.334 181.354L158.935 180.932C162.724 179.932 166.113 181.634 166.986 184.943C167.866 188.278 165.786 191.424 161.997 192.424L156.474 193.882ZM159.44 189.332L160.907 188.944C162.562 188.508 163.457 187.358 163.098 185.998C162.739 184.637 161.386 184.052 159.731 184.489L158.264 184.876L159.44 189.332ZM171.587 189.893L166.868 172.017L170.764 170.988L172.278 176.725L173.639 176.366C177.481 175.352 180.946 177.234 181.868 180.729C182.784 184.198 180.712 187.485 176.976 188.471L171.587 189.893ZM174.517 185.21L175.878 184.85C177.506 184.421 178.353 183.198 177.966 181.731C177.578 180.263 176.231 179.591 174.603 180.021L173.243 180.38L174.517 185.21ZM185.381 186.252L180.662 168.376L184.558 167.347L189.276 185.224L185.381 186.252ZM193.291 184.164L188.573 166.288L193.776 164.914C197.431 163.95 200.59 165.428 201.343 168.283C201.731 169.75 201.341 171.194 200.312 172.379C202.158 172.777 203.54 174.01 204.005 175.771C204.793 178.76 202.71 181.678 198.974 182.664L193.291 184.164ZM196.342 179.934L197.996 179.498C199.624 179.068 200.419 177.973 200.067 176.639C199.722 175.332 198.523 174.792 196.869 175.229L195.215 175.665L196.342 179.934ZM194.37 172.464L195.677 172.118C197.091 171.745 197.814 170.698 197.49 169.471C197.166 168.244 196.035 167.743 194.621 168.116L193.313 168.461L194.37 172.464ZM206.722 180.619L208.963 160.564L211.444 159.909L223.291 176.246L219.182 177.331L217.292 174.604L211.129 176.231L210.857 179.528L206.722 180.619ZM211.442 172.552L215.204 171.559L211.949 166.796L211.442 172.552ZM225.633 175.97L220.83 157.774L224.726 156.745L227.599 167.631L234.407 153.848L236.434 153.313L241.237 171.509L237.342 172.537L234.469 161.651L227.661 175.435L225.633 175.97ZM228.421 154.2C225.939 154.855 223.841 153.611 223.179 151.103L225.954 150.371C226.229 151.411 226.932 151.911 227.759 151.692C228.559 151.481 228.924 150.7 228.649 149.659L231.424 148.927C232.086 151.435 230.849 153.56 228.421 154.2ZM248.983 169.465L245.229 155.244L240.026 156.617L239.061 152.962L253.362 149.187L254.327 152.842L249.124 154.216L252.878 168.437L248.983 169.465ZM260.62 166.393L255.902 148.517L266.121 145.82L267.086 149.475L260.762 151.144L261.628 154.426L266.244 153.207L267.209 156.863L262.593 158.081L263.551 161.71L270.008 160.005L270.973 163.661L260.62 166.393ZM78.0608 251.811L73.3424 233.935L87.777 230.125L92.4954 248.002L88.5999 249.03L84.8464 234.809L78.2027 236.562L81.9563 250.783L78.0608 251.811ZM96.5085 246.942L91.7901 229.066L97.2064 227.636C101.049 226.622 104.499 228.451 105.422 231.946C106.338 235.415 104.265 238.702 100.53 239.688L98.8758 240.124L100.404 245.914L96.5085 246.942ZM97.911 236.469L99.4318 236.067C101.059 235.638 101.921 234.469 101.527 232.975C101.146 231.534 99.7988 230.862 98.1712 231.292L96.6504 231.693L97.911 236.469ZM119.884 241.172C114.628 242.559 109.582 239.553 108.195 234.297C106.8 229.014 109.712 223.936 114.969 222.548C120.198 221.168 125.264 224.141 126.658 229.424C128.045 234.68 125.114 239.792 119.884 241.172ZM118.884 237.383C121.846 236.602 123.38 233.656 122.549 230.508C121.725 227.386 118.93 225.555 115.969 226.337C113.007 227.119 111.48 230.091 112.304 233.212C113.127 236.334 115.922 238.165 118.884 237.383ZM131.945 237.589L127.226 219.713L132.429 218.339C136.085 217.375 139.243 218.853 139.997 221.708C140.384 223.175 139.995 224.619 138.966 225.804C140.812 226.202 142.193 227.435 142.658 229.196C143.447 232.184 141.363 235.103 137.628 236.089L131.945 237.589ZM134.995 233.359L136.649 232.923C138.277 232.493 139.073 231.398 138.72 230.064C138.375 228.757 137.177 228.217 135.523 228.654L133.868 229.09L134.995 233.359ZM133.023 225.888L134.331 225.543C135.745 225.17 136.467 224.123 136.143 222.896C135.819 221.668 134.688 221.168 133.274 221.541L131.967 221.886L133.023 225.888ZM147.109 233.587L142.391 215.71L152.61 213.013L153.575 216.668L147.251 218.337L148.118 221.619L152.733 220.401L153.698 224.056L149.082 225.274L150.04 228.903L156.497 227.199L157.462 230.854L147.109 233.587ZM160.789 229.976L156.07 212.099L161.487 210.67C165.329 209.656 168.78 211.485 169.702 214.98C170.618 218.449 168.546 221.735 164.81 222.721L163.156 223.158L164.684 228.948L160.789 229.976ZM162.191 219.503L163.712 219.101C165.34 218.672 166.201 217.502 165.807 216.008C165.427 214.567 164.079 213.896 162.452 214.325L160.931 214.727L162.191 219.503ZM174.701 226.304L176.597 218.24C174.475 217.773 172.822 216.268 172.238 214.054C171.344 210.665 173.398 207.526 177.133 206.54L182.843 205.033L187.561 222.91L183.666 223.938L182.011 217.668L180.623 218.034L179.023 225.163L174.701 226.304ZM179.494 214.622L181.095 214.199L179.863 209.53L178.262 209.952C176.608 210.389 175.753 211.585 176.126 212.999C176.507 214.44 177.84 215.058 179.494 214.622ZM195.297 220.868L191.543 206.647L186.34 208.02L185.375 204.365L199.676 200.59L200.641 204.245L195.438 205.619L199.192 219.84L195.297 220.868ZM206.934 217.796L202.216 199.92L206.111 198.891L207.625 204.628L209.146 204.227C212.988 203.212 216.453 205.095 217.376 208.59C218.291 212.059 216.219 215.345 212.484 216.331L206.934 217.796ZM209.865 213.113L211.386 212.711C213.013 212.282 213.861 211.059 213.473 209.592C213.086 208.124 211.739 207.452 210.111 207.882L208.59 208.283L209.865 213.113ZM232.497 211.449C229.669 212.195 227.022 211.467 225.303 209.495L227.696 206.665C228.832 208.049 230.057 208.582 231.444 208.216C233.019 207.801 233.852 206.525 233.5 205.191C233.112 203.723 231.626 203.174 229.625 203.702L227.944 204.145L227.127 201.05L228.568 200.67C230.356 200.198 231.251 199.049 230.885 197.661C230.561 196.434 229.382 195.86 228.021 196.219C226.9 196.515 226.248 197.287 225.798 198.718L222.766 197.178C223.587 194.992 225.367 193.409 227.715 192.79C230.97 191.931 233.921 193.378 234.674 196.233C235.118 197.914 234.684 199.512 233.543 200.812C235.517 201.262 236.959 202.508 237.466 204.429C238.283 207.524 236.179 210.477 232.497 211.449ZM241.849 208.581L237.131 190.704L242.334 189.331C245.989 188.366 249.148 189.844 249.901 192.699C250.289 194.166 249.899 195.611 248.871 196.795C250.716 197.193 252.098 198.427 252.563 200.188C253.352 203.176 251.268 206.095 247.533 207.081L241.849 208.581ZM244.9 204.351L246.554 203.914C248.182 203.484 248.977 202.39 248.625 201.056C248.28 199.748 247.081 199.208 245.427 199.645L243.773 200.082L244.9 204.351ZM242.928 196.88L244.235 196.535C245.649 196.162 246.372 195.115 246.048 193.887C245.724 192.66 244.593 192.159 243.179 192.533L241.872 192.878L242.928 196.88ZM257.014 204.578L252.296 186.701L262.515 184.004L263.479 187.66L257.156 189.329L258.022 192.61L262.638 191.392L263.603 195.047L258.987 196.266L259.945 199.894L266.402 198.19L267.366 201.846L257.014 204.578ZM270.693 200.967L265.975 183.091L271.391 181.661C275.234 180.647 278.684 182.476 279.607 185.971C280.523 189.44 278.45 192.727 274.715 193.713L273.061 194.149L274.589 199.939L270.693 200.967ZM272.096 190.494L273.617 190.093C275.244 189.663 276.106 188.494 275.712 187C275.331 185.559 273.984 184.887 272.356 185.317L270.835 185.718L272.096 190.494ZM284.605 197.295L286.501 189.232C284.38 188.764 282.727 187.26 282.143 185.045C281.248 181.657 283.302 178.517 287.038 177.532L292.747 176.024L297.466 193.901L293.57 194.929L291.915 188.659L290.528 189.025L288.928 196.155L284.605 197.295ZM289.399 185.613L291 185.191L289.767 180.521L288.166 180.944C286.512 181.38 285.658 182.576 286.031 183.99C286.411 185.431 287.745 186.05 289.399 185.613ZM116.288 278.955L111.569 261.078L115.465 260.05L117.31 267.04L124.274 265.202L122.429 258.212L126.324 257.184L131.042 275.06L127.147 276.088L125.238 268.858L118.275 270.696L120.183 277.926L116.288 278.955ZM133.314 274.461L135.555 254.405L138.036 253.75L149.883 270.087L145.774 271.172L143.884 268.446L137.721 270.072L137.449 273.369L133.314 274.461ZM138.034 266.394L141.796 265.401L138.541 260.637L138.034 266.394ZM158.003 267.944L153.285 250.067L157.18 249.039L159.026 256.03L165.989 254.192L164.144 247.201L168.04 246.173L172.758 264.05L168.863 265.078L166.954 257.847L159.99 259.685L161.899 266.916L158.003 267.944ZM175.029 263.45L177.27 243.394L179.752 242.739L191.599 259.077L187.49 260.161L185.6 257.435L179.437 259.062L179.165 262.359L175.029 263.45ZM179.75 255.383L183.512 254.39L180.257 249.627L179.75 255.383ZM194.027 258.693C193.493 258.834 192.945 258.921 192.551 258.94L191.551 255.151C191.759 255.182 192.146 255.136 192.44 255.059C193.614 254.749 193.981 253.653 193.558 252.052L190.446 240.259L203.439 236.83L208.158 254.706L204.262 255.734L200.509 241.513L195.306 242.886L197.454 251.024C198.559 255.213 197.362 257.813 194.027 258.693ZM212.232 253.973L207.43 235.776L211.325 234.748L214.198 245.634L221.006 231.851L223.034 231.315L227.837 249.512L223.941 250.54L221.068 239.654L214.26 253.438L212.232 253.973ZM240.331 246.214L238.81 240.451C238.007 240.977 237.242 241.322 236.388 241.547C232.546 242.561 229.369 240.688 228.369 236.9L226.728 230.683L230.623 229.655L232.243 235.791C232.687 237.472 234.009 238.265 235.877 237.772C236.437 237.624 237.143 237.38 237.866 236.876L235.613 228.338L239.508 227.309L244.227 245.186L240.331 246.214ZM248.32 244.448L243.517 226.251L247.413 225.223L250.286 236.109L257.094 222.325L259.121 221.79L263.924 239.987L260.029 241.015L257.156 230.129L250.348 243.913L248.32 244.448ZM267.934 238.929L263.216 221.052L273.435 218.355L274.399 222.01L268.076 223.679L268.942 226.961L273.558 225.743L274.523 229.398L269.907 230.616L270.865 234.245L277.322 232.541L278.286 236.196L267.934 238.929ZM146.392 312.751L144.314 304.88C146.102 304.408 146.711 301.85 145.486 297.207L143.549 289.87L156.356 286.49L160.11 300.711L162.538 300.07L164.615 307.941L160.72 308.969L159.607 304.754L149.175 307.507L150.287 311.723L146.392 312.751ZM149.677 303.465L156.214 301.739L153.425 291.173L148.409 292.497L149.374 296.153C150.198 299.274 150.269 301.596 149.677 303.465ZM166.031 303.058L161.313 285.181L165.208 284.153L166.722 289.89L168.083 289.531C171.925 288.517 175.39 290.399 176.313 293.894C177.228 297.363 175.156 300.65 171.421 301.635L166.031 303.058ZM168.962 298.374L170.323 298.015C171.95 297.586 172.798 296.363 172.41 294.896C172.023 293.428 170.676 292.756 169.048 293.186L167.687 293.545L168.962 298.374ZM179.826 299.417L175.107 281.541L179.003 280.512L183.721 298.389L179.826 299.417ZM187.736 297.329L183.018 279.453L188.434 278.023C192.276 277.009 195.727 278.838 196.649 282.333C197.565 285.802 195.493 289.089 191.757 290.075L190.103 290.511L191.631 296.301L187.736 297.329ZM189.138 286.856L190.659 286.454C192.287 286.025 193.148 284.856 192.754 283.361C192.374 281.921 191.026 281.249 189.399 281.678L187.878 282.08L189.138 286.856ZM211.112 291.559C205.855 292.946 200.809 289.94 199.422 284.684C198.028 279.401 200.94 274.323 206.196 272.935C211.426 271.555 216.491 274.528 217.886 279.81C219.273 285.067 216.341 290.179 211.112 291.559ZM210.112 287.77C213.073 286.988 214.608 284.043 213.777 280.895C212.953 277.773 210.158 275.942 207.196 276.724C204.234 277.506 202.707 280.478 203.531 283.599C204.355 286.721 207.15 288.552 210.112 287.77ZM231.657 285.737L230.136 279.973C229.333 280.499 228.568 280.844 227.714 281.069C223.872 282.083 220.694 280.211 219.694 276.422L218.054 270.205L221.949 269.177L223.569 275.314C224.013 276.995 225.335 277.787 227.202 277.294C227.763 277.146 228.469 276.903 229.192 276.398L226.939 267.86L230.834 266.832L235.552 284.708L231.657 285.737ZM239.562 283.65L234.843 265.774L245.062 263.076L246.027 266.732L239.703 268.401L240.57 271.683L245.186 270.464L246.15 274.12L241.534 275.338L242.492 278.967L248.949 277.262L249.914 280.918L239.562 283.65ZM253.241 280.04L248.523 262.163L252.418 261.135L254.538 269.166L257.968 259.67L262.45 258.487L258.693 268.583L267.516 276.272L262.846 277.504L254.904 270.553L257.136 279.011L253.241 280.04Z" fill="black"/>
<rect x="500.2" y="97.2541" width="128.003" height="374.777" rx="64.0013" transform="rotate(42.7547 500.2 97.2541)" fill="white" stroke="black" stroke-width="5.36573"/>
<rect x="429.963" y="209.891" width="77.3713" height="113.149" rx="15.4334" transform="rotate(42.7547 429.963 209.891)" fill="white" stroke="black" stroke-width="5.36573"/>
</svg>
