<svg width="1830" height="1188" viewBox="0 0 1830 1188" fill="none" xmlns="http://www.w3.org/2000/svg">
<mask id="path-1-inside-1_480_228" fill="white">
<path d="M1829.76 1187.73C1829.76 1031.79 1806.1 877.37 1760.15 733.297C1714.19 589.223 1646.82 458.315 1561.9 348.046C1476.98 237.777 1376.17 150.307 1265.21 90.6296C1154.26 30.9525 1035.34 0.237054 915.243 0.237061C795.147 0.237067 676.227 30.9525 565.273 90.6297C454.319 150.307 353.504 237.777 268.583 348.046C183.662 458.315 116.3 589.223 70.3409 733.297C24.3822 877.37 0.727529 1031.79 0.727539 1187.73L915.243 1187.73H1829.76Z"/>
</mask>
<path d="M1829.76 1187.73C1829.76 1031.79 1806.1 877.37 1760.15 733.297C1714.19 589.223 1646.82 458.315 1561.9 348.046C1476.98 237.777 1376.17 150.307 1265.21 90.6296C1154.26 30.9525 1035.34 0.237054 915.243 0.237061C795.147 0.237067 676.227 30.9525 565.273 90.6297C454.319 150.307 353.504 237.777 268.583 348.046C183.662 458.315 116.3 589.223 70.3409 733.297C24.3822 877.37 0.727529 1031.79 0.727539 1187.73L915.243 1187.73H1829.76Z" fill="white" stroke="black" stroke-width="14" mask="url(#path-1-inside-1_480_228)"/>
</svg>
