<svg width="371" height="366" viewBox="0 0 371 366" fill="none" xmlns="http://www.w3.org/2000/svg">
<circle cx="115.124" cy="115.124" r="112.441" transform="matrix(-0.938458 0.345393 0.345393 0.938458 247.667 57.7427)" fill="white"/>
<circle cx="115.124" cy="115.124" r="112.441" transform="matrix(-0.938458 0.345393 0.345393 0.938458 247.667 57.7427)" fill="white"/>
<circle cx="115.124" cy="115.124" r="112.441" transform="matrix(-0.938458 0.345393 0.345393 0.938458 247.667 57.7427)" stroke="black" stroke-width="5.36573"/>
<path d="M205.244 140.954C183.597 136.889 169.257 112.538 174.284 85.7653C179.312 58.9927 201.509 41.5023 223.156 45.5672C244.803 49.6321 259.143 73.9833 254.115 100.756C249.088 127.528 226.891 145.019 205.244 140.954Z" fill="#5EE453" stroke="white" stroke-width="5.36573"/>
<circle cx="106.292" cy="106.292" r="103.61" transform="matrix(-0.938458 0.345393 0.345393 0.938458 259.213 61.3379)" fill="#5EE453" stroke="white" stroke-width="5.36573"/>
<circle cx="162.055" cy="210.36" r="48.5653" transform="rotate(-20.2058 162.055 210.36)" fill="white" stroke="white" stroke-width="5.36573"/>
<path d="M183.051 200.035C185.706 207.247 181.879 215.42 174.316 218.204C166.752 220.987 158.541 217.245 155.886 210.033C153.232 202.821 157.058 194.648 164.622 191.864C172.185 189.08 180.397 192.823 183.051 200.035Z" fill="black" stroke="white" stroke-width="5.36573"/>
<ellipse cx="259.915" cy="146.938" rx="50.4717" ry="51.2482" transform="rotate(-20.2058 259.915 146.938)" fill="white"/>
<path d="M259.163 126.403C261.947 133.967 258.205 142.179 250.992 144.833C243.78 147.487 235.607 143.661 232.824 136.097C230.04 128.534 233.782 120.322 240.994 117.668C248.207 115.014 256.379 118.84 259.163 126.403Z" fill="black" stroke="white" stroke-width="5.36573"/>
<path d="M279.552 272.323C257.905 268.258 243.565 243.906 248.592 217.134C253.62 190.361 275.817 172.871 297.464 176.936C319.111 181.001 333.451 205.352 328.423 232.125C323.396 258.897 301.199 276.387 279.552 272.323Z" fill="#5EE453" stroke="white" stroke-width="5.36573"/>
<path d="M76.8187 198.202C55.1716 194.137 40.8317 169.786 45.8591 143.013C50.8864 116.241 73.0832 98.7504 94.7304 102.815C116.378 106.88 130.717 131.231 125.69 158.004C120.663 184.776 98.4659 202.267 76.8187 198.202Z" fill="#5EE453" stroke="white" stroke-width="5.36573"/>
<path d="M296.7 221.615L280.029 201.591L296.997 195.346L296.7 221.615Z" fill="black" stroke="black" stroke-width="5.36573" stroke-linecap="round" stroke-linejoin="round"/>
</svg>
