<svg width="407" height="280" viewBox="0 0 407 280" fill="none" xmlns="http://www.w3.org/2000/svg">
<rect x="269.395" y="91.9761" width="86.3604" height="22.7571" rx="9.30332" transform="rotate(-28.0125 269.395 91.9761)" fill="black"/>
<rect x="339.653" y="62.5312" width="46.6813" height="8.75274" rx="4.37637" transform="rotate(-28.0125 339.653 62.5312)" fill="black"/>
<rect x="22.1196" y="223.524" width="246.827" height="22.7571" rx="11.3786" transform="rotate(-28.0125 22.1196 223.524)" fill="black"/>
<rect x="0.185059" y="192.231" width="17.5055" height="98.6142" rx="8.75274" transform="rotate(-28.0125 0.185059 192.231)" fill="black"/>
<path fill-rule="evenodd" clip-rule="evenodd" d="M60.6136 160.084C53.9838 163.611 51.4685 171.845 54.9955 178.474L88.5389 241.527C92.0658 248.157 100.299 250.672 106.929 247.145L329.164 128.918C335.794 125.391 338.309 117.158 334.782 110.528L332.946 107.077L338.457 104.145C345.087 100.618 347.602 92.3843 344.075 85.7545L326.975 53.6111C323.448 46.9814 315.215 44.4661 308.585 47.993L303.074 50.9248L301.239 47.4753C297.712 40.8456 289.479 38.3303 282.849 41.8572L60.6136 160.084Z" fill="#6398FF"/>
</svg>
