<svg width="343" height="343" viewBox="0 0 343 343" fill="none" xmlns="http://www.w3.org/2000/svg">
<circle cx="171.508" cy="171.889" r="131.253" transform="rotate(19.4532 171.508 171.889)" fill="white"/>
<circle cx="171.508" cy="171.889" r="131.253" transform="rotate(19.4532 171.508 171.889)" fill="white"/>
<circle cx="171.508" cy="171.889" r="131.253" transform="rotate(19.4532 171.508 171.889)" stroke="black" stroke-width="5.36573"/>
<path d="M147.425 137.872C164.295 134.474 175.397 115.236 171.144 94.1169C166.89 72.9982 149.206 59.5577 132.336 62.9554C115.466 66.3532 104.364 85.5917 108.617 106.71C112.871 127.829 130.555 141.27 147.425 137.872Z" fill="#5EE453" stroke="white" stroke-width="5.36573"/>
<circle cx="172.082" cy="178.721" r="82.1966" transform="rotate(19.4532 172.082 178.721)" fill="#5EE453" stroke="white" stroke-width="5.36573"/>
<circle cx="23.1845" cy="23.1845" r="20.5017" transform="matrix(-0.942914 -0.333037 -0.333037 0.942914 197.481 162.315)" fill="white" stroke="white" stroke-width="5.36573"/>
<path d="M162.128 173.817C159.759 180.524 163.398 188.051 170.444 190.539C177.49 193.028 185.049 189.457 187.418 182.75C189.787 176.042 186.148 168.516 179.102 166.027C172.056 163.539 164.497 167.11 162.128 173.817Z" fill="black" stroke="white" stroke-width="5.36573"/>
<ellipse cx="22.8332" cy="23.1845" rx="22.8332" ry="23.1845" transform="matrix(-0.942914 -0.333037 -0.333037 0.942914 133.757 127.373)" fill="white"/>
<path d="M98.7304 139.59C96.2154 146.711 99.8241 154.351 106.604 156.746C113.384 159.14 120.991 155.461 123.506 148.341C126.021 141.22 122.412 133.58 115.632 131.185C108.852 128.791 101.245 132.469 98.7304 139.59Z" fill="black" stroke="white" stroke-width="5.36573"/>
<path d="M106.182 238.57C123.052 235.172 134.154 215.933 129.901 194.815C125.647 173.696 107.963 160.255 91.0929 163.653C74.2232 167.051 63.1207 186.289 67.3742 207.408C71.6278 228.527 89.3123 241.968 106.182 238.57Z" fill="#5EE453" stroke="white" stroke-width="5.36573"/>
<path d="M244.4 167.479C261.269 164.082 272.372 144.843 268.118 123.724C263.865 102.606 246.18 89.1651 229.311 92.5628C212.441 95.9606 201.338 115.199 205.592 136.318C209.846 157.437 227.53 170.877 244.4 167.479Z" fill="#5EE453" stroke="white" stroke-width="5.36573"/>
<path d="M92.0653 198.79L105.167 182.627L91.5523 177.818L92.0653 198.79Z" fill="black" stroke="black" stroke-width="5.36573" stroke-linecap="round" stroke-linejoin="round"/>
<path d="M109.322 218.606L98.2019 211.351L89.9612 215.836L87.0231 207.402L78.1248 211.655" stroke="black" stroke-width="5.36573" stroke-linecap="round" stroke-linejoin="round"/>
<path d="M149.256 129.693C146.024 137.796 134.85 140.133 130.797 126.131" stroke="black" stroke-width="5.36573" stroke-linecap="round" stroke-linejoin="round"/>
<path d="M158.307 133.995C154.135 141.657 159.471 151.748 172.835 145.926" stroke="black" stroke-width="5.36573" stroke-linecap="round" stroke-linejoin="round"/>
<ellipse cx="5.30047" cy="5.38202" rx="5.30047" ry="5.38202" transform="matrix(-0.942914 -0.333037 -0.333037 0.942914 126.046 145.231)" fill="white"/>
<ellipse cx="5.69123" cy="5.77879" rx="5.69123" ry="5.77879" transform="matrix(-0.942914 -0.333037 -0.333037 0.942914 189.24 179.958)" fill="white"/>
</svg>
