<svg width="585" height="209" viewBox="0 0 585 209" fill="none" xmlns="http://www.w3.org/2000/svg">
<path d="M74.8353 81.6758C77.8154 86.5927 74.3551 92.8918 68.6069 93.0141L35.1373 93.7263C29.3891 93.8487 25.664 87.7025 28.4322 82.6632L44.5502 53.3215C47.3184 48.2823 54.5036 48.1294 57.4837 53.0463L74.8353 81.6758Z" fill="#5EE453"/>
<path d="M234.083 15.6369C178.02 -7.43869 88.1684 61.6613 76.8714 85.456C65.5745 109.251 116.488 133.787 150.074 135.507C183.659 137.227 191.897 181.846 279.737 192.658C367.577 203.47 368.165 150.885 439.749 150.342C511.334 149.799 620 123.795 566.119 66.3159C512.239 8.83684 406.803 53.9477 354.111 55.4585C301.418 56.9692 304.162 44.4814 234.083 15.6369Z" fill="#5EE453" stroke="#5EE453" stroke-width="7" stroke-linecap="round" stroke-linejoin="round"/>
</svg>
