<svg width="47" height="47" viewBox="0 0 47 47" fill="none" xmlns="http://www.w3.org/2000/svg">
<path fill-rule="evenodd" clip-rule="evenodd" d="M44.2038 3.17552C45.5707 4.54235 45.5707 6.75843 44.2038 8.12526L8.0019 44.3272C6.63507 45.694 4.41899 45.694 3.05215 44.3272C1.68532 42.9604 1.68532 40.7443 3.05215 39.3774L39.2541 3.17552C40.6209 1.80868 42.837 1.80868 44.2038 3.17552Z" fill="black"/>
<path fill-rule="evenodd" clip-rule="evenodd" d="M44.2038 3.17552C45.5707 4.54235 45.5707 6.75843 44.2038 8.12526L8.0019 44.3272C6.63507 45.694 4.41899 45.694 3.05215 44.3272C1.68532 42.9604 1.68532 40.7443 3.05215 39.3774L39.2541 3.17552C40.6209 1.80868 42.837 1.80868 44.2038 3.17552Z" fill="black"/>
<path fill-rule="evenodd" clip-rule="evenodd" d="M44.2034 44.3271C42.8366 45.694 40.6205 45.694 39.2536 44.3271L3.05171 8.12519C1.68488 6.75836 1.68488 4.54228 3.05171 3.17544C4.41855 1.80861 6.63463 1.80861 8.00146 3.17544L44.2034 39.3774C45.5702 40.7442 45.5702 42.9603 44.2034 44.3271Z" fill="black"/>
</svg>
