<svg width="1067" height="1075" viewBox="0 0 1067 1075" fill="none" xmlns="http://www.w3.org/2000/svg">
<g clip-path="url(#clip0_940_683)">
<mask id="path-1-inside-1_940_683" fill="white">
<path d="M1051.1 655.898C984.713 939.434 701.045 1115.47 417.509 1049.08C133.973 982.698 -42.062 699.031 24.3235 415.495C90.7091 131.959 374.377 -44.0762 657.912 22.3093C941.448 88.6949 1117.48 372.362 1051.1 655.898Z"/>
</mask>
<path d="M1051.1 655.898C984.713 939.434 701.045 1115.47 417.509 1049.08C133.973 982.698 -42.062 699.031 24.3235 415.495C90.7091 131.959 374.377 -44.0762 657.912 22.3093C941.448 88.6949 1117.48 372.362 1051.1 655.898Z" fill="#ED427F" fill-opacity="0.36"/>
<path d="M1044.28 654.303C978.778 934.074 698.877 1107.77 419.105 1042.27L415.913 1055.9C703.214 1123.17 990.647 944.794 1057.91 657.494L1044.28 654.303ZM419.105 1042.27C139.333 976.764 -34.365 696.863 31.1392 417.091L17.5079 413.899C-49.759 701.199 128.613 988.633 415.913 1055.9L419.105 1042.27ZM31.1392 417.091C96.6434 137.319 376.545 -36.3792 656.317 29.125L659.508 15.4937C372.208 -51.7732 84.7747 126.599 17.5079 413.899L31.1392 417.091ZM656.317 29.125C936.088 94.6292 1109.79 374.531 1044.28 654.303L1057.91 657.494C1125.18 370.194 946.808 82.7605 659.508 15.4937L656.317 29.125Z" fill="#ED427F" mask="url(#path-1-inside-1_940_683)"/>
<mask id="path-3-inside-2_940_683" fill="white">
<path d="M10.8139 515.835C6.30531 635.462 42.6392 753.063 113.841 849.299C185.043 945.535 286.873 1014.68 402.588 1045.36C518.303 1076.03 641.013 1066.42 750.54 1018.1C860.067 969.781 949.891 885.627 1005.24 779.478L537.711 535.692L10.8139 515.835Z"/>
</mask>
<path d="M10.8139 515.835C6.30531 635.462 42.6392 753.063 113.841 849.299C185.043 945.535 286.873 1014.68 402.588 1045.36C518.303 1076.03 641.013 1066.42 750.54 1018.1C860.067 969.781 949.891 885.627 1005.24 779.478L537.711 535.692L10.8139 515.835Z" fill="white" stroke="#ED427F" stroke-width="14" mask="url(#path-3-inside-2_940_683)"/>
<circle cx="344.604" cy="835.795" r="172.192" transform="rotate(13.1775 344.604 835.795)" fill="#ED427F"/>
<circle cx="517.013" cy="996.599" r="65.3368" transform="rotate(13.1775 517.013 996.599)" fill="#ED427F"/>
<circle cx="810.157" cy="903.981" r="65.3368" transform="rotate(13.1775 810.157 903.981)" fill="#ED427F"/>
<circle cx="681.049" cy="998.888" r="41.8883" transform="rotate(13.1775 681.049 998.888)" fill="#ED427F"/>
<circle cx="134.478" cy="797.748" r="42.7075" transform="rotate(13.1775 134.478 797.748)" fill="#ED427F"/>
<circle cx="84.0189" cy="693.183" r="42.7075" transform="rotate(13.1775 84.0189 693.183)" fill="#ED427F"/>
<circle cx="742.166" cy="994.39" r="21.9456" transform="rotate(13.1775 742.166 994.39)" fill="#ED427F"/>
<circle cx="87.7184" cy="757.377" r="21.9456" transform="rotate(13.1775 87.7184 757.377)" fill="#ED427F"/>
<circle cx="618.956" cy="847.781" r="121.319" transform="rotate(13.1775 618.956 847.781)" fill="#ED427F"/>
<mask id="path-13-inside-3_940_683" fill="white">
<path d="M453.386 352.599C414.936 451.079 327.726 509.032 258.597 482.041C189.469 455.051 164.599 353.337 203.049 254.858C241.499 156.379 328.709 98.4253 397.838 125.416C466.966 152.406 491.836 254.12 453.386 352.599Z"/>
</mask>
<path d="M453.386 352.599C414.936 451.079 327.726 509.032 258.597 482.041C189.469 455.051 164.599 353.337 203.049 254.858C241.499 156.379 328.709 98.4253 397.838 125.416C466.966 152.406 491.836 254.12 453.386 352.599Z" fill="white" fill-opacity="0.7"/>
<path d="M446.866 350.053C428.1 398.115 397.535 436.005 363.622 458.541C329.688 481.092 293.004 487.96 261.143 475.521L256.052 488.562C293.319 503.113 334.805 494.5 371.371 470.202C407.957 445.889 440.222 405.563 459.907 355.145L446.866 350.053ZM261.143 475.521C229.282 463.081 206.958 433.173 197.281 393.595C187.61 354.042 190.804 305.466 209.569 257.404L196.528 252.312C176.843 302.73 173.248 354.249 183.681 396.921C194.109 439.567 218.784 474.011 256.052 488.562L261.143 475.521ZM209.569 257.404C228.335 209.342 258.9 171.452 292.813 148.916C326.747 126.366 363.431 119.497 395.292 131.936L400.383 118.895C363.116 104.344 321.63 112.957 285.064 137.256C248.478 161.568 216.213 201.895 196.528 252.312L209.569 257.404ZM395.292 131.936C427.153 144.376 449.477 174.284 459.154 213.862C468.825 253.415 465.631 301.991 446.866 350.053L459.907 355.145C479.592 304.728 483.187 253.208 472.754 210.537C462.326 167.89 437.651 133.446 400.383 118.895L395.292 131.936Z" fill="#ED427F" mask="url(#path-13-inside-3_940_683)"/>
<path d="M900.265 915.243C783.632 828.814 740.358 718.131 735.29 677.801L983.137 661.651C989.422 669.987 978.057 724.482 1005.35 765.668C1005.35 765.668 1003.01 788.516 971.7 832.132C940.389 875.748 900.265 915.243 900.265 915.243Z" fill="white" stroke="#ED427F" stroke-width="7" stroke-linecap="round" stroke-linejoin="round"/>
<mask id="mask0_940_683" style="mask-type:alpha" maskUnits="userSpaceOnUse" x="238" y="166" width="188" height="254">
<mask id="path-16-inside-4_940_683" fill="white">
<path d="M410.42 325.562C382.334 393.306 324.478 433.677 281.195 415.733C237.913 397.788 225.594 328.324 253.68 260.579C281.766 192.835 339.622 152.464 382.904 170.408C426.187 188.353 438.506 257.818 410.42 325.562Z"/>
</mask>
<path d="M410.42 325.562C382.334 393.306 324.478 433.677 281.195 415.733C237.913 397.788 225.594 328.324 253.68 260.579C281.766 192.835 339.622 152.464 382.904 170.408C426.187 188.353 438.506 257.818 410.42 325.562Z" fill="#FFB6CC"/>
<path d="M403.954 322.881C390.344 355.709 369.634 381.596 347.501 397.04C325.29 412.538 302.552 417.009 283.876 409.266L278.515 422.199C303.121 432.401 330.953 425.658 355.512 408.521C380.149 391.33 402.41 363.16 416.886 328.243L403.954 322.881ZM283.876 409.266C265.2 401.524 252.296 382.276 247.567 355.609C242.854 329.034 246.536 296.088 260.146 263.26L247.213 257.898C232.737 292.815 228.536 328.473 233.782 358.053C239.011 387.54 253.908 411.997 278.515 422.199L283.876 409.266ZM260.146 263.26C273.756 230.433 294.466 204.545 316.599 189.101C338.81 173.603 361.547 169.132 380.223 176.875L385.585 163.942C360.979 153.741 333.147 160.483 308.588 177.62C283.951 194.811 261.69 222.981 247.213 257.898L260.146 263.26ZM380.223 176.875C398.899 184.618 411.803 203.865 416.533 230.533C421.246 257.107 417.563 290.054 403.954 322.881L416.886 328.243C431.362 293.326 435.564 257.668 430.318 228.088C425.088 198.601 410.192 174.144 385.585 163.942L380.223 176.875Z" fill="#ED427F" mask="url(#path-16-inside-4_940_683)"/>
</mask>
<g mask="url(#mask0_940_683)">
<path d="M160.628 201.55L135.4 167.006L144.169 146.54L312.753 142.767L337.877 175.505L329.212 197.777L160.628 201.55Z" fill="#ED427F"/>
<path d="M171.105 176.79L331.161 173.208L310.965 145.554L150.909 149.136L171.105 176.79Z" fill="white" stroke="#ED427F" stroke-width="7"/>
<path d="M183.682 271.581L151.3 234.047L160.982 212.323L343.303 205.569L375.547 240.509L365.847 261.886L183.682 271.581Z" fill="#ED427F"/>
<path d="M194.877 245.98L368.203 236.755L341.603 205.923L168.278 215.148L194.877 245.98Z" fill="white" stroke="#ED427F" stroke-width="7"/>
<path d="M206.038 345.978L164.443 305.006L174.654 280.376L364.44 267.431L406.077 309.019L395.824 333.032L206.038 345.978Z" fill="#ED427F"/>
<path d="M217.581 317.751L398.038 305.442L363.105 271.031L182.648 283.341L217.581 317.751Z" fill="white" stroke="#ED427F" stroke-width="7"/>
</g>
<mask id="path-24-inside-5_940_683" fill="white">
<path d="M411.1 319.661C383.013 387.405 325.158 427.776 281.875 409.831C238.593 391.887 226.273 322.422 254.359 254.678C282.446 186.933 340.301 146.563 383.584 164.507C426.866 182.452 439.186 251.916 411.1 319.661Z"/>
</mask>
<path d="M404.633 316.98C391.023 349.807 370.314 375.694 348.18 391.139C325.97 406.637 303.232 411.108 284.556 403.365L279.194 416.298C303.801 426.499 331.633 419.757 356.192 402.62C380.829 385.429 403.09 357.258 417.566 322.341L404.633 316.98ZM284.556 403.365C265.88 395.622 252.976 376.375 248.247 349.707C243.534 323.133 247.216 290.186 260.826 257.359L247.893 251.997C233.417 286.914 229.216 322.572 234.462 352.152C239.691 381.639 254.588 406.096 279.194 416.298L284.556 403.365ZM260.826 257.359C274.436 224.531 295.145 198.644 317.279 183.2C339.489 167.701 362.227 163.23 380.903 170.973L386.265 158.041C361.658 147.839 333.826 154.582 309.267 171.719C284.63 188.91 262.369 217.08 247.893 251.997L260.826 257.359ZM380.903 170.973C399.579 178.716 412.483 197.964 417.213 224.631C421.925 251.205 418.243 284.152 404.633 316.98L417.566 322.341C432.042 287.424 436.243 251.767 430.997 222.187C425.768 192.699 410.871 168.242 386.265 158.041L380.903 170.973Z" fill="#ED427F" mask="url(#path-24-inside-5_940_683)"/>
<path d="M1011.92 739.659C995.039 811.754 925.155 865.061 824.145 892.278C723.294 919.453 592.311 920.309 455.174 888.2C318.037 856.092 201.049 797.178 122.744 728.056C44.3159 658.826 5.35964 580.036 22.2398 507.941C39.1199 435.845 109.004 382.538 210.014 355.321C310.865 328.146 441.848 327.29 578.985 359.399C716.122 391.507 833.11 450.421 911.415 519.543C989.843 588.773 1028.8 667.563 1011.92 739.659Z" fill="white" stroke="#ED427F" stroke-width="7"/>
<mask id="path-27-inside-6_940_683" fill="white">
<path d="M897.595 555.453C909.891 552.99 914.439 537.971 905.102 529.601C860.511 489.624 803.501 453.411 738.006 423.597C667.326 391.423 588.961 367.701 509.416 354.331C499.575 352.677 490.848 360.642 491.388 370.607L492.844 397.524C493.25 405.025 498.887 411.182 506.298 412.404C570.013 422.905 632.836 441.815 689.431 467.578C746.587 493.596 795.572 525.775 832.21 561.315C836.039 565.029 841.423 566.708 846.653 565.66L897.595 555.453Z"/>
</mask>
<path d="M897.595 555.453C909.891 552.99 914.439 537.971 905.102 529.601C860.511 489.624 803.501 453.411 738.006 423.597C667.326 391.423 588.961 367.701 509.416 354.331C499.575 352.677 490.848 360.642 491.388 370.607L492.844 397.524C493.25 405.025 498.887 411.182 506.298 412.404C570.013 422.905 632.836 441.815 689.431 467.578C746.587 493.596 795.572 525.775 832.21 561.315C836.039 565.029 841.423 566.708 846.653 565.66L897.595 555.453Z" fill="white" stroke="#ED427F" stroke-width="14" mask="url(#path-27-inside-6_940_683)"/>
<mask id="path-28-inside-7_940_683" fill="white">
<path d="M899.387 499.752C911.643 496.967 915.791 481.779 906.213 473.641C859.662 434.084 800.979 398.586 734.24 369.746C662.635 338.804 583.976 316.483 504.743 304.552C494.624 303.028 485.934 311.58 487.072 321.75L490.122 349.015C490.931 356.25 496.584 361.975 503.787 363.025C567.625 372.327 631.089 390.178 688.766 415.103C746.953 440.247 797.398 471.79 835.783 506.978C839.698 510.567 845.103 512.088 850.282 510.911L899.387 499.752Z"/>
</mask>
<path d="M899.387 499.752C911.643 496.967 915.791 481.779 906.213 473.641C859.662 434.084 800.979 398.586 734.24 369.746C662.635 338.804 583.976 316.483 504.743 304.552C494.624 303.028 485.934 311.58 487.072 321.75L490.122 349.015C490.931 356.25 496.584 361.975 503.787 363.025C567.625 372.327 631.089 390.178 688.766 415.103C746.953 440.247 797.398 471.79 835.783 506.978C839.698 510.567 845.103 512.088 850.282 510.911L899.387 499.752Z" fill="white" stroke="#ED427F" stroke-width="14" mask="url(#path-28-inside-7_940_683)"/>
<mask id="path-29-inside-8_940_683" fill="white">
<path d="M896.067 440.206C908.218 436.932 911.754 421.554 901.866 413.771C855.456 377.241 798.693 344.656 735.1 318.145C666.814 289.678 592.544 269.002 517.752 257.578C507.667 256.038 498.971 264.517 500.034 274.664L502.887 301.887C503.648 309.154 509.3 314.932 516.529 316.002C576.805 324.928 636.739 341.47 691.759 364.407C747.406 387.606 796.441 416.684 835.091 449.362C839.137 452.783 844.587 454.078 849.704 452.699L896.067 440.206Z"/>
</mask>
<path d="M896.067 440.206C908.218 436.932 911.754 421.554 901.866 413.771C855.456 377.241 798.693 344.656 735.1 318.145C666.814 289.678 592.544 269.002 517.752 257.578C507.667 256.038 498.971 264.517 500.034 274.664L502.887 301.887C503.648 309.154 509.3 314.932 516.529 316.002C576.805 324.928 636.739 341.47 691.759 364.407C747.406 387.606 796.441 416.684 835.091 449.362C839.137 452.783 844.587 454.078 849.704 452.699L896.067 440.206Z" fill="white" stroke="#ED427F" stroke-width="14" mask="url(#path-29-inside-8_940_683)"/>
<mask id="path-30-inside-9_940_683" fill="white">
<path d="M892.238 381.1C904.229 377.331 907.146 361.839 897.003 354.416C850.414 320.323 794.793 290.128 733.304 265.636C667.415 239.392 596.452 220.36 525.167 209.761C515.019 208.252 506.335 216.867 507.538 227.057L510.762 254.36C511.613 261.565 517.267 267.245 524.448 268.276C582.033 276.548 639.435 291.797 692.653 312.994C746.544 334.459 794.736 361.464 833.825 392.064C838.007 395.338 843.519 396.413 848.586 394.821L892.238 381.1Z"/>
</mask>
<path d="M892.238 381.1C904.229 377.331 907.146 361.839 897.003 354.416C850.414 320.323 794.793 290.128 733.304 265.636C667.415 239.392 596.452 220.36 525.167 209.761C515.019 208.252 506.335 216.867 507.538 227.057L510.762 254.36C511.613 261.565 517.267 267.245 524.448 268.276C582.033 276.548 639.435 291.797 692.653 312.994C746.544 334.459 794.736 361.464 833.825 392.064C838.007 395.338 843.519 396.413 848.586 394.821L892.238 381.1Z" fill="white" stroke="#ED427F" stroke-width="14" mask="url(#path-30-inside-9_940_683)"/>
<mask id="path-31-inside-10_940_683" fill="white">
<path d="M879.648 316.553C891.285 312.023 893.245 296.495 882.813 289.63C837.024 259.497 784.141 233.025 726.727 211.56C665.368 188.62 600.145 171.89 534.746 162.275C524.572 160.779 515.893 169.449 517.154 179.655L520.529 206.992C521.416 214.171 527.07 219.811 534.232 220.827C587.192 228.339 640.079 241.767 689.764 260.342C740.187 279.193 786.191 302.927 825.003 330.086C829.406 333.167 835.05 333.914 840.058 331.964L879.648 316.553Z"/>
</mask>
<path d="M879.648 316.553C891.285 312.023 893.245 296.495 882.813 289.63C837.024 259.497 784.141 233.025 726.727 211.56C665.368 188.62 600.145 171.89 534.746 162.275C524.572 160.779 515.893 169.449 517.154 179.655L520.529 206.992C521.416 214.171 527.07 219.811 534.232 220.827C587.192 228.339 640.079 241.767 689.764 260.342C740.187 279.193 786.191 302.927 825.003 330.086C829.406 333.167 835.05 333.914 840.058 331.964L879.648 316.553Z" fill="white" stroke="#ED427F" stroke-width="14" mask="url(#path-31-inside-10_940_683)"/>
<mask id="path-32-inside-11_940_683" fill="white">
<path d="M871.992 256.71C883.269 251.6 884.495 236.158 873.918 229.721C829.305 202.569 778.898 178.827 724.832 159.55C667.197 139.001 606.476 123.907 545.644 114.974C535.467 113.479 526.79 122.156 528.056 132.364L531.45 159.705C532.34 166.881 537.994 172.516 545.154 173.531C594.504 180.52 643.825 192.652 690.579 209.321C738.096 226.264 782.04 247.565 820.094 272.084C824.683 275.04 830.456 275.53 835.429 273.277L871.992 256.71Z"/>
</mask>
<path d="M871.992 256.71C883.269 251.6 884.495 236.158 873.918 229.721C829.305 202.569 778.898 178.827 724.832 159.55C667.197 139.001 606.476 123.907 545.644 114.974C535.467 113.479 526.79 122.156 528.056 132.364L531.45 159.705C532.34 166.881 537.994 172.516 545.154 173.531C594.504 180.52 643.825 192.652 690.579 209.321C738.096 226.264 782.04 247.565 820.094 272.084C824.683 275.04 830.456 275.53 835.429 273.277L871.992 256.71Z" fill="white" stroke="#ED427F" stroke-width="14" mask="url(#path-32-inside-11_940_683)"/>
<mask id="path-33-inside-12_940_683" fill="white">
<path d="M856.915 193.275C867.578 187.395 867.825 172.225 857.15 166.367C768.415 117.666 662.229 82.9187 554.341 67.3622C544.123 65.8889 535.455 74.6537 536.813 84.8875L540.448 112.28C541.395 119.415 547.05 124.988 554.179 125.978C645.348 138.627 735.195 168.658 808.552 211.026C813.42 213.838 819.405 213.96 824.329 211.245L856.915 193.275Z"/>
</mask>
<path d="M856.915 193.275C867.578 187.395 867.825 172.225 857.15 166.367C768.415 117.666 662.229 82.9187 554.341 67.3622C544.123 65.8889 535.455 74.6537 536.813 84.8875L540.448 112.28C541.395 119.415 547.05 124.988 554.179 125.978C645.348 138.627 735.195 168.658 808.552 211.026C813.42 213.838 819.405 213.96 824.329 211.245L856.915 193.275Z" fill="white" stroke="#ED427F" stroke-width="14" mask="url(#path-33-inside-12_940_683)"/>
<ellipse cx="29.2404" cy="15.2533" rx="29.2404" ry="15.2533" transform="matrix(0.973668 0.227969 0.227969 -0.973668 626.934 38.7422)" fill="#ED427F"/>
<mask id="mask1_940_683" style="mask-type:alpha" maskUnits="userSpaceOnUse" x="731" y="583" width="263" height="194">
<mask id="path-35-inside-13_940_683" fill="white">
<path d="M884.005 588.627C955.364 605.335 1003.62 659.831 991.795 710.348C979.967 760.865 912.532 788.274 841.173 771.566C769.815 754.859 721.556 700.362 733.384 649.845C745.211 599.328 812.647 571.92 884.005 588.627Z"/>
</mask>
<path d="M884.005 588.627C955.364 605.335 1003.62 659.831 991.795 710.348C979.967 760.865 912.532 788.274 841.173 771.566C769.815 754.859 721.556 700.362 733.384 649.845C745.211 599.328 812.647 571.92 884.005 588.627Z" fill="#FFB6CC"/>
<path d="M882.41 595.443C916.845 603.506 945.417 620.629 963.854 641.45C982.306 662.286 990.238 686.294 984.979 708.753L998.611 711.944C1005.18 683.886 994.896 655.387 974.336 632.169C953.761 608.935 922.524 590.457 885.601 581.812L882.41 595.443ZM984.979 708.753C979.721 731.211 961.956 749.202 936.172 759.682C910.408 770.153 877.205 772.813 842.769 764.751L839.577 778.382C876.5 787.027 912.693 784.336 941.444 772.651C970.175 760.974 992.041 740.002 998.611 711.944L984.979 708.753ZM842.769 764.751C808.333 756.688 779.762 739.564 761.324 718.744C742.873 697.907 734.941 673.9 740.199 651.441L726.568 648.25C719.999 676.308 730.282 704.807 750.843 728.025C771.418 751.259 802.655 769.737 839.577 778.382L842.769 764.751ZM740.199 651.441C745.458 628.982 763.223 610.991 789.006 600.512C814.77 590.041 847.974 587.381 882.41 595.443L885.601 581.812C848.679 573.167 812.485 575.857 783.735 587.542C755.004 599.22 733.137 620.191 726.568 648.25L740.199 651.441Z" fill="#ED427F" mask="url(#path-35-inside-13_940_683)"/>
</mask>
<g mask="url(#mask1_940_683)">
<path d="M973.928 841.848L1014.57 828.514L1019.39 806.776L884.682 705.346L845.176 717.275L839.218 740.418L973.928 841.848Z" fill="#ED427F"/>
<path d="M979.868 815.626L851.972 719.327L884.51 708.652L1012.41 804.951L979.868 815.626Z" fill="white" stroke="#ED427F" stroke-width="7"/>
<path d="M914.24 823.129L962.047 810.021L966.121 786.589L818.527 679.339L772.279 690.37L768.415 713.524L914.24 823.129Z" fill="#ED427F"/>
<path d="M919.221 795.636L780.472 691.349L819.744 680.582L958.492 784.869L919.221 795.636Z" fill="white" stroke="#ED427F" stroke-width="7"/>
<path d="M835.13 803.131L892.817 794.127L898.895 768.166L752.318 646.915L694.238 656.396L688.553 681.88L835.13 803.131Z" fill="#ED427F"/>
<path d="M842.22 773.465L702.849 658.174L751.297 650.612L890.668 765.902L842.22 773.465Z" fill="white" stroke="#ED427F" stroke-width="7"/>
</g>
<mask id="path-43-inside-14_940_683" fill="white">
<path d="M883.996 588.626C955.354 605.333 1003.61 659.829 991.785 710.346C979.957 760.863 912.522 788.272 841.163 771.564C769.805 754.857 721.546 700.361 733.374 649.843C745.202 599.326 812.637 571.918 883.996 588.626Z"/>
</mask>
<path d="M882.4 595.441C916.836 603.504 945.407 620.628 963.845 641.448C982.296 662.284 990.228 686.292 984.97 708.751L998.601 711.942C1005.17 683.884 994.886 655.385 974.326 632.167C953.751 608.933 922.514 590.455 885.591 581.81L882.4 595.441ZM984.97 708.751C979.711 731.209 961.946 749.2 936.163 759.68C910.399 770.151 877.195 772.811 842.759 764.749L839.568 778.38C876.49 787.025 912.684 784.334 941.434 772.649C970.165 760.972 992.032 740 998.601 711.942L984.97 708.751ZM842.759 764.749C808.324 756.686 779.752 739.562 761.314 718.742C742.863 697.905 734.931 673.898 740.19 651.439L726.558 648.248C719.989 676.306 730.273 704.805 750.833 728.023C771.408 751.257 802.645 769.735 839.568 778.38L842.759 764.749ZM740.19 651.439C745.448 628.98 763.213 610.989 788.997 600.51C814.761 590.039 847.964 587.379 882.4 595.441L885.591 581.81C848.669 573.165 812.475 575.855 783.725 587.54C754.994 599.218 733.128 620.189 726.558 648.248L740.19 651.439Z" fill="#ED427F" mask="url(#path-43-inside-14_940_683)"/>
<path d="M710.21 614.208C708.007 623.62 701.269 631.825 690.311 638.507C679.339 645.197 664.373 650.198 646.335 653.193C610.276 659.181 562.649 657.04 512.074 645.199C461.5 633.358 417.873 614.133 388.22 592.759C373.386 582.068 362.196 570.943 355.334 560.077C348.482 549.226 346.087 538.882 348.291 529.47L362.194 470.089L724.114 554.826L710.21 614.208Z" fill="#ED427F" stroke="#ED427F" stroke-width="7"/>
<path d="M724.23 554.328C722.027 563.739 715.289 571.945 704.331 578.627C693.359 585.317 678.393 590.317 660.355 593.313C624.296 599.301 576.669 597.16 526.095 585.319C475.52 573.478 431.893 554.253 402.24 532.879C387.407 522.187 376.216 511.063 369.355 500.197C362.502 489.346 360.107 479.001 362.311 469.59C364.514 460.179 371.252 451.973 382.21 445.291C393.182 438.601 408.148 433.601 426.186 430.605C462.245 424.617 509.872 426.758 560.447 438.599C611.021 450.44 654.648 469.665 684.301 491.039C699.135 501.731 710.325 512.855 717.187 523.721C724.039 534.572 726.434 544.916 724.23 554.328Z" fill="white" stroke="#ED427F" stroke-width="7"/>
<path d="M500.301 504.922C500.303 504.913 500.304 504.905 500.305 504.899L613.284 22.361L703.374 43.4542L590.395 525.992C590.393 525.998 590.391 526.006 590.388 526.015C590.378 526.048 590.359 526.103 590.332 526.177C590.312 526.231 590.286 526.296 590.256 526.37C590.11 526.719 589.841 527.274 589.382 527.945C588.476 529.27 586.78 531.122 583.678 532.738C577.445 535.985 565.074 538.502 541.257 532.926C517.441 527.35 507.473 519.603 503.329 513.926C501.267 511.1 500.569 508.688 500.346 507.099C500.232 506.293 500.238 505.677 500.262 505.3C500.275 505.111 500.292 504.983 500.301 504.922Z" fill="#ED427F" stroke="#ED427F" stroke-width="7"/>
<mask id="path-48-inside-15_940_683" fill="white">
<path d="M714.032 43.4663C716.308 33.7481 693.46 20.0886 663 12.957C632.54 5.82531 606.003 7.92206 603.728 17.6402C601.452 27.3584 624.3 41.0178 654.76 48.1495C685.22 55.2812 711.757 53.1844 714.032 43.4663Z"/>
</mask>
<path d="M714.032 43.4663C716.308 33.7481 693.46 20.0886 663 12.957C632.54 5.82531 606.003 7.92206 603.728 17.6402C601.452 27.3584 624.3 41.0178 654.76 48.1495C685.22 55.2812 711.757 53.1844 714.032 43.4663Z" fill="white"/>
<path d="M720.848 45.0621C722.146 39.518 719.586 34.6108 716.68 31.122C713.68 27.5209 709.352 24.2037 704.384 21.2335C694.375 15.25 680.33 9.82522 664.596 6.1413L661.404 19.7727C676.13 23.2204 688.738 28.1912 697.2 33.2499C701.467 35.8008 704.327 38.1664 705.923 40.0825C707.613 42.1109 707.056 42.5555 707.217 41.8705L720.848 45.0621ZM664.596 6.1413C648.861 2.45738 633.868 1.08318 622.243 2.00166C616.473 2.45758 611.122 3.50837 606.835 5.40349C602.682 7.23951 598.21 10.5004 596.912 16.0444L610.543 19.236C610.383 19.921 610.081 19.2754 612.496 18.208C614.777 17.1996 618.39 16.3497 623.346 15.9582C633.174 15.1816 646.679 16.3249 661.404 19.7727L664.596 6.1413ZM596.912 16.0444C595.614 21.5885 598.174 26.4957 601.08 29.9845C604.08 33.5856 608.408 36.9028 613.376 39.873C623.385 45.8565 637.43 51.2813 653.164 54.9652L656.356 41.3338C641.63 37.8861 629.022 32.9153 620.56 27.8566C616.293 25.3057 613.433 22.9401 611.837 21.024C610.147 18.9955 610.704 18.551 610.543 19.236L596.912 16.0444ZM653.164 54.9652C668.899 58.6491 683.892 60.0233 695.517 59.1048C701.287 58.6489 706.638 57.5981 710.925 55.703C715.078 53.867 719.55 50.6061 720.848 45.0621L707.217 41.8705C707.377 41.1855 707.679 41.831 705.264 42.8985C702.983 43.9069 699.37 44.7567 694.414 45.1483C684.586 45.9248 671.081 44.7816 656.356 41.3338L653.164 54.9652Z" fill="#ED427F" mask="url(#path-48-inside-15_940_683)"/>
<mask id="path-50-inside-16_940_683" fill="white">
<path d="M689.794 117.111C692.07 107.393 672.205 94.4323 645.426 88.1624C618.647 81.8924 595.093 84.6877 592.818 94.4058C590.542 104.124 610.407 117.085 637.186 123.355C663.966 129.625 687.519 126.83 689.794 117.111Z"/>
</mask>
<path d="M689.794 117.111C692.07 107.393 672.205 94.4323 645.426 88.1624C618.647 81.8924 595.093 84.6877 592.818 94.4058C590.542 104.124 610.407 117.085 637.186 123.355C663.966 129.625 687.519 126.83 689.794 117.111Z" fill="white"/>
<path d="M696.61 118.707C697.82 113.538 695.858 108.819 693.237 105.236C690.597 101.629 686.741 98.3592 682.331 95.4813C673.458 89.6919 660.991 84.6174 647.022 81.3467L643.83 94.978C656.64 97.9773 667.495 102.518 674.681 107.206C678.299 109.567 680.657 111.752 681.938 113.504C683.239 115.28 682.906 115.826 682.979 115.516L696.61 118.707ZM647.022 81.3467C633.052 78.0759 619.629 77.0887 609.108 78.3373C603.878 78.958 598.972 80.1761 595.005 82.2369C591.066 84.2833 587.212 87.6411 586.002 92.8101L599.633 96.0016C599.561 96.3115 599.505 95.6755 601.459 94.6605C603.385 93.66 606.468 92.7489 610.758 92.2398C619.277 91.2287 631.02 91.9788 643.83 94.978L647.022 81.3467ZM586.002 92.8101C584.792 97.9791 586.754 102.698 589.375 106.281C592.015 109.889 595.871 113.158 600.281 116.036C609.154 121.825 621.621 126.9 635.59 130.171L638.782 116.539C625.972 113.54 615.117 108.999 607.932 104.311C604.313 101.95 601.955 99.7653 600.674 98.0137C599.374 96.2368 599.706 95.6917 599.633 96.0016L586.002 92.8101ZM635.59 130.171C649.56 133.441 662.983 134.429 673.504 133.18C678.734 132.559 683.64 131.341 687.607 129.28C691.547 127.234 695.4 123.876 696.61 118.707L682.979 115.516C683.051 115.206 683.107 115.842 681.153 116.857C679.227 117.857 676.145 118.768 671.854 119.277C663.335 120.289 651.592 119.538 638.782 116.539L635.59 130.171Z" fill="#ED427F" mask="url(#path-50-inside-16_940_683)"/>
<mask id="path-52-inside-17_940_683" fill="white">
<path d="M670.629 199.01C672.904 189.292 653.143 176.355 626.49 170.115C599.837 163.874 576.386 166.694 574.111 176.412C571.835 186.13 591.597 199.067 618.25 205.307C644.903 211.547 668.354 208.728 670.629 199.01Z"/>
</mask>
<path d="M670.629 199.01C672.904 189.292 653.143 176.355 626.49 170.115C599.837 163.874 576.386 166.694 574.111 176.412C571.835 186.13 591.597 199.067 618.25 205.307C644.903 211.547 668.354 208.728 670.629 199.01Z" fill="white"/>
<path d="M677.445 200.606C678.652 195.45 676.71 190.738 674.099 187.152C671.472 183.544 667.633 180.276 663.241 177.401C654.407 171.618 641.995 166.556 628.085 163.299L624.894 176.93C637.638 179.914 648.432 184.44 655.573 189.115C659.169 191.469 661.51 193.647 662.781 195.393C664.069 197.162 663.744 197.711 663.813 197.414L677.445 200.606ZM628.085 163.299C614.176 160.042 600.806 159.068 590.323 160.329C585.112 160.955 580.221 162.179 576.265 164.246C572.334 166.3 568.502 169.66 567.295 174.816L580.926 178.007C580.857 178.304 580.809 177.668 582.748 176.655C584.662 175.655 587.727 174.742 591.994 174.229C600.468 173.21 612.15 173.947 624.894 176.93L628.085 163.299ZM567.295 174.816C566.088 179.972 568.03 184.684 570.641 188.269C573.268 191.877 577.106 195.145 581.498 198.02C590.332 203.803 602.745 208.866 616.654 212.123L619.846 198.491C607.102 195.508 596.307 190.982 589.166 186.307C585.57 183.953 583.229 181.774 581.958 180.029C580.67 178.26 580.996 177.711 580.926 178.007L567.295 174.816ZM616.654 212.123C630.563 215.379 643.933 216.353 654.417 215.093C659.628 214.466 664.519 213.242 668.474 211.176C672.405 209.122 676.238 205.762 677.445 200.606L663.813 197.414C663.883 197.117 663.931 197.754 661.991 198.767C660.077 199.767 657.013 200.68 652.745 201.193C644.271 202.212 632.589 201.475 619.846 198.491L616.654 212.123Z" fill="#ED427F" mask="url(#path-52-inside-17_940_683)"/>
<mask id="path-54-inside-18_940_683" fill="white">
<path d="M651.586 280.35C653.861 270.632 634.1 257.695 607.447 251.454C580.794 245.214 557.343 248.033 555.068 257.752C552.792 267.47 572.554 280.407 599.207 286.647C625.86 292.887 649.311 290.068 651.586 280.35Z"/>
</mask>
<path d="M651.586 280.35C653.861 270.632 634.1 257.695 607.447 251.454C580.794 245.214 557.343 248.033 555.068 257.752C552.792 267.47 572.554 280.407 599.207 286.647C625.86 292.887 649.311 290.068 651.586 280.35Z" fill="white"/>
<path d="M658.402 281.946C659.609 276.79 657.667 272.077 655.056 268.492C652.429 264.884 648.59 261.616 644.198 258.741C635.364 252.958 622.952 247.895 609.042 244.639L605.851 258.27C618.595 261.254 629.389 265.78 636.53 270.455C640.126 272.809 642.467 274.987 643.738 276.733C645.026 278.502 644.701 279.051 644.77 278.754L658.402 281.946ZM609.042 244.639C595.133 241.382 581.763 240.408 571.28 241.669C566.069 242.295 561.178 243.519 557.222 245.586C553.291 247.64 549.459 251 548.252 256.156L561.883 259.347C561.814 259.644 561.766 259.008 563.705 257.994C565.619 256.994 568.684 256.082 572.951 255.568C581.425 254.55 593.107 255.286 605.851 258.27L609.042 244.639ZM548.252 256.156C547.045 261.312 548.987 266.024 551.598 269.609C554.225 273.217 558.064 276.485 562.455 279.36C571.289 285.143 583.702 290.206 597.611 293.463L600.803 279.831C588.059 276.848 577.264 272.322 570.123 267.647C566.527 265.293 564.187 263.114 562.915 261.368C561.627 259.6 561.953 259.051 561.883 259.347L548.252 256.156ZM597.611 293.463C611.52 296.719 624.89 297.693 635.374 296.433C640.585 295.806 645.476 294.582 649.431 292.515C653.362 290.462 657.195 287.101 658.402 281.946L644.77 278.754C644.84 278.457 644.888 279.094 642.948 280.107C641.034 281.107 637.97 282.02 633.702 282.533C625.228 283.552 613.546 282.815 600.803 279.831L597.611 293.463Z" fill="#ED427F" mask="url(#path-54-inside-18_940_683)"/>
<mask id="path-56-inside-19_940_683" fill="white">
<path d="M604.537 480.96C606.813 471.242 587.067 458.309 560.433 452.073C533.8 445.837 510.365 448.66 508.089 458.378C505.814 468.096 525.56 481.03 552.193 487.265C578.827 493.501 602.262 490.678 604.537 480.96Z"/>
</mask>
<path d="M604.537 480.96C606.813 471.242 587.067 458.309 560.433 452.073C533.8 445.837 510.365 448.66 508.089 458.378C505.814 468.096 525.56 481.03 552.193 487.265C578.827 493.501 602.262 490.678 604.537 480.96Z" fill="white"/>
<path d="M611.353 482.556C612.56 477.402 610.62 472.691 608.012 469.105C605.386 465.497 601.55 462.229 597.161 459.355C588.333 453.573 575.929 448.512 562.029 445.257L558.837 458.889C571.571 461.87 582.356 466.394 589.491 471.066C593.083 473.419 595.421 475.597 596.691 477.342C597.977 479.109 597.653 479.659 597.722 479.364L611.353 482.556ZM562.029 445.257C548.129 442.003 534.767 441.031 524.29 442.293C519.081 442.921 514.193 444.146 510.239 446.213C506.31 448.268 502.48 451.629 501.274 456.783L514.905 459.974C514.836 460.269 514.79 459.632 516.727 458.619C518.639 457.619 521.701 456.706 525.964 456.193C534.431 455.173 546.104 455.907 558.837 458.889L562.029 445.257ZM501.274 456.783C500.067 461.936 502.006 466.648 504.615 470.233C507.24 473.841 511.077 477.109 515.465 479.984C524.293 485.766 536.698 490.827 550.598 494.081L553.789 480.45C541.056 477.468 530.27 472.945 523.136 468.272C519.544 465.919 517.205 463.742 515.936 461.997C514.65 460.229 514.974 459.679 514.905 459.974L501.274 456.783ZM550.598 494.081C564.498 497.336 577.859 498.307 588.337 497.045C593.545 496.418 598.434 495.193 602.388 493.125C606.317 491.07 610.146 487.71 611.353 482.556L597.722 479.364C597.791 479.07 597.837 479.706 595.9 480.719C593.988 481.719 590.926 482.632 586.662 483.146C578.195 484.166 566.523 483.431 553.789 480.45L550.598 494.081Z" fill="#ED427F" mask="url(#path-56-inside-19_940_683)"/>
<path d="M652.756 251.226L728.449 254.562L682.136 452.366L729.363 447.696" stroke="#ED427F" stroke-width="29" stroke-linecap="round" stroke-linejoin="round"/>
<path d="M565.655 306.876L506.854 304.958L470.637 459.644L418.142 461.938" stroke="#ED427F" stroke-width="29" stroke-linecap="round" stroke-linejoin="round"/>
<path d="M571.633 522.598L618.293 579.23L637.052 499.111L678.651 536.388" stroke="#ED427F" stroke-width="29" stroke-linecap="round" stroke-linejoin="round"/>
<path d="M33.6977 517.061L33.6918 516.964L33.6805 516.867C27.6241 464.991 43.355 349.55 166.543 298.121C169.675 296.813 173.34 297.214 176.204 299.169L229.878 335.801C233.473 338.255 235.189 342.666 234.197 346.903L227.159 376.961C226.405 380.181 224.139 382.907 221.028 384.395C153.537 416.678 132.975 475.512 136.488 533.38C140.143 593.58 185.909 656.626 262.337 708.987C338.887 761.43 440.556 799.328 545.005 814.451L545.093 814.464L545.181 814.472C585.043 818.195 646.099 821.577 702.514 816.917C730.716 814.587 757.896 810.238 780.74 802.849C803.513 795.484 822.423 784.957 833.536 769.959C836.034 766.587 839.75 763.931 843.636 762.728C847.494 761.533 851.238 761.832 854.231 763.859L895.42 791.765C899.034 794.214 900.763 798.638 899.768 802.888L892.419 834.273C891.656 837.531 889.421 840.201 886.396 841.449C797.015 878.319 679.318 888.168 549.765 869.409C417.112 850.202 288.168 802.077 191.325 735.732C94.3609 669.303 38.1572 590.524 33.6977 517.061Z" fill="#ED427F" stroke="#ED427F" stroke-width="7"/>
<mask id="path-62-inside-20_940_683" fill="white">
<path d="M178.322 295.875C174.339 293.147 169.215 292.643 164.828 294.658C78.5034 334.317 32.6335 397.206 37.0687 470.268C41.6239 545.306 98.8694 624.926 196.212 691.614C293.554 758.302 423.02 806.595 556.128 825.868C678.071 843.525 793.92 835.502 882.388 803.713C892.775 799.981 894.143 786.275 885.038 780.037L845.861 753.197C841.878 750.469 836.782 750 832.306 751.81C758.505 781.659 658.547 789.87 553.015 774.589C444.032 758.809 338.031 719.269 258.331 664.668C178.632 610.066 131.762 544.876 128.032 483.439C124.704 428.619 155.967 380.793 215.615 348.19C225.299 342.897 226.605 328.953 217.499 322.715L178.322 295.875Z"/>
</mask>
<path d="M178.322 295.875C174.339 293.147 169.215 292.643 164.828 294.658C78.5034 334.317 32.6335 397.206 37.0687 470.268C41.6239 545.306 98.8694 624.926 196.212 691.614C293.554 758.302 423.02 806.595 556.128 825.868C678.071 843.525 793.92 835.502 882.388 803.713C892.775 799.981 894.143 786.275 885.038 780.037L845.861 753.197C841.878 750.469 836.782 750 832.306 751.81C758.505 781.659 658.547 789.87 553.015 774.589C444.032 758.809 338.031 719.269 258.331 664.668C178.632 610.066 131.762 544.876 128.032 483.439C124.704 428.619 155.967 380.793 215.615 348.19C225.299 342.897 226.605 328.953 217.499 322.715L178.322 295.875Z" fill="white" stroke="#ED427F" stroke-width="14" mask="url(#path-62-inside-20_940_683)"/>
<line x1="636.971" y1="10.6984" x2="624.391" y2="34.0802" stroke="#ED427F" stroke-width="7"/>
<line y1="-3.5" x2="26.5513" y2="-3.5" transform="matrix(0.033617 0.999435 0.999435 -0.033617 692.711 22.8135)" stroke="#ED427F" stroke-width="7"/>
<line x1="651.98" y1="13.2754" x2="644.383" y2="45.7231" stroke="#ED427F" stroke-width="7"/>
<line x1="702.808" y1="33.5855" x2="618.167" y2="13.7683" stroke="#ED427F" stroke-width="7" stroke-linecap="round"/>
<line x1="699.148" y1="49.2193" x2="614.507" y2="29.4021" stroke="#ED427F" stroke-width="7" stroke-linecap="round"/>
<line x1="707.308" y1="42.9898" x2="609.95" y2="20.195" stroke="#ED427F" stroke-width="7" stroke-linecap="round"/>
<line x1="674.117" y1="17.0166" x2="666.52" y2="49.4643" stroke="#ED427F" stroke-width="7"/>
</g>
<defs>
<clipPath id="clip0_940_683">
<rect width="1067" height="1075" fill="white"/>
</clipPath>
</defs>
</svg>
