<svg width="1131" height="1131" viewBox="0 0 1131 1131" fill="none" xmlns="http://www.w3.org/2000/svg">
<g clip-path="url(#clip0_940_683)">
<mask id="path-1-inside-1_940_683" fill="white">
<path d="M1076.31 419.771C1159.11 700.131 998.956 994.53 718.596 1077.33C438.236 1160.13 143.837 999.974 61.0375 719.614C-21.7618 439.254 138.393 144.855 418.753 62.0555C699.113 -20.7438 993.512 139.411 1076.31 419.771Z"/>
</mask>
<path d="M1076.31 419.771C1159.11 700.131 998.956 994.53 718.596 1077.33C438.236 1160.13 143.837 999.974 61.0375 719.614C-21.7618 439.254 138.393 144.855 418.753 62.0555C699.113 -20.7438 993.512 139.411 1076.31 419.771Z" fill="#CFFFCB"/>
<path d="M1069.6 421.754C1151.3 698.406 993.265 988.912 716.613 1070.62L720.578 1084.04C1004.65 1000.15 1166.92 701.856 1083.02 417.788L1069.6 421.754ZM716.613 1070.62C439.961 1152.32 149.455 994.283 67.7508 717.631L54.3241 721.596C138.218 1005.66 436.511 1167.94 720.578 1084.04L716.613 1070.62ZM67.7508 717.631C-13.9534 440.979 144.083 150.473 420.736 68.7688L416.77 55.3421C132.703 139.236 -29.5701 437.529 54.3241 721.596L67.7508 717.631ZM420.736 68.7688C697.388 -12.9354 987.894 145.101 1069.6 421.754L1083.02 417.788C999.13 133.721 700.838 -28.5521 416.77 55.3421L420.736 68.7688Z" fill="#5EE453" mask="url(#path-1-inside-1_940_683)"/>
<circle cx="343.763" cy="971.326" r="65.5897" transform="rotate(-16.4536 343.763 971.326)" fill="#5EE453"/>
<circle cx="525.609" cy="976.259" r="121.789" transform="rotate(-16.4536 525.609 976.259)" fill="#5EE453"/>
<circle cx="770.784" cy="932.574" r="39.5286" transform="rotate(-16.4536 770.784 932.574)" fill="#5EE453"/>
<circle cx="254.993" cy="940.879" r="39.5286" transform="rotate(-16.4536 254.993 940.879)" fill="#5EE453"/>
<circle cx="860.705" cy="957.935" r="39.5286" transform="rotate(-16.4536 860.705 957.935)" fill="#5EE453"/>
<circle cx="629.191" cy="1072.66" r="22.0306" transform="rotate(-16.4536 629.191 1072.66)" fill="#5EE453"/>
<circle cx="402.745" cy="1045.27" r="22.0306" transform="rotate(-16.4536 402.745 1045.27)" fill="#5EE453"/>
<circle cx="706.415" cy="1015.17" r="65.5897" transform="rotate(-16.4536 706.415 1015.17)" fill="#5EE453"/>
<circle cx="871.8" cy="749.472" r="172.858" transform="rotate(-16.4536 871.8 749.472)" fill="#5EE453"/>
<path d="M409.578 536.775C410.924 589.818 396.151 638.108 371.348 673.303C346.545 708.497 311.877 730.414 273.303 731.393C234.728 732.372 198.994 712.241 172.437 678.35C145.881 644.459 128.678 596.98 127.332 543.937C125.986 490.894 140.759 442.603 165.562 407.409C190.365 372.214 225.033 350.297 263.607 349.318C302.182 348.34 337.916 368.47 364.473 402.362C391.029 436.253 408.232 483.732 409.578 536.775Z" fill="white" fill-opacity="0.7" stroke="#5EE453" stroke-width="7"/>
<path d="M342.261 507.028C343.18 543.261 334.619 576.138 320.218 599.99C305.792 623.883 285.819 638.302 263.913 638.858C242.007 639.414 221.328 626.027 205.709 602.896C190.117 579.805 179.899 547.404 178.98 511.171C178.06 474.939 186.622 442.062 201.023 418.209C215.448 394.316 235.422 379.897 257.328 379.341C279.234 378.786 299.913 392.173 315.531 415.304C331.123 438.395 341.342 470.796 342.261 507.028Z" fill="#CFFFCB" stroke="#5EE453" stroke-width="7"/>
<path d="M1083.32 510.946C1104.38 582.242 1069.85 663.447 995.218 737.332C920.701 811.102 806.83 876.86 671.227 916.908C535.624 956.955 404.298 963.612 301.66 942.162C198.862 920.678 125.758 871.259 104.702 799.964C83.6461 728.669 118.173 647.464 192.806 573.579C267.322 499.809 381.194 434.051 516.797 394.003C652.399 353.955 783.725 347.298 886.363 368.749C989.161 390.233 1062.27 439.651 1083.32 510.946Z" fill="white" stroke="#5EE453" stroke-width="7"/>
<path d="M311.179 993.356C294.374 981.363 278.803 962.777 266.923 939.545C292.654 949.752 345.777 963.351 411.144 958.985C402.987 983.311 388.049 1000.54 368.289 1006.38C350.03 1011.77 329.972 1006.77 311.179 993.356ZM413.295 951.816C340.564 957.194 283.087 939.762 262.352 929.959C258.852 922.073 255.775 913.738 253.202 905.026C242.936 870.266 242.697 836.293 250.434 809.526C258.184 782.714 273.745 763.617 294.76 757.41C315.776 751.203 339.216 758.783 360.288 777.083C381.326 795.352 399.581 824.004 409.847 858.764C419.803 892.473 420.329 925.441 413.295 951.816Z" fill="#CFFFCB" stroke="#5EE453" stroke-width="7"/>
<mask id="path-16-inside-2_940_683" fill="white">
<path fill-rule="evenodd" clip-rule="evenodd" d="M672.214 920.269C944.307 839.912 1129.87 656.21 1086.67 509.96C1043.48 363.71 787.894 310.294 515.801 390.651C243.709 471.009 58.149 654.71 101.341 800.96C114.008 843.849 144.94 878.754 189.198 904.643C167.145 806.106 203.706 713.061 275.411 691.884C351.451 669.427 438.218 736.293 469.211 841.234C481.002 881.16 483.021 920.846 476.81 955.931C538.98 951.774 605.095 940.092 672.214 920.269Z"/>
</mask>
<path fill-rule="evenodd" clip-rule="evenodd" d="M672.214 920.269C944.307 839.912 1129.87 656.21 1086.67 509.96C1043.48 363.71 787.894 310.294 515.801 390.651C243.709 471.009 58.149 654.71 101.341 800.96C114.008 843.849 144.94 878.754 189.198 904.643C167.145 806.106 203.706 713.061 275.411 691.884C351.451 669.427 438.218 736.293 469.211 841.234C481.002 881.16 483.021 920.846 476.81 955.931C538.98 951.774 605.095 940.092 672.214 920.269Z" fill="white"/>
<path d="M189.198 904.643L185.664 910.685L199.54 918.803L196.029 903.114L189.198 904.643ZM476.81 955.931L469.917 954.71L468.359 963.511L477.277 962.915L476.81 955.931ZM1079.96 511.943C1100.48 581.408 1067.01 661.331 992.751 734.85C918.721 808.138 805.391 873.639 670.232 913.556L674.197 926.982C811.13 886.542 926.626 820.013 1002.6 744.799C1078.34 669.815 1116.06 584.762 1093.39 507.977L1079.96 511.943ZM517.784 397.365C652.943 357.448 783.675 350.869 885.643 372.18C987.932 393.557 1059.45 442.477 1079.96 511.943L1093.39 507.977C1070.71 431.193 992.834 380.28 888.507 358.476C783.86 336.605 650.752 343.497 513.819 383.938L517.784 397.365ZM108.055 798.978C87.5392 729.512 121.002 649.589 195.264 576.071C269.294 502.782 382.625 437.281 517.784 397.365L513.819 383.938C376.886 424.379 261.39 490.907 185.415 566.122C109.672 641.106 71.9511 726.159 94.6279 802.943L108.055 798.978ZM192.732 898.601C149.607 873.374 120.098 839.756 108.055 798.978L94.6279 802.943C107.918 847.942 140.273 884.134 185.664 910.685L192.732 898.601ZM196.029 903.114C185.272 855.053 188.884 808.617 203.641 771.861C218.394 735.115 244.066 708.44 277.394 698.597L273.428 685.171C235.05 696.505 206.59 726.94 190.649 766.645C174.712 806.34 171.07 855.696 182.367 906.172L196.029 903.114ZM277.394 698.597C312.726 688.163 351.143 698.291 384.931 724.329C418.711 750.362 447.373 792.006 462.497 843.217L475.924 839.252C460.056 785.522 429.838 741.262 393.477 713.24C357.123 685.225 314.136 673.148 273.428 685.171L277.394 698.597ZM462.497 843.217C473.999 882.162 475.929 920.751 469.917 954.71L483.702 957.151C490.113 920.941 488.005 880.159 475.924 839.252L462.497 843.217ZM670.232 913.556C603.587 933.238 537.98 944.825 476.343 948.946L477.277 962.915C539.98 958.723 606.603 946.945 674.197 926.982L670.232 913.556Z" fill="#5EE453" mask="url(#path-16-inside-2_940_683)"/>
<path d="M720.746 590.331C726.976 611.428 718.481 635.33 698.42 657.111C678.414 678.83 647.315 697.912 609.815 708.987C572.314 720.062 535.838 720.937 507.243 713.571C478.568 706.184 458.45 690.732 452.219 669.636C445.989 648.539 454.484 624.637 474.546 602.856C494.551 581.137 525.65 562.055 563.15 550.98C600.651 539.905 637.127 539.03 665.722 546.396C694.397 553.783 714.515 569.235 720.746 590.331Z" fill="white" stroke="#5EE453" stroke-width="7"/>
<path fill-rule="evenodd" clip-rule="evenodd" d="M1087.87 571.447C1096.34 519.396 1065.44 418.894 1014.25 362.689L716.529 426.411L728.231 601.223L779.16 597.007C770.16 544.674 771.802 443.515 878.307 427.933C995.099 410.845 1032.31 518.275 1033.94 575.913L1087.87 571.447Z" fill="white"/>
<path d="M1014.25 362.689L1016.83 360.332L1015.48 358.846L1013.51 359.267L1014.25 362.689ZM1087.87 571.447L1088.16 574.935L1090.89 574.709L1091.33 572.009L1087.87 571.447ZM716.529 426.411L715.796 422.988L712.834 423.622L713.036 426.645L716.529 426.411ZM728.231 601.223L724.739 601.457L724.977 605.005L728.52 604.712L728.231 601.223ZM779.16 597.007L779.448 600.495L783.257 600.18L782.609 596.414L779.16 597.007ZM878.307 427.933L877.801 424.469L877.801 424.469L878.307 427.933ZM1033.94 575.913L1030.44 576.011L1030.54 579.706L1034.23 579.401L1033.94 575.913ZM1011.66 365.046C1036.84 392.693 1057.15 431.402 1070.12 469.747C1083.1 508.163 1088.52 545.67 1084.42 570.885L1091.33 572.009C1095.69 545.173 1089.89 506.404 1076.75 467.505C1063.58 428.535 1042.84 388.891 1016.83 360.332L1011.66 365.046ZM717.261 429.833L1014.98 366.112L1013.51 359.267L715.796 422.988L717.261 429.833ZM731.724 600.99L720.021 426.177L713.036 426.645L724.739 601.457L731.724 600.99ZM778.871 593.519L727.943 597.735L728.52 604.712L779.448 600.495L778.871 593.519ZM782.609 596.414C778.158 570.534 776.407 532.866 788.698 499.911C800.88 467.25 826.906 438.99 878.814 431.396L877.801 424.469C823.204 432.457 795.156 462.567 782.14 497.465C769.233 532.069 771.161 571.147 775.71 597.6L782.609 596.414ZM878.814 431.396C935.858 423.05 973.126 445.031 996.516 476.01C1020.08 507.218 1029.64 547.726 1030.44 576.011L1037.44 575.814C1036.61 546.462 1026.75 504.436 1002.1 471.792C977.282 438.918 937.549 415.728 877.801 424.469L878.814 431.396ZM1087.58 567.959L1033.65 572.425L1034.23 579.401L1088.16 574.935L1087.58 567.959Z" fill="#5EE453"/>
<path d="M943.08 618.628L996.506 632.308L1046.16 562.143L996.814 554.846L943.08 618.628Z" fill="white"/>
<path d="M996.506 632.308L943.08 618.628L996.814 554.846L1046.16 562.143L996.506 632.308ZM996.506 632.308L1006.93 667.617" stroke="#5EE453" stroke-width="7"/>
<path d="M935.016 708.073L990.723 742.48C989.023 684.964 972.883 557.852 921.926 509.533C870.969 461.214 746.509 454.336 690.648 456.937L735.55 608.973L750.181 611.739C741.203 569.574 751.632 506.461 827.238 522.487C902.843 538.512 918.39 651.778 935.016 708.073Z" fill="white" stroke="#5EE453" stroke-width="7"/>
<path d="M183.158 467.463L363.123 454.115C295.697 482.64 204.22 560.647 190.245 574.088C172.6 522.373 178.074 478.147 183.158 467.463Z" fill="#5EE453" stroke="#5EE453" stroke-width="7"/>
<path d="M581.512 512.316C604.708 502.979 625.346 491.179 641.146 478.121C657.852 464.316 668.785 449.397 671.871 435.027C675.034 420.301 669.71 407.278 657.065 397.858C644.647 388.607 625.761 383.221 603.05 381.93C580.263 380.635 554.229 383.494 528.088 390.109C501.943 396.724 476.701 406.84 455.413 419.26C434.893 431.233 418.704 444.965 408.875 459.017L256.92 464.114L256.895 464.115L256.871 464.116L94.0291 471.864C127.647 423.837 181.681 375.681 254.231 333.352C329.703 289.317 419.456 253.317 512.58 229.754C605.708 206.19 698.089 196.108 778.485 200.677C858.957 205.251 923.586 224.284 964.876 255.043C1005.94 285.633 1022.21 326.489 1012.22 372.971C1002.16 419.809 965.776 470.794 906.734 519.588C848.305 567.876 770.522 611.668 682.644 645.684L581.512 512.316Z" fill="white" stroke="#5EE453" stroke-width="7"/>
<path d="M579.116 211.005L579.908 211.224L580.715 211.068C695.746 188.755 802.575 190.312 878.193 215.076C915.982 227.452 944.229 245.049 962.208 266.418C980.123 287.711 987.982 312.9 984.829 340.942C978.518 397.075 928.46 460.753 843.852 518.01L793.923 502.491L786.406 477.039C805.046 467.62 832.298 451.3 856.833 431.212C882.416 410.264 905.681 384.711 912.445 358.158L912.505 357.924L912.531 357.685C915.314 332.934 908.325 310.552 892.532 291.78C876.803 273.086 852.482 258.126 820.767 247.74C757.379 226.981 668.613 225.845 573.708 244.254C479.373 262.551 386.111 298.772 313.76 345.244L265.552 328.625L257.809 302.408C299.242 283.435 363.6 256.707 425.504 236.605C457.154 226.327 488.083 217.807 514.937 212.931C541.93 208.029 564.302 206.91 579.116 211.005Z" fill="#5EE453" stroke="#5EE453" stroke-width="7"/>
<path d="M975.75 310.198C969.439 366.332 919.381 430.009 834.773 487.266L789.969 473.341C856.908 426.926 898.085 374.677 903.452 326.942C906.235 302.191 899.246 279.808 883.453 261.037C867.724 242.342 843.403 227.383 811.688 216.996C748.3 196.237 659.534 195.102 564.628 213.51C470.294 231.808 377.032 268.028 304.68 314.501L261.612 299.653C348.325 244.886 459.302 202.113 571.635 180.324C686.667 158.012 793.495 159.568 869.114 184.333C906.903 196.708 935.15 214.305 953.129 235.674C971.044 256.967 978.903 282.156 975.75 310.198Z" fill="white" stroke="#5EE453" stroke-width="7"/>
<path d="M670.526 322.613L671.248 322.702L671.944 322.496C674.785 321.657 679.617 321.245 685.922 321.255C692.123 321.264 699.414 321.676 706.974 322.317C721.043 323.51 735.87 325.485 745.994 327.058L753.079 351.048L690.593 379.85C676.984 368.098 656.36 360.442 631.281 357.362C605.031 354.139 574.634 356.013 543.659 362.693C512.676 369.375 482.288 380.612 456.056 395.105C430.561 409.191 409.871 425.869 396.422 443.378L333.673 441.465L327.142 419.35C340.062 411.31 359.047 400.191 376.666 391.314C386.01 386.606 394.886 382.572 402.228 379.957C405.902 378.649 409.109 377.727 411.748 377.241C414.472 376.739 416.227 376.775 417.194 377.04L418.567 377.418L419.814 376.729C457.348 355.991 500.933 339.863 545.414 330.27C589.903 320.675 633.316 318.044 670.526 322.613Z" fill="#5EE453" stroke="#5EE453" stroke-width="7"/>
<mask id="path-29-inside-3_940_683" fill="white">
<path d="M748.557 326.545C729.843 309.085 699.887 297.351 662.217 292.725C624.547 288.099 580.734 290.774 535.94 300.434C491.146 310.095 447.236 326.338 409.385 347.251C371.534 368.164 341.318 392.875 322.298 418.472L389.387 420.517C402.41 402.991 423.097 386.072 449.013 371.754C474.928 357.436 504.992 346.314 535.661 339.7C566.33 333.086 596.327 331.255 622.119 334.422C647.91 337.589 668.42 345.623 681.233 357.577L748.557 326.545Z"/>
</mask>
<path d="M748.557 326.545C729.843 309.085 699.887 297.351 662.217 292.725C624.547 288.099 580.734 290.774 535.94 300.434C491.146 310.095 447.236 326.338 409.385 347.251C371.534 368.164 341.318 392.875 322.298 418.472L389.387 420.517C402.41 402.991 423.097 386.072 449.013 371.754C474.928 357.436 504.992 346.314 535.661 339.7C566.33 333.086 596.327 331.255 622.119 334.422C647.91 337.589 668.42 345.623 681.233 357.577L748.557 326.545Z" fill="white" stroke="#5EE453" stroke-width="14" mask="url(#path-29-inside-3_940_683)"/>
<path d="M384.055 77.8799L527.508 563.616" stroke="#5EE453" stroke-width="7"/>
<path d="M360.43 84.8555L505.667 576.631" stroke="#5EE453" stroke-width="7"/>
<path d="M335.613 96.5742L482.826 595.04" stroke="#5EE453" stroke-width="7"/>
<path d="M308.953 109.767L459.499 619.517" stroke="#5EE453" stroke-width="7"/>
<path d="M404.883 71.2773L548.459 557.428" stroke="#5EE453" stroke-width="7"/>
<path d="M425.824 65.0918L567.836 545.945" stroke="#5EE453" stroke-width="7"/>
<path d="M558.952 41.5477L669.765 416.765" stroke="#5EE453" stroke-width="7"/>
<path d="M544.057 45.9463L663.274 449.618" stroke="#5EE453" stroke-width="7"/>
<path d="M525.406 45.8398L649.824 467.122M704.167 651.128L700.946 640.22" stroke="#5EE453" stroke-width="7"/>
<path d="M501.621 47.5469L630.461 483.8M685.719 670.907L676.68 640.3" stroke="#5EE453" stroke-width="7"/>
<path d="M444.26 59.6484L633.859 701.635" stroke="#5EE453" stroke-width="7"/>
<path d="M487.455 97.1777L606.05 498.743M661.964 688.069L628.81 575.807" stroke="#5EE453" stroke-width="7"/>
<path d="M559.601 43.7483C561.308 49.5268 559.927 56.3622 555.082 64.0771C550.241 71.7862 542.156 79.9953 531.271 88.1725C509.523 104.51 477.22 120.257 439.512 131.393C401.803 142.53 366.128 146.859 338.994 144.958C325.413 144.006 314.166 141.507 305.913 137.665C297.654 133.82 292.781 128.831 291.075 123.053C289.368 117.274 290.749 110.439 295.594 102.724C300.435 95.0147 308.52 86.8057 319.405 78.6284C341.152 62.2908 373.456 46.544 411.164 35.4075C448.872 24.271 484.548 19.9415 511.682 21.8429C525.263 22.7946 536.51 25.2943 544.763 29.1363C553.022 32.9812 557.894 37.9698 559.601 43.7483Z" fill="white" stroke="#5EE453" stroke-width="7"/>
<path fill-rule="evenodd" clip-rule="evenodd" d="M682.63 645.754L754.937 890.588L725.267 844.061C722.218 833.108 719.066 821.064 715.745 808.371C697.833 739.906 674.977 652.546 636.49 615.635C612.543 592.669 622.628 647.439 641.226 712.272L634.003 700.946L578.465 512.893L682.63 645.754Z" fill="white"/>
<path d="M754.937 890.588L751.986 892.47L758.294 889.597L754.937 890.588ZM682.63 645.754L685.986 644.763L685.797 644.121L685.384 643.595L682.63 645.754ZM725.267 844.061L721.895 845L722.035 845.503L722.316 845.943L725.267 844.061ZM715.745 808.371L712.359 809.257L712.359 809.257L715.745 808.371ZM636.49 615.635L634.067 618.161L636.49 615.635ZM641.226 712.272L638.275 714.154L644.59 711.307L641.226 712.272ZM634.003 700.946L630.646 701.937L630.786 702.411L631.052 702.828L634.003 700.946ZM578.465 512.893L581.219 510.733L575.108 513.884L578.465 512.893ZM758.294 889.597L685.986 644.763L679.273 646.746L751.58 891.58L758.294 889.597ZM722.316 845.943L751.986 892.47L757.888 888.706L728.218 842.179L722.316 845.943ZM712.359 809.257C715.679 821.944 718.837 834.016 721.895 845L728.639 843.122C725.598 832.201 722.454 820.185 719.131 807.485L712.359 809.257ZM634.067 618.161C652.693 636.025 667.808 666.432 680.545 701.369C693.243 736.2 703.395 774.993 712.359 809.257L719.131 807.485C710.183 773.283 699.951 734.165 687.121 698.971C674.33 663.885 658.773 632.157 638.912 613.109L634.067 618.161ZM644.59 711.307C635.292 678.894 628.205 649.265 626.387 630.688C625.934 626.059 625.821 622.238 626.05 619.296C626.29 616.22 626.869 614.635 627.338 613.993C627.511 613.756 627.57 613.783 627.492 613.808C627.436 613.825 627.581 613.751 628.081 613.896C629.222 614.227 631.179 615.391 634.067 618.161L638.912 613.109C635.814 610.138 632.848 607.99 630.029 607.173C628.549 606.744 626.955 606.638 625.389 607.131C623.801 607.631 622.578 608.643 621.685 609.864C620.023 612.141 619.335 615.374 619.072 618.753C618.798 622.265 618.947 626.536 619.42 631.37C621.307 650.645 628.562 680.817 637.862 713.237L644.59 711.307ZM631.052 702.828L638.275 714.154L644.177 710.391L636.954 699.064L631.052 702.828ZM575.108 513.884L630.646 701.937L637.36 699.954L581.822 511.901L575.108 513.884ZM685.384 643.595L581.219 510.733L575.71 515.052L679.875 647.914L685.384 643.595Z" fill="#5EE453"/>
<path fill-rule="evenodd" clip-rule="evenodd" d="M92.1065 475.637C85.6722 508.663 93.619 603.903 132.87 642.867L178.654 639.544C163.591 610.775 141.061 498.498 255.035 493.427C347.836 489.297 387.288 574.817 396.866 623.709L460.168 619.116L412.888 459.026L94.7509 473.427C93.4533 473.486 92.3549 474.362 92.1065 475.637Z" fill="white"/>
<path d="M132.87 642.867L130.404 645.351L131.534 646.473L133.123 646.358L132.87 642.867ZM92.1065 475.637L88.6711 474.968L88.6711 474.968L92.1065 475.637ZM178.654 639.544L178.908 643.035L184.231 642.649L181.755 637.921L178.654 639.544ZM255.035 493.427L254.88 489.93L254.88 489.93L255.035 493.427ZM396.866 623.709L393.431 624.382L394.027 627.425L397.119 627.2L396.866 623.709ZM460.168 619.116L460.421 622.607L464.755 622.292L463.524 618.124L460.168 619.116ZM412.888 459.026L416.245 458.035L415.468 455.406L412.73 455.53L412.888 459.026ZM94.7509 473.427L94.9092 476.924L94.9092 476.924L94.7509 473.427ZM135.335 640.383C116.493 621.679 104.853 589.018 98.7974 556.387C92.7544 523.824 92.4388 492.234 95.5419 476.307L88.6711 474.968C85.3399 492.066 85.7805 524.609 91.915 557.664C98.0366 590.65 109.995 625.091 130.404 645.351L135.335 640.383ZM178.401 636.053L132.616 639.376L133.123 646.358L178.908 643.035L178.401 636.053ZM181.755 637.921C178.2 631.132 174.063 619.093 171.658 604.712C169.258 590.358 168.629 573.924 171.882 558.313C175.129 542.732 182.214 528.085 195.173 517.012C208.127 505.944 227.282 498.165 255.191 496.923L254.88 489.93C225.801 491.224 205.032 499.382 190.626 511.69C176.224 523.995 168.513 540.166 165.029 556.885C161.551 573.573 162.255 590.92 164.754 605.867C167.249 620.788 171.576 633.572 175.554 641.168L181.755 637.921ZM255.191 496.923C300.314 494.915 332.387 514.637 354.479 540.936C376.662 567.343 388.723 600.35 393.431 624.382L400.3 623.037C395.43 598.176 382.977 563.977 359.839 536.433C336.611 508.782 302.557 487.808 254.88 489.93L255.191 496.923ZM459.914 615.625L396.612 620.219L397.119 627.2L460.421 622.607L459.914 615.625ZM409.531 460.017L456.811 620.107L463.524 618.124L416.245 458.035L409.531 460.017ZM94.9092 476.924L413.046 462.522L412.73 455.53L94.5927 469.931L94.9092 476.924ZM95.5419 476.307C95.5055 476.494 95.3982 476.664 95.2619 476.777C95.133 476.883 95.0026 476.92 94.9092 476.924L94.5927 469.931C91.815 470.057 89.2534 471.979 88.6711 474.968L95.5419 476.307Z" fill="#5EE453"/>
<path d="M769.354 795.726L740.478 760.401M769.354 795.726L913.468 715.066M769.354 795.726L780.695 834.127M740.478 760.401L871.416 690.176L913.468 715.066M740.478 760.401L752.39 800.736M913.468 715.066L925.185 754.74" stroke="#5EE453" stroke-width="7"/>
<path d="M811.569 762.267L874.066 726.798L891.541 785.968L829.451 822.818L801.591 796.934L818.853 786.93L811.569 762.267Z" fill="white"/>
<path d="M829.451 822.818L891.541 785.968M829.451 822.818L820.185 791.442L818.853 786.93M829.451 822.818L801.591 796.934M829.451 822.818L833.564 836.744M891.541 785.968L874.066 726.798L811.569 762.267L818.853 786.93M891.541 785.968L896.569 802.995M801.591 796.934L818.853 786.93M801.591 796.934L807.329 816.364" stroke="#5EE453" stroke-width="7"/>
<path d="M824.009 714.527L813.449 707.164M813.449 707.164L757.841 735.865M813.449 707.164L802.141 668.873L746.379 697.053L757.841 735.865M757.841 735.865L767.592 745.562M757.841 735.865L762.111 750.324" stroke="#5EE453" stroke-width="7"/>
<path d="M1059.27 590.224L1045.17 542.476L1021.69 582.578L1023.22 587.761L1036.38 632.314L1059.27 590.224Z" fill="white"/>
<path d="M1059.27 590.224L1045.17 542.476L1021.69 582.578L1023.22 587.761L1036.38 632.314M1059.27 590.224L1036.38 632.314M1059.27 590.224L1064.73 608.709M1036.38 632.314L1041.09 648.274M1036.38 632.314L1001.31 625.089" stroke="#5EE453" stroke-width="7"/>
<path d="M976.767 577.431L971.713 560.32L959.143 573.634" stroke="#5EE453" stroke-width="7"/>
</g>
<defs>
<clipPath id="clip0_940_683">
<rect width="1131" height="1131" fill="white"/>
</clipPath>
</defs>
</svg>
