<svg width="1260" height="1056" viewBox="0 0 1260 1056" fill="none" xmlns="http://www.w3.org/2000/svg">
<path d="M1192.07 680.352C1182.49 761.492 1110.62 828.265 1000.48 870.14C890.491 911.953 743.187 928.551 584.681 909.837C426.174 891.123 286.786 840.677 189.562 774.4C92.1955 708.025 37.8509 626.35 47.4306 545.21C57.0104 464.07 128.881 397.297 239.028 355.422C349.014 313.609 496.317 297.011 654.824 315.725C813.331 334.439 952.719 384.885 1049.94 451.162C1147.31 517.537 1201.65 599.212 1192.07 680.352Z" fill="white" stroke="#FECD47" stroke-width="6.29829"/>
<path d="M738.423 923.888C735.97 944.662 717.456 962.323 687.815 973.591C658.335 984.799 618.686 989.297 575.899 984.246C533.113 979.194 495.601 965.586 469.541 947.821C443.34 929.959 429.448 908.473 431.901 887.699L435.905 853.784L742.427 889.974L738.423 923.888Z" fill="#FECD47" stroke="#FECD47" stroke-width="6.29829"/>
<path d="M742.417 890.029C739.965 910.803 721.451 928.464 691.81 939.732C662.33 950.94 622.68 955.438 579.894 950.387C537.107 945.335 499.596 931.727 473.536 913.962C447.334 896.1 433.442 874.614 435.895 853.839C438.348 833.065 456.862 815.405 486.503 804.136C515.983 792.928 555.632 788.43 598.419 793.481C641.205 798.533 678.717 812.141 704.776 829.906C730.978 847.768 744.87 869.254 742.417 890.029Z" fill="white" stroke="#FECD47" stroke-width="6.29829"/>
<path d="M1143.08 646.942C1134.39 720.56 1069.16 781.213 969.049 819.274C869.095 857.274 735.206 872.363 591.119 855.352C447.032 838.34 320.339 792.485 231.983 732.253C143.484 671.923 94.1807 597.748 102.872 524.131C111.564 450.513 176.786 389.859 276.901 351.799C376.855 313.799 510.743 298.709 654.83 315.721C798.917 332.732 925.61 378.587 1013.97 438.82C1102.46 499.149 1151.77 573.324 1143.08 646.942Z" fill="white" stroke="#FECD47" stroke-width="6.29829"/>
<path d="M991.281 612.728C985.69 660.082 940.638 699.152 870.26 723.416C800.116 747.6 705.866 756.642 604.185 744.637C502.504 732.632 412.951 701.89 350.367 662.035C287.575 622.048 252.86 573.561 258.451 526.207C264.042 478.854 309.094 439.784 379.471 415.519C449.616 391.335 543.866 382.294 645.547 394.299C747.228 406.304 836.781 437.046 899.365 476.9C962.157 516.887 996.872 565.375 991.281 612.728Z" fill="#FECD47" stroke="#FECD47" stroke-width="6.29829"/>
<path d="M954.467 634.576C949.556 676.175 908.156 710.488 842.886 731.623C777.902 752.665 690.449 760.184 595.977 749.031C501.506 737.877 418.208 710.198 359.911 674.601C301.358 638.847 269.087 595.836 273.999 554.237C278.91 512.638 320.31 478.325 385.579 457.19C450.564 436.148 538.017 428.629 632.489 439.782C726.96 450.936 810.258 478.615 868.555 514.212C927.108 549.966 959.379 592.977 954.467 634.576Z" fill="white" stroke="#FECD47" stroke-width="6.29829"/>
<path d="M883.549 651.552C879.444 686.327 846.277 715.254 793.91 733.288C741.777 751.241 671.668 757.964 595.987 749.028C520.305 740.093 453.689 717.228 407.171 687.628C360.443 657.894 334.925 622.038 339.031 587.264C343.136 552.49 376.303 523.563 428.67 505.529C480.803 487.575 550.912 480.853 626.594 489.788C702.275 498.723 768.891 521.588 815.41 551.189C862.137 580.922 887.655 616.778 883.549 651.552Z" fill="#FECD47" stroke="#FECD47" stroke-width="6.29829"/>
<path d="M851.495 670.781C849.82 684.965 841.784 697.952 828.212 709.288C814.623 720.638 795.62 730.205 772.436 737.456C726.076 751.954 663.576 757.01 595.974 749.028C528.371 741.047 468.767 721.575 427.059 696.679C406.201 684.229 389.948 670.499 379.376 656.296C368.817 642.111 364.026 627.61 365.701 613.426C367.375 599.241 375.411 586.254 388.983 574.919C402.573 563.568 421.576 554.001 444.76 546.751C491.119 532.252 553.619 527.197 621.222 535.178C688.824 543.16 748.428 562.631 790.137 587.527C810.995 599.978 827.247 613.707 837.82 627.91C848.379 642.095 853.17 656.596 851.495 670.781Z" fill="white" stroke="#FECD47" stroke-width="6.29829"/>
<mask id="path-9-inside-1_468_549" fill="white">
<path fill-rule="evenodd" clip-rule="evenodd" d="M1147.15 625.901C1158.34 353.424 957.789 114.111 682.454 81.6033C406.995 49.0814 156.121 235.291 103.709 503.076C140.785 364.493 379.679 280.064 655.195 312.593C930.474 345.094 1143.01 482.627 1147.15 625.901Z"/>
</mask>
<path fill-rule="evenodd" clip-rule="evenodd" d="M1147.15 625.901C1158.34 353.424 957.789 114.111 682.454 81.6033C406.995 49.0814 156.121 235.291 103.709 503.076C140.785 364.493 379.679 280.064 655.195 312.593C930.474 345.094 1143.01 482.627 1147.15 625.901Z" fill="#FFF4B9" fill-opacity="0.7"/>
<path d="M1147.15 625.901L1140.85 626.083L1153.44 626.159L1147.15 625.901ZM103.709 503.076L97.528 501.867L109.793 504.704L103.709 503.076ZM1153.44 626.159C1164.77 350.419 961.822 108.245 683.192 75.3485L681.715 87.8582C953.756 119.977 1151.92 356.429 1140.85 625.642L1153.44 626.159ZM683.192 75.3485C404.437 42.4375 150.568 230.874 97.528 501.867L109.89 504.286C161.674 239.708 409.552 55.7254 681.715 87.8582L683.192 75.3485ZM109.793 504.704C127.528 438.417 194.064 383.718 292.106 349.617C389.85 315.619 517.47 302.675 654.456 318.848L655.933 306.338C517.404 289.983 387.819 302.989 287.968 337.719C188.415 372.346 116.966 429.153 97.6247 501.449L109.793 504.704ZM654.456 318.848C791.325 335.007 912.331 377.257 999.454 433.012C1086.84 488.936 1138.87 557.547 1140.85 626.083L1153.44 625.719C1151.28 550.981 1094.98 479.188 1006.24 422.402C917.245 365.446 794.344 322.68 655.933 306.338L654.456 318.848Z" fill="#FECD47" mask="url(#path-9-inside-1_468_549)"/>
<mask id="path-11-inside-2_468_549" fill="white">
<path fill-rule="evenodd" clip-rule="evenodd" d="M682.44 81.605C739.432 88.3337 793.22 103.923 842.589 126.833C823.68 180.073 858.773 248.874 926.673 286.544C970.091 310.631 1017.21 316.6 1054.73 306.21C1117.49 397.351 1151.93 508.494 1147.14 625.787C1142.9 482.551 930.4 345.078 655.189 312.585C379.618 280.05 140.684 364.519 103.681 503.151C156.061 235.326 406.956 49.0801 682.44 81.605Z"/>
</mask>
<path fill-rule="evenodd" clip-rule="evenodd" d="M682.44 81.605C739.432 88.3337 793.22 103.923 842.589 126.833C823.68 180.073 858.773 248.874 926.673 286.544C970.091 310.631 1017.21 316.6 1054.73 306.21C1117.49 397.351 1151.93 508.494 1147.14 625.787C1142.9 482.551 930.4 345.078 655.189 312.585C379.618 280.05 140.684 364.519 103.681 503.151C156.061 235.326 406.956 49.0801 682.44 81.605Z" fill="#FFF4B9" fill-opacity="0.7"/>
<path d="M842.589 126.833L848.524 128.941L850.444 123.535L845.24 121.12L842.589 126.833ZM926.673 286.544L929.729 281.036L926.673 286.544ZM1054.73 306.21L1059.92 302.639L1057.38 298.943L1053.05 300.141L1054.73 306.21ZM1147.14 625.787L1140.84 625.974L1153.43 626.045L1147.14 625.787ZM103.681 503.151L97.4997 501.942L109.766 504.775L103.681 503.151ZM845.24 121.12C795.274 97.9328 740.841 82.158 683.178 75.3501L681.701 87.8598C738.023 94.5094 791.166 109.913 839.938 132.546L845.24 121.12ZM929.729 281.036C863.296 244.181 831.053 178.133 848.524 128.941L836.654 124.725C816.307 182.012 854.251 253.568 923.618 292.051L929.729 281.036ZM1053.05 300.141C1017.35 310.026 971.924 304.446 929.729 281.036L923.618 292.051C968.257 316.816 1017.07 323.174 1056.41 312.28L1053.05 300.141ZM1153.43 626.045C1158.28 507.342 1123.42 394.863 1059.92 302.639L1049.55 309.782C1111.55 399.839 1145.58 509.646 1140.84 625.53L1153.43 626.045ZM654.45 318.84C791.285 334.995 912.266 377.228 999.384 432.963C1086.77 488.867 1138.81 557.454 1140.84 625.974L1153.43 625.601C1151.22 550.884 1094.9 479.117 1006.17 422.352C917.178 365.417 794.304 322.667 655.927 306.33L654.45 318.84ZM109.766 504.775C127.465 438.465 193.992 383.745 292.042 349.629C389.793 315.616 517.437 302.663 654.45 318.84L655.927 306.33C517.37 289.971 387.761 302.986 287.902 337.732C188.341 372.374 116.9 429.204 97.5956 501.526L109.766 504.775ZM683.178 75.3501C404.398 42.4361 150.508 230.909 97.4997 501.942L109.862 504.36C161.615 239.743 409.513 55.7241 681.701 87.8598L683.178 75.3501Z" fill="#FECD47" mask="url(#path-11-inside-2_468_549)"/>
<path d="M924.269 260.597L923.066 270.781L1035.53 284.059L1028.83 272.942L1019.76 262.171L925.398 251.03L924.269 260.597Z" fill="#FECD47"/>
<path d="M1037.22 291.2L939.29 279.638L933.534 274.977L1034.39 286.885L1037.22 291.2Z" fill="white" stroke="#FECD47" stroke-width="6.29829"/>
<path d="M535.709 225.588C564.031 189.232 581.909 204.949 606.585 182.764C631.261 160.579 640.209 125.092 652.503 103.558" stroke="#FECD47" stroke-width="18.8949" stroke-linecap="round" stroke-linejoin="round"/>
<circle cx="502.695" cy="261.187" r="66.1963" transform="rotate(6.73342 502.695 261.187)" fill="white" fill-opacity="0.7" stroke="#FECD47" stroke-width="6.29829"/>
<circle cx="410.378" cy="393.494" r="44.8341" transform="rotate(6.73342 410.378 393.494)" fill="white" fill-opacity="0.7" stroke="#FECD47" stroke-width="6.29829"/>
<path d="M822.366 256.958C822.366 256.958 841.293 265.976 845.139 281.78C848.984 297.585 834.322 319.486 839.48 345.15C843.607 365.681 863.162 368.523 872.424 367.377" stroke="#FECD47" stroke-width="18.8949" stroke-linecap="round" stroke-linejoin="round"/>
<circle cx="760.628" cy="459.642" r="66.1963" transform="rotate(6.73342 760.628 459.642)" fill="white" fill-opacity="0.7" stroke="#FECD47" stroke-width="6.29829"/>
<circle cx="739.434" cy="252.233" r="87.797" transform="rotate(6.73342 739.434 252.233)" fill="white" fill-opacity="0.7" stroke="#FECD47" stroke-width="6.29829"/>
<path d="M711.916 113.584C722.369 134.89 742.747 183.552 740.63 207.757" stroke="#FECD47" stroke-width="18.8949" stroke-linecap="round" stroke-linejoin="round"/>
<path d="M711.379 83.0961L656.745 545.844L656.744 545.846C656.743 545.858 656.738 545.888 656.73 545.934C656.715 546.026 656.686 546.182 656.639 546.392C656.545 546.813 656.377 547.443 656.095 548.203C655.53 549.729 654.52 551.737 652.75 553.653C649.344 557.341 642.571 561.27 628.865 559.651C615.158 558.033 609.487 552.635 607.033 548.255C605.758 545.98 605.244 543.792 605.049 542.176C604.952 541.371 604.936 540.72 604.942 540.289C604.945 540.074 604.953 539.915 604.96 539.822C604.961 539.803 604.962 539.787 604.963 539.774C604.965 539.754 604.966 539.74 604.967 539.732L604.967 539.731L659.601 76.983L711.379 83.0961Z" fill="#FECD47" stroke="#FECD47" stroke-width="6.29829"/>
<mask id="path-23-inside-3_468_549" fill="white">
<path fill-rule="evenodd" clip-rule="evenodd" d="M686.794 68.9571C717.837 72.6223 741.453 88.7213 739.541 104.915C737.629 121.109 710.914 131.266 679.87 127.601C648.826 123.936 625.21 107.837 627.122 91.6426C629.034 75.4486 655.75 65.292 686.794 68.9571ZM685.758 77.7481C700.12 79.4438 711.046 86.892 710.162 94.3842C709.277 101.876 696.917 106.575 682.555 104.88C668.192 103.184 657.266 95.7358 658.151 88.2436C659.035 80.7514 671.395 76.0524 685.758 77.7481Z"/>
</mask>
<path fill-rule="evenodd" clip-rule="evenodd" d="M686.794 68.9571C717.837 72.6223 741.453 88.7213 739.541 104.915C737.629 121.109 710.914 131.266 679.87 127.601C648.826 123.936 625.21 107.837 627.122 91.6426C629.034 75.4486 655.75 65.292 686.794 68.9571ZM685.758 77.7481C700.12 79.4438 711.046 86.892 710.162 94.3842C709.277 101.876 696.917 106.575 682.555 104.88C668.192 103.184 657.266 95.7358 658.151 88.2436C659.035 80.7514 671.395 76.0524 685.758 77.7481Z" fill="white"/>
<path d="M745.796 105.654C747.166 94.0502 739.331 84.0264 729.073 77.0338C718.532 69.8475 703.852 64.6291 687.532 62.7023L686.055 75.212C700.779 76.9503 713.429 81.6141 721.978 87.442C730.811 93.4636 733.828 99.5864 733.286 104.177L745.796 105.654ZM679.131 133.856C695.451 135.782 710.943 134.126 722.868 129.592C734.472 125.181 744.426 117.257 745.796 105.654L733.286 104.177C732.744 108.767 728.385 114.019 718.392 117.818C708.721 121.495 695.332 123.084 680.608 121.346L679.131 133.856ZM620.867 90.9041C619.497 102.508 627.332 112.531 637.59 119.524C648.132 126.71 662.811 131.929 679.131 133.856L680.608 121.346C665.885 119.607 653.234 114.944 644.685 109.116C635.852 103.094 632.835 96.9714 633.377 92.381L620.867 90.9041ZM687.532 62.7023C671.212 60.7755 655.721 62.4317 643.795 66.9655C632.191 71.377 622.237 79.3005 620.867 90.9041L633.377 92.381C633.919 87.7907 638.279 82.5388 648.272 78.7399C657.943 75.0631 671.332 73.4737 686.055 75.212L687.532 62.7023ZM716.417 95.1227C717.273 87.87 712.354 82.1844 707.225 78.6884C701.813 74.9986 694.476 72.4353 686.496 71.4932L685.019 84.0029C691.402 84.7565 696.71 86.7652 700.13 89.0966C703.834 91.6216 703.935 93.4063 703.907 93.6458L716.417 95.1227ZM681.816 111.135C689.796 112.077 697.528 111.292 703.651 108.965C709.452 106.759 715.56 102.375 716.417 95.1227L703.907 93.6458C703.879 93.8853 703.365 95.5972 699.174 97.1902C695.306 98.6611 689.676 99.3785 683.293 98.6249L681.816 111.135ZM651.896 87.5051C651.04 94.7578 655.959 100.443 661.087 103.939C666.5 107.629 673.837 110.192 681.816 111.135L683.293 98.6249C676.91 97.8713 671.603 95.8626 668.183 93.5312C664.479 91.0062 664.377 89.2216 664.406 88.9821L651.896 87.5051ZM686.496 71.4932C678.517 70.5511 670.785 71.3354 664.662 73.6632C658.86 75.8688 652.752 80.2524 651.896 87.5051L664.406 88.9821C664.434 88.7426 664.948 87.0306 669.138 85.4376C673.007 83.9668 678.636 83.2493 685.019 84.0029L686.496 71.4932Z" fill="#FECD47" mask="url(#path-23-inside-3_468_549)"/>
<path d="M501.73 301.306C495.313 318.712 494.783 327.897 511.491 342.923" stroke="#FECD47" stroke-width="18.8949" stroke-linecap="round" stroke-linejoin="round"/>
<path d="M930.656 392.754L1080.79 410.479L1081.75 402.321L1082.66 394.657L932.524 376.931L918.672 365.261L916.834 380.832L930.656 392.754Z" fill="#FECD47"/>
<path d="M891.042 322.407L889.422 336.128L1047.77 354.823L1049.39 341.102L1050.91 328.213L892.564 309.518L891.042 322.407Z" fill="#FECD47"/>
<path d="M1072.82 390.321L933.154 373.831L927.813 369.22L1067.48 385.709L1072.82 390.321Z" fill="white" stroke="#FECD47" stroke-width="6.29829"/>
<circle cx="569.209" cy="415.291" r="87.797" transform="rotate(6.73342 569.209 415.291)" fill="white" fill-opacity="0.7" stroke="#FECD47" stroke-width="6.29829"/>
<circle cx="887.195" cy="388.3" r="44.8341" transform="rotate(6.73342 887.195 388.3)" fill="white" fill-opacity="0.7" stroke="#FECD47" stroke-width="6.29829"/>
<path d="M799.576 416.033C806.664 398.122 827.658 386.673 850.549 395.447" stroke="#FECD47" stroke-width="18.8949" stroke-linecap="round" stroke-linejoin="round"/>
<path d="M844.724 843.764L900.992 828.354L904.116 801.895L744.98 697.942L688.375 713.869L685.589 739.811L844.724 843.764Z" fill="#FECD47"/>
<path d="M848.379 813.893L696.287 714.54L744.441 701.353L896.533 800.705L848.379 813.893Z" fill="white" stroke="#FECD47" stroke-width="6.29829"/>
<path d="M952.807 797.882L998.806 779.506L1000.22 755.783L841.646 665.845L796.964 681.984L795.723 705.408L952.807 797.882Z" fill="#FECD47"/>
<path d="M954.636 770.405L804.416 681.971L843.019 666.55L993.239 754.983L954.636 770.405Z" fill="white" stroke="#FECD47" stroke-width="6.29829"/>
<path d="M1101.77 647.596L1125.43 622.458L1126.3 601.106L969.648 551.904L946.082 574.865L945.113 598.724L1101.77 647.596Z" fill="#FECD47"/>
<path d="M1101.72 622.124L951.741 575.337L970.596 555.3L1120.57 602.087L1101.72 622.124Z" fill="white" stroke="#FECD47" stroke-width="6.29829"/>
<path d="M960.924 529.95L957.032 502.326L1127.29 522.428L1131.18 550.051L960.924 529.95Z" fill="#FECD47"/>
<path d="M1125.73 530.832L961.944 511.495L958.961 490.321L1122.75 509.658L1125.73 530.832Z" fill="white" stroke="#FECD47" stroke-width="6.29829"/>
<path d="M941.454 443.026L954.552 461.347L1105.38 479.155L1107.34 462.61L1094.12 445.292L943.289 427.485L941.454 443.026Z" fill="#FECD47"/>
<path d="M1100.63 458.64L958.26 441.83L950.114 430.436L1092.49 447.245L1100.63 458.64Z" fill="white" stroke="#FECD47" stroke-width="6.29829"/>
<path d="M727.865 710.344L708.485 874.497C708.481 874.511 708.476 874.53 708.469 874.555C708.435 874.67 708.358 874.895 708.201 875.19C707.897 875.763 707.251 876.677 705.889 877.59C703.139 879.432 697.091 881.507 684.289 879.995C671.516 878.487 665.704 875.024 663.093 872.445C661.793 871.159 661.222 870.033 660.967 869.336C660.848 869.009 660.793 868.763 660.769 868.62L680.121 704.707C681.21 695.484 680.471 686.136 677.948 677.198C675.424 668.26 671.165 659.907 665.413 652.615C659.661 645.323 652.529 639.235 644.424 634.699C636.32 630.163 627.401 627.268 618.177 626.179C608.954 625.09 599.606 625.829 590.668 628.352C581.73 630.876 573.377 635.135 566.085 640.887C558.793 646.639 552.705 653.771 548.169 661.876C543.633 669.98 540.739 678.899 539.649 688.122L520.27 852.268C520.267 852.28 520.262 852.296 520.256 852.316C520.224 852.425 520.148 852.644 519.989 852.934C519.681 853.496 519.019 854.409 517.601 855.325C514.729 857.179 508.429 859.233 495.139 857.664C481.835 856.093 476.371 852.644 474.169 850.24C473.087 849.058 472.72 848.056 472.588 847.468C472.519 847.163 472.508 846.942 472.507 846.833C472.507 846.808 472.508 846.789 472.508 846.777L472.514 846.728L491.905 682.485C493.734 666.992 498.597 652.01 506.216 638.396C513.835 624.782 524.061 612.802 536.31 603.14C548.559 593.478 562.591 586.324 577.605 582.085C592.619 577.845 608.321 576.605 623.814 578.434C639.308 580.264 654.289 585.126 667.903 592.746C681.517 600.365 693.497 610.59 703.159 622.839C712.821 635.088 719.976 649.12 724.215 664.134C728.454 679.148 729.695 694.85 727.865 710.344Z" fill="white" stroke="#FECD47" stroke-width="6.29829"/>
<path d="M1037.81 732.571L1075.23 711.915L1075.91 689.677L924.784 615.174L888.22 634.238L886.678 658.068L1037.81 732.571Z" fill="#FECD47"/>
<path d="M1038.79 706.122L894.541 635.013L925.241 618.066L1069.49 689.175L1038.79 706.122Z" fill="white" stroke="#FECD47" stroke-width="6.29829"/>
</svg>
