<svg width="1537" height="908" viewBox="0 0 1537 908" fill="none" xmlns="http://www.w3.org/2000/svg">
<path fill-rule="evenodd" clip-rule="evenodd" d="M438.581 806.137C438.581 784.043 456.492 766.131 478.587 766.131H767.628C789.723 766.131 807.634 784.043 807.634 806.137C807.634 828.232 789.723 846.143 767.628 846.143H478.587C456.492 846.143 438.581 828.232 438.581 806.137Z" fill="white" stroke="#6398FF" stroke-width="7" stroke-linecap="round"/>
<path fill-rule="evenodd" clip-rule="evenodd" d="M624.89 184.2C624.897 184.201 624.904 184.201 621.626 223.9L624.904 184.201C646.923 186.019 663.3 205.344 661.482 227.363C659.664 249.381 640.343 265.756 618.326 263.942C618.324 263.942 618.322 263.941 618.32 263.941L618.165 263.929C618.035 263.918 617.829 263.902 617.549 263.88C616.988 263.836 616.129 263.77 614.994 263.686C612.722 263.518 609.344 263.279 605.019 263.003C596.364 262.451 583.945 261.75 569.036 261.171C539.104 260.009 499.651 259.356 460.683 261.278C420.985 263.235 384.801 267.747 359.942 275.683C350.366 278.741 344.388 281.723 340.975 283.949C341.889 284.538 343.389 285.355 345.747 286.284C357.259 290.818 374.351 292.776 399.442 295.131C400.415 295.222 401.404 295.314 402.41 295.408C423.517 297.372 451.593 299.985 474.464 309.023C487.27 314.084 501.27 322.145 512.178 335.648C523.558 349.735 529.155 366.755 529.587 385.153C530.022 403.612 525.204 420.677 515 435.249C505.234 449.195 492.235 458.437 480.036 464.838C459.657 475.531 433.799 481.874 413.146 486.941C410.732 487.533 408.389 488.108 406.134 488.67C381.439 494.828 362.64 500.337 349.069 508.595C337.69 515.519 331.953 523.041 330.183 535.668C327.115 557.549 306.891 572.8 285.01 569.733C263.13 566.665 247.879 546.441 250.946 524.56C256.677 483.68 279.819 457.072 307.477 440.243C332.942 424.748 363.338 416.88 386.775 411.036C388.543 410.595 390.27 410.165 391.958 409.746C415.662 403.85 431.635 399.877 442.86 393.987C447.742 391.426 449.205 389.69 449.432 389.392C449.477 389.219 449.633 388.508 449.598 387.035C449.584 386.427 449.547 385.974 449.508 385.648C448.832 385.186 447.479 384.392 445.057 383.435C433.981 379.057 417.211 377.161 391.967 374.792C391.136 374.714 390.293 374.635 389.438 374.556C368.14 372.569 339.763 369.922 316.424 360.729C303.503 355.639 289.526 347.64 278.441 334.431C266.901 320.681 260.703 303.908 259.627 285.401C258.146 259.914 269.844 239.711 285.45 225.895C299.877 213.122 318.236 205.008 335.609 199.462C370.665 188.27 415.305 183.406 456.743 181.363C498.912 179.284 540.908 180.007 572.141 181.22C587.815 181.829 600.907 182.566 610.118 183.154C614.726 183.449 618.369 183.706 620.886 183.892C622.145 183.985 623.122 184.06 623.798 184.113C624.137 184.139 624.399 184.16 624.584 184.175L624.89 184.2ZM449.376 384.954C449.377 384.952 449.389 384.982 449.406 385.05C449.383 384.99 449.375 384.956 449.376 384.954Z" fill="white" stroke="#6398FF" stroke-width="7" stroke-linecap="round" stroke-linejoin="round"/>
<line x1="720.122" y1="540.099" x2="720.122" y2="837.23" stroke="black" stroke-width="7"/>
<line x1="1254.2" y1="540.099" x2="1254.2" y2="850.143" stroke="black" stroke-width="7"/>
<line x1="812.135" y1="438.084" x2="812.135" y2="748.129" stroke="black" stroke-width="7"/>
<line x1="1398.22" y1="486.092" x2="1398.22" y2="850.143" stroke="black" stroke-width="7"/>
<line x1="1464.23" y1="540.099" x2="1464.23" y2="850.143" stroke="black" stroke-width="7"/>
<line x1="1334.21" y1="540.099" x2="1334.21" y2="850.143" stroke="black" stroke-width="7"/>
<path fill-rule="evenodd" clip-rule="evenodd" d="M1255.11 468.234C1277.12 470.119 1293.44 489.492 1291.56 511.506C1282.9 612.713 1234.88 680.003 1177.41 721.522C1121.38 762.006 1057.52 777.331 1014.3 779.1C992.223 780.003 973.594 762.839 972.691 740.763C971.788 718.687 988.952 700.058 1011.03 699.155C1041.15 697.923 1089.2 686.544 1130.55 656.668C1170.47 627.828 1205.3 581.101 1211.84 504.683C1213.72 482.669 1233.1 466.35 1255.11 468.234Z" fill="white" stroke="#5EE453" stroke-width="7" stroke-linecap="round"/>
<line x1="1174.19" y1="540.099" x2="1174.19" y2="850.143" stroke="black" stroke-width="7"/>
<path fill-rule="evenodd" clip-rule="evenodd" d="M820.732 429.349C827.771 408.406 850.456 397.135 871.399 404.175C949.122 430.3 988.592 499.933 993.681 566.699C998.695 632.487 970.676 706.293 901.073 737.615C880.924 746.682 857.241 737.698 848.174 717.55C839.107 697.401 848.091 673.717 868.239 664.651C898.651 650.965 917.138 615.256 913.901 572.779C910.738 531.28 887.199 493.897 845.906 480.016C824.963 472.977 813.692 450.292 820.732 429.349Z" fill="white" stroke="#FECD43" stroke-width="7" stroke-linecap="round"/>
<circle cx="606.605" cy="596.107" r="124.518" fill="#CFFFCB" stroke="#5EE453" stroke-width="7"/>
<circle cx="1429.72" cy="553.101" r="71.5107" fill="#FFF0C7" stroke="#FECD43" stroke-width="7"/>
<circle cx="1250.7" cy="286.063" r="282.541" fill="#CFFFCB" stroke="#5EE453" stroke-width="7"/>
<path d="M1471.23 286.063C1471.23 442.95 1371.74 568.604 1250.7 568.604C1129.65 568.604 1030.16 442.95 1030.16 286.063C1030.16 129.175 1129.65 3.52197 1250.7 3.52197C1371.74 3.52197 1471.23 129.175 1471.23 286.063Z" stroke="#5EE453" stroke-width="7"/>
<path d="M1250.7 48.5294C1227.75 48.5294 1207.11 45.6456 1192.33 41.0696C1184.91 38.775 1179.17 36.1146 1175.35 33.323C1171.47 30.4777 1170.19 27.9691 1170.19 26.0257C1170.19 24.0823 1171.47 21.5737 1175.35 18.7283C1179.17 15.9368 1184.91 13.2764 1192.33 10.9818C1207.11 6.40573 1227.75 3.52197 1250.7 3.52197C1273.65 3.52197 1294.28 6.40573 1309.07 10.9818C1316.48 13.2764 1322.23 15.9368 1326.04 18.7284C1329.93 21.5737 1331.21 24.0823 1331.21 26.0257C1331.21 27.9691 1329.93 30.4777 1326.04 33.323C1322.23 36.1146 1316.48 38.775 1309.07 41.0696C1294.28 45.6456 1273.65 48.5294 1250.7 48.5294Z" fill="#CFFFCB" stroke="#5EE453" stroke-width="7"/>
<path d="M1399.22 286.063C1399.22 364.594 1382.29 435.518 1355.1 486.682C1327.83 537.999 1290.75 568.604 1250.7 568.604C1210.65 568.604 1173.56 537.999 1146.29 486.682C1119.1 435.518 1102.17 364.594 1102.17 286.063C1102.17 207.531 1119.1 136.608 1146.29 85.444C1173.56 34.1269 1210.65 3.52197 1250.7 3.52197C1290.75 3.52197 1327.83 34.1269 1355.1 85.444C1382.29 136.608 1399.22 207.531 1399.22 286.063Z" stroke="#5EE453" stroke-width="7"/>
<path d="M1331.21 286.063C1331.21 364.814 1321.83 435.976 1306.74 487.338C1299.19 513.042 1290.27 533.588 1280.52 547.629C1270.7 561.774 1260.57 568.604 1250.7 568.604C1240.83 568.604 1230.69 561.774 1220.87 547.629C1211.12 533.588 1202.2 513.042 1194.65 487.338C1179.56 435.976 1170.18 364.814 1170.18 286.063C1170.18 207.312 1179.56 136.149 1194.65 84.7877C1202.2 59.0839 1211.12 38.5378 1220.87 24.4968C1230.69 10.3519 1240.83 3.52197 1250.7 3.52197C1260.57 3.52197 1270.7 10.3519 1280.52 24.4968C1290.27 38.5378 1299.19 59.0839 1306.74 84.7877C1321.83 136.149 1331.21 207.312 1331.21 286.063Z" stroke="#5EE453" stroke-width="7"/>
<path d="M1281.2 286.063C1281.2 364.958 1277.4 436.323 1271.27 487.911C1268.2 513.729 1264.56 534.464 1260.56 548.678C1258.56 555.812 1256.52 561.102 1254.52 564.534C1253.53 566.25 1252.63 567.339 1251.9 567.966C1251.19 568.572 1250.81 568.604 1250.7 568.604C1250.59 568.604 1250.2 568.572 1249.49 567.966C1248.76 567.339 1247.87 566.25 1246.87 564.534C1244.88 561.102 1242.84 555.812 1240.83 548.678C1236.84 534.464 1233.2 513.729 1230.13 487.911C1223.99 436.323 1220.19 364.958 1220.19 286.063C1220.19 207.168 1223.99 135.802 1230.13 84.2146C1233.2 58.3969 1236.84 37.662 1240.83 23.4475C1242.84 16.3133 1244.88 11.0241 1246.87 7.59149C1247.87 5.87527 1248.76 4.78635 1249.49 4.15995C1250.2 3.55394 1250.59 3.52197 1250.7 3.52197C1250.81 3.52197 1251.19 3.55394 1251.9 4.15995C1252.63 4.78635 1253.53 5.87527 1254.52 7.59149C1256.52 11.0241 1258.56 16.3133 1260.56 23.4475C1264.56 37.662 1268.2 58.3969 1271.27 84.2146C1277.4 135.802 1281.2 207.168 1281.2 286.063Z" stroke="#5EE453" stroke-width="7"/>
<path d="M1250.7 568.604C1227.75 568.604 1207.11 565.72 1192.33 561.144C1184.91 558.849 1179.17 556.189 1175.35 553.397C1171.47 550.552 1170.19 548.043 1170.19 546.1C1170.19 544.156 1171.47 541.648 1175.35 538.803C1179.17 536.011 1184.91 533.351 1192.33 531.056C1207.11 526.48 1227.75 523.596 1250.7 523.596C1273.65 523.596 1294.28 526.48 1309.07 531.056C1316.48 533.351 1322.23 536.011 1326.04 538.803C1329.93 541.648 1331.21 544.156 1331.21 546.1C1331.21 548.043 1329.93 550.552 1326.04 553.397C1322.23 556.189 1316.48 558.849 1309.07 561.144C1294.28 565.72 1273.65 568.604 1250.7 568.604Z" fill="#CFFFCB" stroke="#5EE453" stroke-width="7"/>
<mask id="path-21-inside-1_480_151" fill="white">
<path d="M1152.68 849.143C1152.68 816.965 1146.34 785.102 1134.03 755.373C1121.72 725.644 1103.67 698.631 1080.91 675.877C1058.16 653.124 1031.15 635.075 1001.42 622.761C971.689 610.446 939.826 604.108 907.647 604.108C875.469 604.108 843.605 610.446 813.876 622.761C784.147 635.075 757.135 653.124 734.381 675.877C711.628 698.631 693.579 725.644 681.264 755.373C668.95 785.102 662.612 816.965 662.612 849.143L907.647 849.143H1152.68Z"/>
</mask>
<path d="M1152.68 849.143C1152.68 816.965 1146.34 785.102 1134.03 755.373C1121.72 725.644 1103.67 698.631 1080.91 675.877C1058.16 653.124 1031.15 635.075 1001.42 622.761C971.689 610.446 939.826 604.108 907.647 604.108C875.469 604.108 843.605 610.446 813.876 622.761C784.147 635.075 757.135 653.124 734.381 675.877C711.628 698.631 693.579 725.644 681.264 755.373C668.95 785.102 662.612 816.965 662.612 849.143L907.647 849.143H1152.68Z" fill="#D0E0FF" stroke="#6398FF" stroke-width="14" mask="url(#path-21-inside-1_480_151)"/>
<mask id="path-22-inside-2_480_151" fill="white">
<path d="M1098.68 849.143C1098.68 816.965 1093.74 785.102 1084.14 755.373C1074.54 725.644 1060.46 698.631 1042.73 675.877C1024.99 653.124 1003.93 635.075 980.752 622.761C957.576 610.446 932.735 604.108 907.649 604.108C882.563 604.108 857.723 610.446 834.546 622.761C811.37 635.075 790.311 653.124 772.573 675.877C754.834 698.631 740.763 725.644 731.163 755.373C721.563 785.102 716.622 816.965 716.622 849.143L907.649 849.143H1098.68Z"/>
</mask>
<path d="M1098.68 849.143C1098.68 816.965 1093.74 785.102 1084.14 755.373C1074.54 725.644 1060.46 698.631 1042.73 675.877C1024.99 653.124 1003.93 635.075 980.752 622.761C957.576 610.446 932.735 604.108 907.649 604.108C882.563 604.108 857.723 610.446 834.546 622.761C811.37 635.075 790.311 653.124 772.573 675.877C754.834 698.631 740.763 725.644 731.163 755.373C721.563 785.102 716.622 816.965 716.622 849.143L907.649 849.143H1098.68Z" fill="#D0E0FF" stroke="#6398FF" stroke-width="14" mask="url(#path-22-inside-2_480_151)"/>
<mask id="path-23-inside-3_480_151" fill="white">
<path d="M1026.66 849.143C1026.66 816.965 1023.59 785.102 1017.6 755.373C1011.62 725.644 1002.86 698.631 991.805 675.877C980.753 653.124 967.632 635.075 953.193 622.761C938.753 610.446 923.276 604.108 907.647 604.108C892.017 604.108 876.541 610.446 862.101 622.761C847.661 635.075 834.541 653.124 823.489 675.877C812.437 698.631 803.671 725.644 797.69 755.373C791.708 785.102 788.63 816.965 788.63 849.143L907.647 849.143H1026.66Z"/>
</mask>
<path d="M1026.66 849.143C1026.66 816.965 1023.59 785.102 1017.6 755.373C1011.62 725.644 1002.86 698.631 991.805 675.877C980.753 653.124 967.632 635.075 953.193 622.761C938.753 610.446 923.276 604.108 907.647 604.108C892.017 604.108 876.541 610.446 862.101 622.761C847.661 635.075 834.541 653.124 823.489 675.877C812.437 698.631 803.671 725.644 797.69 755.373C791.708 785.102 788.63 816.965 788.63 849.143L907.647 849.143H1026.66Z" fill="#D0E0FF" stroke="#6398FF" stroke-width="14" mask="url(#path-23-inside-3_480_151)"/>
<mask id="path-24-inside-4_480_151" fill="white">
<path d="M962.655 849.143C962.655 816.965 961.233 785.102 958.468 755.373C955.704 725.644 951.652 698.631 946.544 675.877C941.436 653.124 935.372 635.075 928.698 622.761C922.024 610.446 914.871 604.108 907.647 604.108C900.424 604.108 893.271 610.446 886.597 622.761C879.923 635.075 873.859 653.124 868.751 675.877C863.643 698.631 859.591 725.644 856.827 755.373C854.062 785.102 852.64 816.965 852.64 849.143L907.647 849.143H962.655Z"/>
</mask>
<path d="M962.655 849.143C962.655 816.965 961.233 785.102 958.468 755.373C955.704 725.644 951.652 698.631 946.544 675.877C941.436 653.124 935.372 635.075 928.698 622.761C922.024 610.446 914.871 604.108 907.647 604.108C900.424 604.108 893.271 610.446 886.597 622.761C879.923 635.075 873.859 653.124 868.751 675.877C863.643 698.631 859.591 725.644 856.827 755.373C854.062 785.102 852.64 816.965 852.64 849.143L907.647 849.143H962.655Z" fill="#D0E0FF" stroke="#6398FF" stroke-width="14" mask="url(#path-24-inside-4_480_151)"/>
<path d="M553.098 647.114C553.098 700.937 509.025 744.628 454.584 744.628C400.143 744.628 356.069 700.937 356.069 647.114C356.069 593.291 400.143 549.6 454.584 549.6C509.025 549.6 553.098 593.291 553.098 647.114Z" fill="white" stroke="black" stroke-width="7"/>
<mask id="path-26-inside-5_480_151" fill="white">
<path fill-rule="evenodd" clip-rule="evenodd" d="M525.026 850.143C555.088 804.868 572.601 750.54 572.601 692.121C572.601 534.145 444.536 406.08 286.56 406.08C128.584 406.08 0.519531 534.145 0.519531 692.121C0.519531 750.54 18.0324 804.868 48.0945 850.143H525.026Z"/>
</mask>
<path fill-rule="evenodd" clip-rule="evenodd" d="M525.026 850.143C555.088 804.868 572.601 750.54 572.601 692.121C572.601 534.145 444.536 406.08 286.56 406.08C128.584 406.08 0.519531 534.145 0.519531 692.121C0.519531 750.54 18.0324 804.868 48.0945 850.143H525.026Z" fill="#FFF0C7"/>
<path d="M525.026 850.143V857.143H528.781L530.858 854.015L525.026 850.143ZM48.0945 850.143L42.2629 854.015L44.3398 857.143H48.0945V850.143ZM565.601 692.121C565.601 749.12 548.518 802.108 519.195 846.271L530.858 854.015C561.658 807.628 579.601 751.959 579.601 692.121H565.601ZM286.56 413.08C440.67 413.08 565.601 538.011 565.601 692.121H579.601C579.601 530.279 448.402 399.08 286.56 399.08V413.08ZM7.51953 692.121C7.51953 538.011 132.45 413.08 286.56 413.08V399.08C124.718 399.08 -6.48047 530.279 -6.48047 692.121H7.51953ZM53.926 846.271C24.6023 802.108 7.51953 749.12 7.51953 692.121H-6.48047C-6.48047 751.959 11.4624 807.628 42.2629 854.015L53.926 846.271ZM48.0945 857.143H525.026V843.143H48.0945V857.143Z" fill="#FECD43" mask="url(#path-26-inside-5_480_151)"/>
<mask id="path-28-inside-6_480_151" fill="white">
<path fill-rule="evenodd" clip-rule="evenodd" d="M478.33 850.144C502.506 804.869 516.59 750.54 516.59 692.121C516.59 534.145 413.601 406.08 286.557 406.08C159.514 406.08 56.5244 534.145 56.5244 692.121C56.5244 750.54 70.6082 804.869 94.7841 850.144H478.33Z"/>
</mask>
<path fill-rule="evenodd" clip-rule="evenodd" d="M478.33 850.144C502.506 804.869 516.59 750.54 516.59 692.121C516.59 534.145 413.601 406.08 286.557 406.08C159.514 406.08 56.5244 534.145 56.5244 692.121C56.5244 750.54 70.6082 804.869 94.7841 850.144H478.33Z" fill="#FFF0C7"/>
<path d="M478.33 850.144V857.144H482.528L484.505 853.441L478.33 850.144ZM94.7841 850.144L88.6093 853.441L90.5865 857.144H94.7841V850.144ZM509.59 692.121C509.59 749.424 495.774 802.616 472.156 846.846L484.505 853.441C509.239 807.121 523.59 751.656 523.59 692.121H509.59ZM286.557 413.08C408.388 413.08 509.59 536.51 509.59 692.121H523.59C523.59 531.78 418.814 399.08 286.557 399.08V413.08ZM63.5244 692.121C63.5244 536.51 164.727 413.08 286.557 413.08V399.08C154.301 399.08 49.5244 531.78 49.5244 692.121H63.5244ZM100.959 846.846C77.3408 802.616 63.5244 749.424 63.5244 692.121H49.5244C49.5244 751.656 63.8756 807.121 88.6093 853.441L100.959 846.846ZM94.7841 857.144H478.33V843.144H94.7841V857.144Z" fill="#FECD43" mask="url(#path-28-inside-6_480_151)"/>
<mask id="path-30-inside-7_480_151" fill="white">
<path fill-rule="evenodd" clip-rule="evenodd" d="M429.973 850.143C448.052 804.868 458.584 750.54 458.584 692.121C458.584 534.145 381.566 406.08 286.56 406.08C191.553 406.08 114.535 534.145 114.535 692.121C114.535 750.54 125.067 804.868 143.147 850.143H429.973Z"/>
</mask>
<path fill-rule="evenodd" clip-rule="evenodd" d="M429.973 850.143C448.052 804.868 458.584 750.54 458.584 692.121C458.584 534.145 381.566 406.08 286.56 406.08C191.553 406.08 114.535 534.145 114.535 692.121C114.535 750.54 125.067 804.868 143.147 850.143H429.973Z" fill="#FFF0C7"/>
<path d="M429.973 850.143V857.143H434.715L436.474 852.739L429.973 850.143ZM143.147 850.143L136.646 852.739L138.404 857.143H143.147V850.143ZM451.584 692.121C451.584 749.725 441.195 803.165 423.472 847.547L436.474 852.739C454.909 806.572 465.584 751.354 465.584 692.121H451.584ZM286.56 413.08C330.646 413.08 371.747 442.829 402.201 493.467C432.572 543.968 451.584 614.186 451.584 692.121H465.584C465.584 612.079 446.087 539.277 414.198 486.252C382.391 433.363 337.48 399.08 286.56 399.08V413.08ZM121.535 692.121C121.535 614.186 140.547 543.968 170.919 493.467C201.372 442.829 242.473 413.08 286.56 413.08V399.08C235.64 399.08 190.728 433.363 158.921 486.252C127.032 539.277 107.535 612.079 107.535 692.121H121.535ZM149.648 847.547C131.924 803.165 121.535 749.725 121.535 692.121H107.535C107.535 751.354 118.21 806.572 136.646 852.739L149.648 847.547ZM143.147 857.143H429.973V843.143H143.147V857.143Z" fill="#FECD43" mask="url(#path-30-inside-7_480_151)"/>
<mask id="path-32-inside-8_480_151" fill="white">
<path fill-rule="evenodd" clip-rule="evenodd" d="M376.611 850.143C387.963 804.869 394.577 750.54 394.577 692.121C394.577 534.145 346.217 406.08 286.561 406.08C226.906 406.08 178.546 534.145 178.546 692.121C178.546 750.54 185.159 804.869 196.511 850.143H376.611Z"/>
</mask>
<path fill-rule="evenodd" clip-rule="evenodd" d="M376.611 850.143C387.963 804.869 394.577 750.54 394.577 692.121C394.577 534.145 346.217 406.08 286.561 406.08C226.906 406.08 178.546 534.145 178.546 692.121C178.546 750.54 185.159 804.869 196.511 850.143H376.611Z" fill="#FFF0C7"/>
<path d="M376.611 850.143V857.143H382.073L383.401 851.846L376.611 850.143ZM196.511 850.143L189.721 851.846L191.05 857.143H196.511V850.143ZM387.577 692.121C387.577 750.04 381.017 803.79 369.822 848.441L383.401 851.846C394.91 805.947 401.577 751.04 401.577 692.121H387.577ZM286.561 413.08C298.774 413.08 311.231 419.609 323.384 433.221C335.532 446.827 346.792 466.913 356.391 492.332C375.57 543.121 387.577 613.755 387.577 692.121H401.577C401.577 612.511 389.404 540.125 369.488 487.387C359.54 461.043 347.525 439.239 333.827 423.897C320.135 408.56 304.176 399.08 286.561 399.08V413.08ZM185.546 692.121C185.546 613.755 197.553 543.121 216.732 492.332C226.33 466.913 237.591 446.827 249.739 433.221C261.891 419.609 274.349 413.08 286.561 413.08V399.08C268.946 399.08 252.988 408.56 239.295 423.897C225.598 439.239 213.582 461.043 203.634 487.387C183.719 540.125 171.546 612.511 171.546 692.121H185.546ZM203.301 848.441C192.105 803.79 185.546 750.04 185.546 692.121H171.546C171.546 751.04 178.213 805.947 189.721 851.846L203.301 848.441ZM196.511 857.143H376.611V843.143H196.511V857.143Z" fill="#FECD43" mask="url(#path-32-inside-8_480_151)"/>
<mask id="path-34-inside-9_480_151" fill="white">
<path fill-rule="evenodd" clip-rule="evenodd" d="M323.247 850.143C327.872 804.869 330.566 750.54 330.566 692.121C330.566 534.145 310.864 406.08 286.56 406.08C262.256 406.08 242.554 534.145 242.554 692.121C242.554 750.54 245.248 804.869 249.873 850.143H323.247Z"/>
</mask>
<path fill-rule="evenodd" clip-rule="evenodd" d="M323.247 850.143C327.872 804.869 330.566 750.54 330.566 692.121C330.566 534.145 310.864 406.08 286.56 406.08C262.256 406.08 242.554 534.145 242.554 692.121C242.554 750.54 245.248 804.869 249.873 850.143H323.247Z" fill="#FFF0C7"/>
<path d="M323.247 850.143V857.143H329.568L330.211 850.855L323.247 850.143ZM249.873 850.143L242.909 850.855L243.552 857.143H249.873V850.143ZM323.566 692.121C323.566 750.339 320.881 804.427 316.283 849.432L330.211 850.855C334.863 805.31 337.566 750.741 337.566 692.121H323.566ZM286.56 413.08C286.296 413.08 287.448 412.924 289.834 416.098C292.097 419.109 294.579 423.991 297.111 430.951C302.145 444.791 306.803 465.212 310.759 490.924C318.653 542.238 323.566 613.375 323.566 692.121H337.566C337.566 612.891 332.628 541.008 324.596 488.795C320.588 462.743 315.763 441.275 310.268 426.166C307.535 418.652 304.49 412.295 301.024 407.685C297.681 403.238 292.9 399.08 286.56 399.08V413.08ZM249.554 692.121C249.554 613.375 254.467 542.238 262.361 490.924C266.317 465.212 270.975 444.791 276.009 430.951C278.541 423.991 281.023 419.109 283.286 416.098C285.672 412.924 286.824 413.08 286.56 413.08V399.08C280.22 399.08 275.439 403.238 272.096 407.685C268.63 412.295 265.585 418.652 262.852 426.166C257.357 441.275 252.532 462.743 248.524 488.795C240.492 541.008 235.554 612.891 235.554 692.121H249.554ZM256.837 849.432C252.239 804.427 249.554 750.339 249.554 692.121H235.554C235.554 750.741 238.257 805.31 242.909 850.855L256.837 849.432ZM249.873 857.143H323.247V843.143H249.873V857.143Z" fill="#FECD43" mask="url(#path-34-inside-9_480_151)"/>
<mask id="path-36-inside-10_480_151" fill="white">
<path fill-rule="evenodd" clip-rule="evenodd" d="M383.447 850.023C395.535 825.562 402.577 796.21 402.577 764.648C402.577 679.298 351.082 610.109 287.56 610.109C224.039 610.109 172.544 679.298 172.544 764.648C172.544 796.21 179.586 825.562 191.674 850.023H383.447Z"/>
</mask>
<path fill-rule="evenodd" clip-rule="evenodd" d="M383.447 850.023C395.535 825.562 402.577 796.21 402.577 764.648C402.577 679.298 351.082 610.109 287.56 610.109C224.039 610.109 172.544 679.298 172.544 764.648C172.544 796.21 179.586 825.562 191.674 850.023H383.447Z" fill="white"/>
<path d="M383.447 850.023V857.023H387.796L389.722 853.124L383.447 850.023ZM191.674 850.023L185.398 853.124L187.325 857.023H191.674V850.023ZM395.577 764.648C395.577 795.185 388.761 823.47 377.171 846.922L389.722 853.124C402.309 827.655 409.577 797.235 409.577 764.648H395.577ZM287.56 617.109C316.601 617.109 343.445 632.909 363.274 659.552C383.103 686.195 395.577 723.329 395.577 764.648H409.577C409.577 720.618 396.303 680.482 374.505 651.193C352.706 621.904 322.042 603.109 287.56 603.109V617.109ZM179.544 764.648C179.544 723.329 192.018 686.195 211.847 659.552C231.676 632.909 258.52 617.109 287.56 617.109V603.109C253.079 603.109 222.415 621.904 200.616 651.193C178.817 680.482 165.544 720.618 165.544 764.648H179.544ZM197.949 846.922C186.36 823.47 179.544 795.185 179.544 764.648H165.544C165.544 797.235 172.812 827.655 185.398 853.124L197.949 846.922ZM191.674 857.023H383.447V843.023H191.674V857.023Z" fill="#FECD43" mask="url(#path-36-inside-10_480_151)"/>
<mask id="path-38-inside-11_480_151" fill="white">
<path fill-rule="evenodd" clip-rule="evenodd" d="M348.427 850.142C356.101 829.544 360.571 804.827 360.571 778.249C360.571 706.377 327.883 648.114 287.56 648.114C247.238 648.114 214.55 706.377 214.55 778.249C214.55 804.827 219.02 829.544 226.693 850.142H348.427Z"/>
</mask>
<path fill-rule="evenodd" clip-rule="evenodd" d="M348.427 850.142C356.101 829.544 360.571 804.827 360.571 778.249C360.571 706.377 327.883 648.114 287.56 648.114C247.238 648.114 214.55 706.377 214.55 778.249C214.55 804.827 219.02 829.544 226.693 850.142H348.427Z" fill="#FECD43"/>
<path d="M348.427 850.142V857.142H353.29L354.987 852.586L348.427 850.142ZM226.693 850.142L220.133 852.586L221.831 857.142H226.693V850.142ZM353.571 778.249C353.571 804.071 349.224 827.952 341.868 847.699L354.987 852.586C362.977 831.137 367.571 805.584 367.571 778.249H353.571ZM287.56 655.114C304.06 655.114 320.433 667.11 333.082 689.655C345.605 711.976 353.571 743.285 353.571 778.249H367.571C367.571 741.342 359.193 707.583 345.291 682.805C331.515 658.249 311.383 641.114 287.56 641.114V655.114ZM221.55 778.249C221.55 743.285 229.516 711.976 242.039 689.655C254.687 667.11 271.06 655.114 287.56 655.114V641.114C263.738 641.114 243.606 658.249 229.829 682.805C215.928 707.583 207.55 741.342 207.55 778.249H221.55ZM233.253 847.699C225.897 827.952 221.55 804.071 221.55 778.249H207.55C207.55 805.584 212.143 831.137 220.133 852.586L233.253 847.699ZM226.693 857.142H348.427V843.142H226.693V857.142Z" fill="#FECD43" mask="url(#path-38-inside-11_480_151)"/>
<line x1="630.107" y1="540.099" x2="630.107" y2="850.143" stroke="black" stroke-width="7"/>
<circle cx="926.65" cy="156.044" r="98.5145" fill="#D0E0FF" stroke="#6398FF" stroke-width="7"/>
<circle cx="712.619" cy="358.073" r="210.531" fill="#FFB6CC" stroke="#ED427F" stroke-width="7"/>
<path d="M871.144 358.073C871.144 416.484 853.217 469.233 824.398 507.303C795.58 545.37 756.028 568.604 712.621 568.604C669.214 568.604 629.661 545.37 600.844 507.303C572.025 469.233 554.098 416.484 554.098 358.073C554.098 299.662 572.025 246.913 600.844 208.843C629.661 170.776 669.214 147.542 712.621 147.542C756.028 147.542 795.58 170.776 824.398 208.843C853.217 246.913 871.144 299.662 871.144 358.073Z" stroke="#ED427F" stroke-width="7"/>
<path d="M713.622 176.548C699.825 176.548 687.485 174.568 678.719 171.474C674.32 169.922 671.009 168.154 668.865 166.365C666.702 164.56 666.114 163.084 666.114 162.045C666.114 161.006 666.702 159.53 668.865 157.725C671.009 155.936 674.32 154.168 678.719 152.616C687.485 149.522 699.825 147.542 713.622 147.542C727.418 147.542 739.758 149.522 748.524 152.616C752.923 154.168 756.235 155.936 758.378 157.725C760.541 159.53 761.129 161.006 761.129 162.045C761.129 163.084 760.541 164.56 758.378 166.365C756.235 168.154 752.923 169.922 748.524 171.474C739.758 174.568 727.418 176.548 713.622 176.548Z" fill="#FFB6CC" stroke="#ED427F" stroke-width="7"/>
<path d="M807.133 358.073C807.133 416.791 796.227 469.78 778.744 507.958C761.12 546.443 737.483 568.604 712.619 568.604C687.756 568.604 664.119 546.443 646.495 507.958C629.012 469.78 618.105 416.791 618.105 358.073C618.105 299.355 629.012 246.366 646.495 208.188C664.119 169.703 687.756 147.542 712.619 147.542C737.483 147.542 761.12 169.703 778.744 208.188C796.227 246.366 807.133 299.355 807.133 358.073Z" stroke="#ED427F" stroke-width="7"/>
<path d="M741.125 358.073C741.125 417.058 737.549 470.385 731.79 508.898C728.906 528.181 725.498 543.598 721.779 554.117C719.911 559.399 718.037 563.238 716.245 565.69C714.381 568.24 713.134 568.604 712.621 568.604C712.107 568.604 710.86 568.24 708.997 565.69C707.205 563.238 705.33 559.399 703.463 554.117C699.744 543.598 696.335 528.181 693.452 508.898C687.693 470.385 684.116 417.058 684.116 358.073C684.116 299.088 687.693 245.761 693.452 207.248C696.335 187.965 699.744 172.548 703.463 162.029C705.33 156.747 707.205 152.908 708.997 150.456C710.86 147.906 712.107 147.542 712.621 147.542C713.134 147.542 714.381 147.906 716.245 150.456C718.037 152.908 719.911 156.747 721.779 162.029C725.498 172.548 728.906 187.965 731.79 207.248C737.549 245.761 741.125 299.088 741.125 358.073Z" stroke="#ED427F" stroke-width="7"/>
<path d="M713.622 570.604C699.825 570.604 687.485 568.625 678.719 565.53C674.32 563.978 671.009 562.21 668.865 560.421C666.702 558.616 666.114 557.14 666.114 556.101C666.114 555.063 666.702 553.586 668.865 551.781C671.009 549.992 674.32 548.225 678.719 546.672C687.485 543.578 699.825 541.599 713.622 541.599C727.418 541.599 739.758 543.578 748.524 546.672C752.923 548.225 756.235 549.992 758.378 551.781C760.541 553.586 761.129 555.063 761.129 556.101C761.129 557.14 760.541 558.616 758.378 560.421C756.235 562.21 752.923 563.978 748.524 565.53C739.758 568.625 727.418 570.604 713.622 570.604Z" fill="#FFB6CC" stroke="#ED427F" stroke-width="7"/>
<path d="M287.56 446.586C269.884 446.586 254.029 444.156 242.714 440.327C237.039 438.406 232.698 436.197 229.846 433.915C226.961 431.606 226.051 429.612 226.051 428.083C226.051 426.554 226.961 424.56 229.846 422.251C232.698 419.97 237.039 417.761 242.714 415.84C254.029 412.01 269.884 409.58 287.56 409.58C305.236 409.58 321.092 412.01 332.406 415.84C338.082 417.761 342.422 419.97 345.274 422.251C348.159 424.56 349.069 426.554 349.069 428.083C349.069 429.612 348.159 431.606 345.274 433.915C342.422 436.197 338.082 438.406 332.406 440.327C321.092 444.156 305.236 446.586 287.56 446.586Z" fill="#FFF0C7" stroke="#FECD43" stroke-width="7"/>
<path d="M907.648 644.615C889.972 644.615 874.116 642.185 862.802 638.355C857.126 636.434 852.786 634.225 849.934 631.943C847.049 629.635 846.139 627.641 846.139 626.112C846.139 624.583 847.049 622.588 849.934 620.28C852.786 617.998 857.126 615.789 862.802 613.868C874.116 610.039 889.972 607.608 907.648 607.608C925.324 607.608 941.179 610.039 952.494 613.868C958.169 615.789 962.51 617.998 965.362 620.28C968.247 622.588 969.157 624.583 969.157 626.112C969.157 627.641 968.247 629.635 965.362 631.943C962.51 634.225 958.169 636.434 952.494 638.355C941.179 642.185 925.324 644.615 907.648 644.615Z" fill="#D0E0FF" stroke="#6398FF" stroke-width="7"/>
<ellipse cx="712.62" cy="436.085" rx="32.0046" ry="196.028" transform="rotate(90 712.62 436.085)" fill="#ED427F"/>
<ellipse cx="1250.7" cy="438.085" rx="32.0046" ry="238.034" transform="rotate(90 1250.7 438.085)" fill="#5EE453"/>
<circle cx="75.5283" cy="497.093" r="71.5107" fill="#FFB6CC" stroke="#ED427F" stroke-width="7"/>
<path fill-rule="evenodd" clip-rule="evenodd" d="M824.636 358.073C824.636 335.979 842.547 318.067 864.641 318.067H1153.68C1175.78 318.067 1193.69 335.979 1193.69 358.073C1193.69 380.168 1175.78 398.079 1153.68 398.079H864.641C842.547 398.079 824.636 380.168 824.636 358.073Z" fill="white" stroke="#ED427F" stroke-width="7" stroke-linecap="round"/>
</svg>
