<svg width="1383" height="1206" viewBox="0 0 1383 1206" fill="none" xmlns="http://www.w3.org/2000/svg">
<path d="M1303.79 710.288C1316.97 792.424 1265.15 877.884 1168.76 949.644C1072.52 1021.29 932.638 1078.61 771.91 1104.4C611.183 1130.19 460.387 1119.53 346.562 1081.59C232.556 1043.6 156.598 978.646 143.417 896.509C130.235 814.373 182.054 728.914 278.447 657.154C374.686 585.508 514.571 528.191 675.298 502.397C836.026 476.603 986.821 487.27 1100.65 525.204C1214.65 563.198 1290.61 628.152 1303.79 710.288Z" fill="white" stroke="#6398FF" stroke-width="7"/>
<mask id="path-2-inside-1_942_741" fill="white">
<path fill-rule="evenodd" clip-rule="evenodd" d="M186.623 839.544C184.376 693.211 395.294 543.783 674.745 498.936C953.942 454.13 1200.83 529.876 1244.82 669.323C1179.88 398.808 916.39 219.839 637.132 264.655C357.743 309.492 163.43 562.142 186.623 839.544Z"/>
</mask>
<path fill-rule="evenodd" clip-rule="evenodd" d="M186.623 839.544C184.376 693.211 395.294 543.783 674.745 498.936C953.942 454.13 1200.83 529.876 1244.82 669.323C1179.88 398.808 916.39 219.839 637.132 264.655C357.743 309.492 163.43 562.142 186.623 839.544Z" fill="#6AAEFC"/>
<path d="M186.623 839.544L179.647 840.128L193.622 839.437L186.623 839.544ZM1244.82 669.323L1238.14 671.428L1251.62 667.689L1244.82 669.323ZM193.622 839.437C192.551 769.726 242.413 697.659 329.065 636.915C415.43 576.372 536.982 528.135 675.854 505.848L673.636 492.025C533.057 514.585 409.424 563.485 321.029 625.451C232.921 687.216 178.447 763.029 179.623 839.652L193.622 839.437ZM675.854 505.848C814.6 483.581 945.031 491.328 1045.97 521.737C1147.23 552.247 1217.18 604.993 1238.14 671.428L1251.49 667.217C1228.46 594.206 1152.97 539.355 1050 508.332C946.699 477.208 814.086 469.485 673.636 492.025L675.854 505.848ZM638.242 271.567C913.859 227.334 1173.92 403.972 1238.01 670.956L1251.62 667.689C1185.84 393.644 918.921 212.343 636.023 257.743L638.242 271.567ZM193.598 838.961C170.709 565.179 362.494 315.82 638.242 271.567L636.023 257.743C352.992 303.165 156.152 559.105 179.647 840.128L193.598 838.961Z" fill="#6398FF" mask="url(#path-2-inside-1_942_741)"/>
<mask id="path-4-inside-2_942_741" fill="white">
<path fill-rule="evenodd" clip-rule="evenodd" d="M341.455 508.016C320.944 504.336 303.024 493.537 288.733 477.711C210.445 584.582 171.454 720.175 188.835 860.889L1249.49 690.671C1193.61 408.302 923.672 218.683 637.136 264.668C582.444 273.445 531.013 290.185 483.835 313.516C486.43 333.104 486.045 354.111 482.196 375.564C467.054 459.946 404.042 519.247 341.455 508.016ZM790.374 511.891C811.461 603.668 883.738 665.389 951.81 649.749C1019.88 634.109 1057.97 547.03 1036.88 455.253C1015.8 363.476 943.52 301.755 875.448 317.396C807.376 333.036 769.287 420.114 790.374 511.891Z"/>
</mask>
<path fill-rule="evenodd" clip-rule="evenodd" d="M341.455 508.016C320.944 504.336 303.024 493.537 288.733 477.711C210.445 584.582 171.454 720.175 188.835 860.889L1249.49 690.671C1193.61 408.302 923.672 218.683 637.136 264.668C582.444 273.445 531.013 290.185 483.835 313.516C486.43 333.104 486.045 354.111 482.196 375.564C467.054 459.946 404.042 519.247 341.455 508.016ZM790.374 511.891C811.461 603.668 883.738 665.389 951.81 649.749C1019.88 634.109 1057.97 547.03 1036.88 455.253C1015.8 363.476 943.52 301.755 875.448 317.396C807.376 333.036 769.287 420.114 790.374 511.891Z" fill="#6AAEFC"/>
<path d="M288.733 477.711L293.928 473.02L288.166 466.64L283.086 473.575L288.733 477.711ZM341.455 508.016L340.218 514.906L340.218 514.906L341.455 508.016ZM188.835 860.889L181.888 861.747L182.778 868.95L189.944 867.8L188.835 860.889ZM1249.49 690.671L1250.6 697.583L1257.76 696.432L1256.35 689.312L1249.49 690.671ZM483.835 313.516L480.732 307.241L476.237 309.464L476.895 314.435L483.835 313.516ZM482.196 375.564L489.085 376.8L489.085 376.8L482.196 375.564ZM790.374 511.891L783.552 513.459L783.552 513.459L790.374 511.891ZM875.448 317.396L873.88 310.573L873.88 310.573L875.448 317.396ZM283.538 482.403C298.732 499.229 317.992 510.918 340.218 514.906L342.691 501.126C323.896 497.754 307.316 487.846 293.928 473.02L283.538 482.403ZM195.782 860.03C178.629 721.155 217.104 587.337 294.38 481.848L283.086 473.575C203.785 581.828 164.28 719.195 181.888 861.747L195.782 860.03ZM1248.38 683.759L187.726 853.977L189.944 867.8L1250.6 697.583L1248.38 683.759ZM638.245 271.579C921.048 226.194 1187.47 413.343 1242.62 692.03L1256.35 689.312C1199.75 403.261 926.296 211.173 636.027 257.756L638.245 271.579ZM486.938 319.791C533.494 296.767 584.254 280.244 638.245 271.579L636.027 257.756C580.635 266.646 528.532 283.603 480.732 307.241L486.938 319.791ZM489.085 376.8C493.06 354.65 493.466 332.915 490.774 312.597L476.895 314.435C479.394 333.293 479.03 353.573 475.306 374.327L489.085 376.8ZM340.218 514.906C374.2 521.004 407.747 507.84 434.415 482.742C461.083 457.645 481.276 420.32 489.085 376.8L475.306 374.327C467.973 415.19 449.09 449.707 424.82 472.547C400.549 495.389 371.297 506.259 342.691 501.126L340.218 514.906ZM950.242 642.927C918.868 650.135 885.981 639.657 858.018 615.778C830.056 591.9 807.437 554.896 797.196 510.324L783.552 513.459C794.397 560.663 818.46 600.408 848.927 626.425C879.392 652.441 916.679 665.003 953.377 656.571L950.242 642.927ZM1030.06 456.821C1040.3 501.393 1036.1 544.559 1021.37 578.247C1006.63 611.936 981.616 635.718 950.242 642.927L953.377 656.571C990.075 648.14 1018.14 620.562 1034.19 583.858C1050.25 547.152 1054.55 500.89 1043.71 453.686L1030.06 456.821ZM877.015 324.218C908.39 317.009 941.277 327.488 969.239 351.366C997.201 375.244 1019.82 412.248 1030.06 456.821L1043.71 453.686C1032.86 406.481 1008.8 366.737 978.331 340.72C947.865 314.704 910.578 302.142 873.88 310.573L877.015 324.218ZM797.196 510.324C786.955 465.751 791.154 422.585 805.89 388.897C820.626 355.209 845.641 331.426 877.015 324.218L873.88 310.573C837.183 319.005 809.118 346.582 793.063 383.287C777.008 419.993 772.706 466.255 783.552 513.459L797.196 510.324Z" fill="#6398FF" mask="url(#path-4-inside-2_942_741)"/>
<path d="M1246.4 691.16C1258.35 765.667 1211.35 843.269 1123.74 908.491C1036.29 973.599 909.146 1025.7 763.044 1049.15C616.941 1072.59 479.883 1062.89 376.445 1028.42C272.825 993.887 203.904 934.89 191.947 860.382C179.99 785.875 226.989 708.274 314.599 643.052C402.057 577.944 529.197 525.845 675.3 502.398C821.402 478.951 958.46 488.65 1061.9 523.123C1165.52 557.656 1234.44 616.653 1246.4 691.16Z" fill="white" stroke="#6398FF" stroke-width="7"/>
<ellipse cx="652.004" cy="920.951" rx="52.7169" ry="25.9767" transform="rotate(-9.1173 652.004 920.951)" fill="#6398FF"/>
<path d="M704.716 938.804C705.525 943.846 702.166 950.052 693.812 955.978C685.662 961.759 673.643 966.555 659.683 968.795C645.723 971.036 632.806 970.241 623.256 967.301C613.468 964.287 608.335 959.443 607.526 954.402L603.964 932.209L701.155 916.611L704.716 938.804Z" stroke="#6398FF" stroke-width="7"/>
<ellipse cx="791.939" cy="896.776" rx="66.1711" ry="32.6064" transform="rotate(-9.1173 791.939 896.776)" fill="#6398FF"/>
<path d="M858.986 919.038C860.085 925.888 855.501 933.969 844.934 941.465C834.57 948.816 819.347 954.878 801.718 957.708C784.09 960.537 767.734 959.542 755.591 955.803C743.208 951.99 736.326 945.749 735.227 938.9L730.615 910.161L854.374 890.3L858.986 919.038Z" stroke="#6398FF" stroke-width="7"/>
<ellipse cx="938.138" cy="826.798" rx="66.1711" ry="32.6064" transform="rotate(-9.1173 938.138 826.798)" fill="#6398FF"/>
<path d="M1007.3 862.214C1008.4 869.064 1003.81 877.145 993.244 884.641C982.88 891.992 967.657 898.055 950.029 900.884C932.4 903.713 916.045 902.718 903.901 898.979C891.518 895.166 884.636 888.925 883.537 882.076L876.814 840.183L1000.57 820.322L1007.3 862.214Z" stroke="#6398FF" stroke-width="7"/>
<ellipse cx="1056.89" cy="731.571" rx="66.1711" ry="32.6064" transform="rotate(-9.1173 1056.89 731.571)" fill="#6398FF"/>
<path d="M1127.63 776.855C1128.73 783.705 1124.15 791.786 1113.58 799.282C1103.22 806.633 1088 812.695 1070.37 815.524C1052.74 818.353 1036.38 817.359 1024.24 813.62C1011.86 809.807 1004.97 803.566 1003.88 796.716L995.569 744.959L1119.33 725.098L1127.63 776.855Z" stroke="#6398FF" stroke-width="7"/>
<path d="M524.647 582.346L518.913 546.615C517.128 535.49 517.551 524.122 520.159 513.161C522.767 502.2 527.508 491.859 534.112 482.731C540.716 473.602 549.054 465.863 558.648 459.956C568.243 454.049 578.908 450.09 590.032 448.305C601.157 446.519 612.525 446.943 623.486 449.551C634.448 452.158 644.788 456.9 653.917 463.504C663.046 470.108 670.785 478.445 676.691 488.04C682.598 497.635 686.557 508.299 688.343 519.424L690.077 530.231C690.074 530.275 690.065 530.346 690.045 530.441C689.984 530.723 689.796 531.314 689.152 532.073C687.843 533.616 684.319 536.208 675.139 537.681C665.991 539.149 661.502 537.856 659.463 536.734C658.449 536.177 657.954 535.618 657.736 535.316C657.693 535.256 657.658 535.204 657.632 535.161L655.941 524.624C654.838 517.754 652.393 511.169 648.746 505.244C645.098 499.319 640.32 494.171 634.682 490.093C629.045 486.015 622.66 483.087 615.891 481.476C609.122 479.866 602.102 479.605 595.232 480.707C588.363 481.81 581.777 484.254 575.852 487.902C569.927 491.549 564.779 496.328 560.701 501.966C556.622 507.603 553.695 513.988 552.084 520.757C550.474 527.526 550.212 534.545 551.315 541.415L557.026 577.001C557.022 577.042 557.013 577.104 556.994 577.186C556.933 577.456 556.738 578.051 556.058 578.825C554.665 580.411 550.953 583.043 541.411 584.575C531.852 586.109 527.651 584.739 525.97 583.702C525.156 583.2 524.839 582.724 524.724 582.511C524.682 582.435 524.659 582.377 524.647 582.346Z" fill="white" stroke="#6398FF" stroke-width="7"/>
<mask id="path-16-inside-3_942_741" fill="white">
<path fill-rule="evenodd" clip-rule="evenodd" d="M417.543 802.288C469.313 793.98 506.572 757.907 500.764 721.716C494.956 685.525 448.28 662.921 396.51 671.229C344.741 679.537 307.482 715.611 313.29 751.802C319.098 787.993 365.774 810.597 417.543 802.288ZM407.142 737.496C426.409 734.403 440.687 723.535 439.031 713.22C437.376 702.905 420.414 697.049 401.147 700.141C381.879 703.234 367.602 714.102 369.257 724.417C370.913 734.732 387.874 740.588 407.142 737.496Z"/>
</mask>
<path fill-rule="evenodd" clip-rule="evenodd" d="M417.543 802.288C469.313 793.98 506.572 757.907 500.764 721.716C494.956 685.525 448.28 662.921 396.51 671.229C344.741 679.537 307.482 715.611 313.29 751.802C319.098 787.993 365.774 810.597 417.543 802.288ZM407.142 737.496C426.409 734.403 440.687 723.535 439.031 713.22C437.376 702.905 420.414 697.049 401.147 700.141C381.879 703.234 367.602 714.102 369.257 724.417C370.913 734.732 387.874 740.588 407.142 737.496Z" fill="white"/>
<path d="M493.852 722.825C496.294 738.042 489.805 753.943 475.876 767.429C461.967 780.896 441.077 791.422 416.434 795.377L418.653 809.2C445.779 804.847 469.404 793.182 485.614 777.487C501.805 761.811 511.041 741.58 507.675 720.606L493.852 722.825ZM397.62 678.141C422.262 674.186 445.397 677.647 462.822 686.085C480.271 694.536 491.41 707.608 493.852 722.825L507.675 720.606C504.309 699.632 489.206 683.307 468.924 673.485C448.616 663.651 422.528 659.964 395.401 664.318L397.62 678.141ZM320.201 750.693C317.759 735.476 324.249 719.575 338.178 706.089C352.087 692.622 372.977 682.095 397.62 678.141L395.401 664.318C368.274 668.671 344.65 680.335 328.439 696.03C312.249 711.706 303.012 731.937 306.378 752.911L320.201 750.693ZM416.434 795.377C391.792 799.332 368.657 795.87 351.232 787.432C333.783 778.982 322.644 765.91 320.201 750.693L306.378 752.911C309.744 773.885 324.847 790.21 345.13 800.033C365.438 809.867 391.526 813.553 418.653 809.2L416.434 795.377ZM432.12 714.329C432.341 715.705 431.644 718.728 426.693 722.496C422.008 726.063 414.757 729.184 406.032 730.584L408.251 744.407C418.793 742.715 428.316 738.856 435.173 733.636C441.763 728.619 447.378 721.05 445.943 712.111L432.12 714.329ZM402.256 707.053C410.981 705.653 418.844 706.348 424.409 708.27C430.291 710.3 431.899 712.953 432.12 714.329L445.943 712.111C444.508 703.171 436.808 697.739 428.978 695.036C420.832 692.224 410.58 691.538 400.038 693.23L402.256 707.053ZM376.169 723.308C375.948 721.932 376.645 718.909 381.596 715.141C386.281 711.574 393.531 708.453 402.256 707.053L400.038 693.23C389.495 694.922 379.973 698.781 373.116 704.001C366.525 709.018 360.911 716.587 362.346 725.527L376.169 723.308ZM406.032 730.584C397.307 731.984 389.445 731.289 383.879 729.367C377.997 727.337 376.39 724.684 376.169 723.308L362.346 725.527C363.78 734.466 371.481 739.898 379.311 742.601C387.456 745.413 397.708 746.099 408.251 744.407L406.032 730.584Z" fill="#6398FF" mask="url(#path-16-inside-3_942_741)"/>
<path d="M410.383 615.621L429.39 734.052C429.39 734.059 429.39 734.066 429.39 734.075C429.388 734.172 429.377 734.388 429.307 734.695C429.172 735.287 428.798 736.325 427.694 737.581C425.455 740.13 419.92 743.883 406.473 746.041C393.01 748.201 386.768 746.331 384.022 744.638C382.675 743.807 382.071 742.963 381.8 742.466C381.658 742.205 381.593 742.011 381.567 741.922C381.563 741.909 381.56 741.897 381.558 741.889L381.552 741.851L362.527 623.301C360.011 607.624 360.607 591.605 364.282 576.159C367.957 560.713 374.638 546.142 383.944 533.278C393.251 520.414 404.999 509.509 418.52 501.185C432.041 492.861 447.068 487.282 462.745 484.767C478.422 482.251 494.44 482.847 509.887 486.522C525.333 490.197 539.904 496.878 552.768 506.184C565.632 515.49 576.537 527.239 584.861 540.76C593.184 554.28 598.763 569.308 601.279 584.985L627.995 751.456C627.995 751.465 627.995 751.476 627.995 751.489C627.995 751.594 627.984 751.816 627.916 752.129C627.786 752.732 627.427 753.765 626.377 755.002C624.255 757.503 618.974 761.205 606.025 763.284C593.106 765.357 586.509 763.574 583.304 761.812C581.708 760.934 580.866 760.017 580.446 759.436C580.268 759.19 580.158 758.993 580.096 758.87L553.423 592.665C551.915 583.273 548.573 574.27 543.586 566.17C538.6 558.07 532.066 551.031 524.359 545.455C516.652 539.88 507.922 535.877 498.668 533.676C489.414 531.474 479.817 531.117 470.425 532.624C461.033 534.131 452.03 537.474 443.93 542.46C435.829 547.447 428.79 553.98 423.215 561.687C417.64 569.394 413.637 578.124 411.435 587.378C409.234 596.632 408.876 606.229 410.383 615.621Z" fill="white" stroke="#6398FF" stroke-width="7"/>
<path d="M415.994 792.634C460.957 785.418 493.808 757.145 489.369 729.484L440.827 724.677C437.145 731.114 422.359 737.063 405.014 739.847C387.668 742.631 378.232 740.471 370.962 735.887L326.543 755.615C330.983 783.276 371.031 799.85 415.994 792.634Z" fill="white"/>
<path d="M774.805 498.742C773.422 492.87 772.854 488.031 772.35 484.89L1058.24 516.579L1064.22 553.877C1066 564.949 995.156 627.182 893.228 615.29C791.299 603.398 783.67 550.373 780.906 533.149L774.805 498.742Z" fill="white"/>
<path d="M772.35 484.89C774.902 500.793 779.111 560.251 882.308 576.672C985.505 593.094 1063.79 551.147 1058.24 516.579M772.35 484.89L1058.24 516.579M772.35 484.89L780.906 533.149C783.67 550.373 791.299 603.398 893.228 615.29C995.156 627.182 1066 564.949 1064.22 553.877C1062.96 546.003 1061.07 534.193 1058.24 516.579" stroke="#6398FF" stroke-width="7" stroke-linejoin="round"/>
<path d="M794.683 457.481L1015.62 474.351L1020.93 507.487C1022.51 517.324 980.328 551.244 898.155 546.74C841.915 543.657 805.018 521.885 800.456 493.457L794.683 457.481Z" fill="white"/>
<path d="M794.683 457.481C796.95 471.61 817.601 507.083 892.592 512.076C967.584 517.07 999.885 485.691 1015.62 474.351M794.683 457.481L1015.62 474.351M794.683 457.481L800.456 493.457C805.018 521.885 841.915 543.657 898.155 546.74C980.328 551.244 1022.51 517.324 1020.93 507.487C1019.81 500.492 1018.13 490 1015.62 474.351" stroke="#6398FF" stroke-width="7" stroke-linejoin="round"/>
<path d="M778.146 590.089C787.643 625.251 817.448 650.613 861.173 681.781C919.222 723.159 920.893 797.022 839.172 836.141C875.495 802.78 886.1 754.421 853.519 727.168C820.937 699.914 792.735 680.993 789.85 663.019L778.742 593.802C769.761 582.161 739.293 563.024 703.71 573.785C668.127 584.547 645.236 628.521 650.716 685.347C660.648 699.992 676.505 714.235 699.86 728.052C720.801 740.44 730.986 752.854 732.476 764.556L740.461 814.316C737.163 828.666 709.712 858.001 626.298 860.544C522.031 863.723 462.448 842.702 436.819 882.182C421.361 905.992 434.533 944.309 434.533 944.309L416.795 945.314C397.862 885.939 416.859 822.768 516.557 829.614C636.139 837.826 737.697 805.564 732.476 764.556C730.986 752.854 720.801 740.44 699.86 728.052C676.505 714.235 660.648 699.992 650.716 685.347C647.682 680.873 614.83 632.088 648.631 582.625C682.433 533.161 767.706 525.034 775.08 570.982L778.146 590.089Z" fill="#6398FF"/>
<path d="M551.406 966.259C554.322 935.862 595.79 872.153 738.333 860.501C780.495 857.054 813.84 848.267 839.172 836.141M775.08 570.982C777.795 616.693 809.922 645.248 861.173 681.781C919.222 723.159 920.893 797.022 839.172 836.141M775.08 570.982C767.706 525.034 682.433 533.161 648.631 582.625C614.83 632.088 647.682 680.873 650.716 685.347M775.08 570.982C776.207 578.008 777.458 585.805 778.742 593.802M839.172 836.141C875.495 802.78 886.1 754.421 853.519 727.168C820.937 699.914 792.735 680.993 789.85 663.019C789.85 663.019 784.023 626.712 778.742 593.802M778.742 593.802C769.761 582.161 739.293 563.024 703.71 573.785C668.127 584.547 645.236 628.521 650.716 685.347M650.716 685.347C660.648 699.992 676.505 714.235 699.86 728.052C720.801 740.44 730.986 752.854 732.476 764.556M732.476 764.556C737.697 805.564 636.139 837.826 516.557 829.614C416.859 822.768 397.862 885.939 416.795 945.314L434.533 944.309C434.533 944.309 421.361 905.992 436.819 882.182C462.448 842.702 522.031 863.723 626.298 860.544C709.712 858.001 737.163 828.666 740.461 814.316L732.476 764.556Z" stroke="#6398FF" stroke-width="7"/>
<path d="M938.528 660.96C950.641 680.636 958.806 702.479 962.572 725.27C962.52 725.393 962.454 725.539 962.369 725.705C961.999 726.434 961.263 727.583 959.851 728.897C957.036 731.514 951.326 734.968 939.958 736.793C928.594 738.616 921.981 737.141 918.378 735.531C916.569 734.723 915.457 733.855 914.839 733.268C914.702 733.139 914.588 733.021 914.496 732.92C911.739 716.464 905.824 700.694 897.074 686.48C888.169 672.015 876.502 659.446 862.739 649.489C848.976 639.533 833.387 632.385 816.862 628.454C800.336 624.522 783.199 623.884 766.427 626.575C749.655 629.267 733.577 635.236 719.112 644.141C704.647 653.046 692.077 664.713 682.121 678.476C672.165 692.238 665.017 707.827 661.085 724.353C657.204 740.664 656.532 757.572 659.104 774.137C659.066 774.252 659.013 774.399 658.937 774.571C658.652 775.222 658.034 776.305 656.708 777.574C654.049 780.117 648.338 783.593 636.279 785.528C624.221 787.463 617.709 785.949 614.388 784.366C612.731 783.576 611.805 782.74 611.331 782.211C611.207 782.073 611.112 781.953 611.04 781.856C607.454 758.978 608.366 735.618 613.727 713.086C619.138 690.341 628.977 668.885 642.68 649.943C656.383 631.001 673.683 614.943 693.592 602.687C713.501 590.43 735.629 582.215 758.713 578.511C781.797 574.806 805.384 575.684 828.129 581.096C850.873 586.507 872.329 596.345 891.271 610.048C910.214 623.751 926.271 641.051 938.528 660.96Z" fill="white" stroke="#6398FF" stroke-width="7"/>
<path d="M810.738 1013.88L763.054 716.755C857.444 701.607 892.099 682.353 1018.26 609.301L984.273 397.524C1039.73 402.297 1119.22 423 1129.87 470.265C1130.23 471.866 1130.51 473.498 1130.71 475.16C1142.54 544.065 1177.46 752.776 1180.2 769.9C1194.81 860.885 935.62 987.633 810.738 1013.88Z" fill="white" fill-opacity="0.8"/>
<path d="M1018.26 609.301C892.099 682.353 857.444 701.607 763.054 716.755L810.738 1013.88C935.62 987.633 1194.81 860.885 1180.2 769.9C1177.39 752.349 1140.77 533.522 1129.87 470.265M1018.26 609.301C1043.27 594.82 1066.05 578.369 1085.43 559.722C1123.86 522.747 1135.07 493.34 1129.87 470.265M1018.26 609.301L984.273 397.524C1039.73 402.297 1119.22 423 1129.87 470.265" stroke="#6398FF" stroke-width="7"/>
<path d="M615.168 1063.05C620.966 1035.88 605.964 975.632 499.569 952.068C444.861 939.951 400.196 945.921 366.869 958.031" stroke="#6398FF" stroke-width="7"/>
<path d="M287.852 989.79C287.852 989.79 320.231 940.673 434.151 966.311C548.07 991.95 559.332 1062.13 559.332 1062.13" stroke="#6398FF" stroke-width="7"/>
<path d="M441.429 712.836C441.89 715.705 441.382 718.701 439.933 721.653C438.485 724.604 436.126 727.454 432.99 730.038C429.853 732.623 426.002 734.892 421.655 736.716C417.308 738.54 412.551 739.883 407.655 740.669C402.759 741.454 397.82 741.667 393.121 741.295C388.422 740.923 384.054 739.973 380.266 738.5C376.479 737.026 373.346 735.058 371.047 732.708C368.748 730.358 367.328 727.671 366.867 724.802" stroke="#6398FF" stroke-width="7"/>
<path opacity="0.7" d="M422.411 1018.58C392.367 1023.4 362.257 1011.4 337.823 987.544C313.389 963.685 294.83 928.118 288.144 886.461C281.459 844.804 287.957 805.216 303.698 774.909C319.44 744.602 344.283 723.782 374.326 718.96C404.37 714.139 434.48 726.14 458.914 749.999C483.348 773.858 501.907 809.425 508.592 851.082C515.278 892.739 508.78 932.328 493.039 962.634C477.297 992.941 452.454 1013.76 422.411 1018.58Z" fill="#6AAEFC" stroke="#6398FF" stroke-width="7"/>
<mask id="path-33-inside-4_942_741" fill="white">
<path fill-rule="evenodd" clip-rule="evenodd" d="M673.444 472.73C715.096 466.045 743.444 426.86 736.759 385.207C730.074 343.554 690.889 315.207 649.236 321.892C607.584 328.576 579.236 367.761 585.921 409.414C592.606 451.067 631.791 479.414 673.444 472.73ZM666.685 430.622C685.082 427.67 697.602 410.363 694.649 391.966C691.697 373.57 674.39 361.05 655.994 364.002C637.597 366.954 625.077 384.261 628.029 402.658C630.982 421.054 648.288 433.574 666.685 430.622Z"/>
</mask>
<path fill-rule="evenodd" clip-rule="evenodd" d="M673.444 472.73C715.096 466.045 743.444 426.86 736.759 385.207C730.074 343.554 690.889 315.207 649.236 321.892C607.584 328.576 579.236 367.761 585.921 409.414C592.606 451.067 631.791 479.414 673.444 472.73ZM666.685 430.622C685.082 427.67 697.602 410.363 694.649 391.966C691.697 373.57 674.39 361.05 655.994 364.002C637.597 366.954 625.077 384.261 628.029 402.658C630.982 421.054 648.288 433.574 666.685 430.622Z" fill="white"/>
<path d="M729.848 386.316C735.92 424.152 710.17 459.746 672.334 465.818L674.553 479.641C720.023 472.344 750.968 429.568 743.671 384.098L729.848 386.316ZM650.346 328.803C688.181 322.731 723.776 348.481 729.848 386.316L743.671 384.098C736.373 338.628 693.597 307.683 648.127 314.98L650.346 328.803ZM592.832 408.305C586.76 370.469 612.51 334.875 650.346 328.803L648.127 314.98C602.657 322.277 571.712 365.053 579.009 410.523L592.832 408.305ZM672.334 465.818C634.499 471.89 598.904 446.141 592.832 408.305L579.009 410.523C586.307 455.993 629.083 486.938 674.553 479.641L672.334 465.818ZM687.738 393.075C690.077 407.655 680.155 421.371 665.576 423.71L667.794 437.533C690.008 433.969 705.126 413.071 701.561 390.857L687.738 393.075ZM657.103 370.914C671.682 368.574 685.398 378.496 687.738 393.075L701.561 390.857C697.996 368.643 677.098 353.525 654.884 357.09L657.103 370.914ZM634.941 401.548C632.601 386.969 642.523 373.253 657.103 370.914L654.884 357.09C632.671 360.655 617.553 381.553 621.118 403.767L634.941 401.548ZM665.576 423.71C650.996 426.05 637.281 416.128 634.941 401.548L621.118 403.767C624.683 425.981 645.58 441.098 667.794 437.533L665.576 423.71Z" fill="#6398FF" mask="url(#path-33-inside-4_942_741)"/>
</svg>
